{
copyright = "Copyright 2014 Eczar Project Authors (info@rosettatype.com)";
customParameters = (
{
name = openTypeOS2VendorID;
value = " RST";
},
{
name = glyphOrder;
value = (
    ".notdef",
    NULL,
    CR,
    space,
    nbspace,
    enspace,
    emspace,
    thinspace,
    exclam,
    quotedbl,
    numbersign,
    dollar,
    percent,
    ampersand,
    quotesingle,
    parenleft,
    parenright,
    asterisk,
    plus,
    comma,
    hyphen,
    period,
    slash,
    zero,
    one,
    two,
    three,
    four,
    five,
    six,
    seven,
    eight,
    nine,
    colon,
    semicolon,
    less,
    equal,
    greater,
    question,
    at,
    A,
    B,
    C,
    D,
    E,
    F,
    G,
    H,
    I,
    J,
    K,
    L,
    M,
    N,
    O,
    P,
    Q,
    R,
    S,
    T,
    U,
    V,
    W,
    X,
    Y,
    Z,
    bracketleft,
    backslash,
    bracketright,
    asciicircum,
    underscore,
    grave,
    a,
    b,
    c,
    d,
    e,
    f,
    g,
    h,
    i,
    j,
    k,
    l,
    m,
    n,
    o,
    p,
    q,
    r,
    s,
    t,
    u,
    v,
    w,
    x,
    y,
    z,
    braceleft,
    bar,
    braceright,
    asciitilde,
    exclamdown,
    cent,
    sterling,
    currency,
    yen,
    brokenbar,
    section,
    dieresis,
    copyright,
    ordfeminine,
    guillemetleft,
    logicalnot,
    softhyphen,
    registered,
    macron,
    degree,
    plusminus,
    twosuperior,
    threesuperior,
    foursuperior,
    acute,
    micro,
    paragraph,
    periodcentered,
    cedilla,
    onesuperior,
    ordmasculine,
    guillemetright,
    onequarter,
    onehalf,
    threequarters,
    questiondown,
    Agrave,
    Aacute,
    Acircumflex,
    Atilde,
    Adieresis,
    Aring,
    AE,
    Ccedilla,
    Egrave,
    Eacute,
    Ecircumflex,
    Edieresis,
    Igrave,
    Iacute,
    Icircumflex,
    Idieresis,
    Eth,
    Ntilde,
    Ograve,
    Oacute,
    Ocircumflex,
    Otilde,
    Odieresis,
    multiply,
    Oslash,
    Ugrave,

glyphs = (
{
glyphname = .notdef;
layers = (
{
layerId = "3A083A2A-974B-4791-8355-BC872DC0CF17";
name = Regular;
paths = (
{
closed = 1;
nodes = (
"47 23 LINE",
"465 23 LINE",
"465 458 LINE",
"47 458 LINE"
);
},
{
closed = 1;
nodes = (
"154 344 LINE",
"361 344 LINE",
"361 138 LINE",
"154 138 LINE"
);
}
);
width = 512;
}
);
},
{
color = 3;
glyphname = exclam;
layers = (
{
layerId = "3A083A2A-974B-4791-8355-BC872DC0CF17";
name = Regular;
paths = (
{
closed = 1;
nodes = (
"232 252 LINE",
"278 695 LINE",
"229 723 OFFCURVE",
"127 721 OFFCURVE",
"71 697 CURVE",
"115 252 LINE"
);
},
{
closed = 1;
nodes = (
"123 156 OFFCURVE",
"89 119 OFFCURVE",
"81 65 CURVE",
"103 22 OFFCURVE",
"138 -6 OFFCURVE",
"186 -20 CURVE",
"229 2 OFFCURVE",
"258 36 OFFCURVE",
"271 81 CURVE",
"259 125 OFFCURVE",
"219 162 OFFCURVE",
"171 183 CURVE"
);
}
);
width = 349;
}
);
unicode = 0021;
},
{
color = 3;
glyphname = quotedbl;
layers = (
{
layerId = "3A083A2A-974B-4791-8355-BC872DC0CF17";
name = Regular;
paths = (
{
closed = 1;
nodes = (
"109 402 LINE",
"175 486 OFFCURVE",
"216 623 OFFCURVE",
"210 671 CURVE",
"99 693 LINE",
"52 646 LINE",
"56 605 OFFCURVE",
"42 516 OFFCURVE",
"11 437 CURVE"
);
},
{
closed = 1;
nodes = (
"338 402 LINE",
"404 486 OFFCURVE",
"445 623 OFFCURVE",
"439 671 CURVE",
"328 693 LINE",
"281 646 LINE",
"285 605 OFFCURVE",
"271 516 OFFCURVE",
"240 437 CURVE"
);
}
);
width = 442;
}
);
unicode = 0022;
},
{
color = 3;
glyphname = numbersign;
layers = (
{
layerId = "3A083A2A-974B-4791-8355-BC872DC0CF17";
name = Regular;
paths = (
{
closed = 1;
nodes = (
"127 0 LINE",
"217 -11 LINE",
"298 520 LINE",
"208 530 LINE"
);
},
{
closed = 1;
nodes = (
"326 0 LINE",
"416 -11 LINE",
"497 520 LINE",
"407 530 LINE"
);
},
{
closed = 1;
nodes = (
"83 324 LINE",
"567 324 LINE",
"567 407 LINE",
"83 407 LINE"
);
},
{
closed = 1;
nodes = (
"54 122 LINE",
"538 122 LINE",
"538 207 LINE",
"54 207 LINE"
);
}
);
width = 621;
}
);
leftMetricsKey = minus;
rightMetricsKey = minus;
unicode = 0023;
},
{
color = 3;
glyphname = dollar;
layers = (
{
components = (
{
name = S;
}
);
layerId = "3A083A2A-974B-4791-8355-BC872DC0CF17";
name = Regular;
paths = (
{
closed = 1;
nodes = (
"251 633 LINE",
"373 633 LINE",
"373 785 LINE",
"251 785 LINE"
);
},
{
closed = 1;
nodes = (
"374 -145 LINE",
"374 35 LINE",
"251 35 LINE",
"251 -145 LINE"
);
}
);
width = 598;
}
);
leftKerningGroup = S;
leftMetricsKey = S;
rightKerningGroup = S;
rightMetricsKey = S;
unicode = 0024;
},
{
color = 3;
glyphname = percent;
layers = (
{
layerId = "3A083A2A-974B-4791-8355-BC872DC0CF17";
name = Regular;
paths = (
{
closed = 1;
nodes = (
"216 -30 LINE",
"671 544 LINE",
"600 602 LINE",
"144 29 LINE"
);
},
{
closed = 1;
nodes = (
"169 345 OFFCURVE",
"144 389 OFFCURVE",
"144 435 CURVE SMOOTH",
"144 463 OFFCURVE",
"154 493 OFFCURVE",
"171 512 CURVE",
"228 529 OFFCURVE",
"255 482 OFFCURVE",
"255 433 CURVE SMOOTH",
"255 403 OFFCURVE",
"245 372 OFFCURVE",
"225 354 CURVE"
);
},
{
closed = 1;
nodes = (
"42 340 OFFCURVE",
"117 265 OFFCURVE",
"206 265 CURVE SMOOTH",
"296 265 OFFCURVE",
"361 340 OFFCURVE",
"361 431 CURVE SMOOTH",
"361 526 OFFCURVE",
"290 607 OFFCURVE",
"201 607 CURVE SMOOTH",
"112 607 OFFCURVE",
"42 525 OFFCURVE",
"42 433 CURVE SMOOTH"
);
},
{
closed = 1;
nodes = (
"597 61 OFFCURVE",
"572 104 OFFCURVE",
"572 150 CURVE SMOOTH",
"572 179 OFFCURVE",
"582 207 OFFCURVE",
"599 227 CURVE",
"656 244 OFFCURVE",
"683 198 OFFCURVE",
"683 148 CURVE SMOOTH",
"683 118 OFFCURVE",
"673 87 OFFCURVE",
"653 69 CURVE"
);
},
{
closed = 1;
nodes = (
"469 54 OFFCURVE",
"544 -20 OFFCURVE",
"633 -20 CURVE SMOOTH",
"723 -20 OFFCURVE",
"788 56 OFFCURVE",
"788 147 CURVE SMOOTH",
"788 241 OFFCURVE",
"717 321 OFFCURVE",
"628 321 CURVE SMOOTH",
"539 321 OFFCURVE",
"469 240 OFFCURVE",
"469 149 CURVE SMOOTH"
);
}
);
width = 831;
}
);
unicode = 0025;
},
{
color = 3;
glyphname = ampersand;
layers = (
{
layerId = "3A083A2A-974B-4791-8355-BC872DC0CF17";
name = Regular;
paths = (
{
closed = 1;
nodes = (
"255 373 LINE",
"210 394 OFFCURVE",
"189 437 OFFCURVE",
"189 472 CURVE SMOOTH",
"189 512 OFFCURVE",
"215 550 OFFCURVE",
"250 564 CURVE",
"432 488 LINE",
"485 624 LINE",
"418 654 OFFCURVE",
"338 668 OFFCURVE",
"275 668 CURVE SMOOTH",
"115 668 OFFCURVE",
"33 579 OFFCURVE",
"33 494 CURVE SMOOTH",
"33 422 OFFCURVE",
"91 351 OFFCURVE",
"216 339 CURVE"
);
},
{
closed = 1;
nodes = (
"403 374 LINE",
"448 336 OFFCURVE",
"471 275 OFFCURVE",
"471 217 CURVE SMOOTH",
"471 168 OFFCURVE",
"454 123 OFFCURVE",
"416 93 CURVE",
"388 77 OFFCURVE",
"347 70 OFFCURVE",
"316 70 CURVE SMOOTH",
"241 70 OFFCURVE",
"172 107 OFFCURVE",
"172 181 CURVE SMOOTH",
"172 242 OFFCURVE",
"221 289 OFFCURVE",
"307 287 CURVE",
"324 361 LINE",
"191 409 LINE",
"186 383 LINE",
"98 375 OFFCURVE",
"12 312 OFFCURVE",
"12 204 CURVE SMOOTH",
"12 66 OFFCURVE",
"147 -28 OFFCURVE",
"318 -28 CURVE SMOOTH",
"504 -28 OFFCURVE",
"612 84 OFFCURVE",
"612 225 CURVE SMOOTH",
"612 289 OFFCURVE",
"590 362 OFFCURVE",
"539 419 CURVE"
);
},
{
closed = 1;
nodes = (
"390 287 LINE",
"551 395 OFFCURVE",
"618 358 OFFCURVE",
"696 308 CURVE",
"739 431 LINE",
"657 511 OFFCURVE",
"539 473 OFFCURVE",
"352 358 CURVE"
);
}
);
width = 701;
}
);
unicode = 0026;
},
{
color = 3;
glyphname = quotesingle;
layers = (
{
layerId = "3A083A2A-974B-4791-8355-BC872DC0CF17";
name = Regular;
paths = (
{
closed = 1;
nodes = (
"70 464 LINE",
"122 534 OFFCURVE",
"162 653 OFFCURVE",
"159 733 CURVE",
"48 749 LINE",
"3 702 LINE",
"7 661 OFFCURVE",
"5 578 OFFCURVE",
"-27 499 CURVE"
);
}
);
width = 186;
}
);
unicode = 0027;
},
{
color = 3;
glyphname = parenleft;
layers = (
{
layerId = "3A083A2A-974B-4791-8355-BC872DC0CF17";
name = Regular;
paths = (
{
closed = 1;
nodes = (
"319 -98 LINE",
"250 39 OFFCURVE",
"206 171 OFFCURVE",
"206 307 CURVE SMOOTH",
"206 429 OFFCURVE",
"244 550 OFFCURVE",
"322 676 CURVE",
"222 732 LINE",
"90 596 OFFCURVE",
"31 453 OFFCURVE",
"31 303 CURVE SMOOTH",
"31 137 OFFCURVE",
"101 -16 OFFCURVE",
"217 -155 CURVE"
);
}
);
width = 358;
}
);
unicode = 0028;
},
{
color = 3;
glyphname = parenright;
layers = (
{
layerId = "3A083A2A-974B-4791-8355-BC872DC0CF17";
name = Regular;
paths = (
{
closed = 1;
nodes = (
"257 -16 OFFCURVE",
"327 137 OFFCURVE",
"327 303 CURVE SMOOTH",
"327 453 OFFCURVE",
"268 596 OFFCURVE",
"136 732 CURVE",
"36 676 LINE",
"114 550 OFFCURVE",
"152 429 OFFCURVE",
"152 307 CURVE SMOOTH",
"152 171 OFFCURVE",
"108 39 OFFCURVE",
"39 -98 CURVE",
"141 -155 LINE"
);
}
);
width = 358;
}
);
unicode = 0029;
},
{
color = 3;
glyphname = asterisk;
layers = (
{
layerId = "3A083A2A-974B-4791-8355-BC872DC0CF17";
name = Regular;
paths = (
{
closed = 1;
nodes = (
"16 651 LINE",
"132 584 LINE",
"162 639 LINE",
"69 775 LINE"
);
},
{
closed = 1;
nodes = (
"182 784 LINE",
"152 653 LINE",
"214 640 LINE",
"316 769 LINE"
);
},
{
closed = 1;
nodes = (
"362 668 LINE",
"228 653 LINE",
"237 592 LINE",
"390 538 LINE"
);
},
{
closed = 1;
nodes = (
"308 461 LINE",
"255 584 LINE",
"198 558 LINE",
"192 394 LINE"
);
},
{
closed = 1;
nodes = (
"95 454 LINE",
"196 543 LINE",
"154 589 LINE",
"-4 547 LINE"
);
}
);
width = 418;
}
);
unicode = 002A;
},
{
color = 3;
glyphname = plus;
layers = (
{
layerId = "3A083A2A-974B-4791-8355-BC872DC0CF17";
name = Regular;
paths = (
{
closed = 1;
nodes = (
"338 306 LINE",
"338 491 LINE",
"231 491 LINE",
"231 306 LINE",
"54 306 LINE",
"54 207 LINE",
"231 207 LINE",
"231 24 LINE",
"338 24 LINE",
"338 207 LINE",
"516 207 LINE",
"516 306 LINE"
);
}
);
width = 570;
}
);
leftMetricsKey = minus;
rightMetricsKey = minus;
unicode = 002B;
},
{
color = 3;
glyphname = comma;
layers = (
{
layerId = "3A083A2A-974B-4791-8355-BC872DC0CF17";
name = Regular;
paths = (
{
closed = 1;
nodes = (
"92 -142 LINE",
"177 -104 OFFCURVE",
"250 -18 OFFCURVE",
"250 59 CURVE SMOOTH",
"250 110 OFFCURVE",
"219 156 OFFCURVE",
"152 181 CURVE",
"108 157 OFFCURVE",
"73 119 OFFCURVE",
"64 66 CURVE",
"118 20 LINE",
"116 -13 OFFCURVE",
"89 -57 OFFCURVE",
"49 -91 CURVE"
);
}
);
width = 308;
}
);
unicode = 002C;
},
{
color = 3;
glyphname = hyphen;
layers = (
{
layerId = "3A083A2A-974B-4791-8355-BC872DC0CF17";
name = Regular;
paths = (
{
closed = 1;
nodes = (
"393 222 LINE",
"414 264 LINE",
"358 354 LINE",
"54 354 LINE",
"33 312 LINE",
"89 222 LINE"
);
}
);
width = 463;
}
);
unicode = 002D;
},
{
color = 3;
glyphname = period;
layers = (
{
layerId = "3A083A2A-974B-4791-8355-BC872DC0CF17";
name = Regular;
paths = (
{
closed = 1;
nodes = (
"240 -19 OFFCURVE",
"275 27 OFFCURVE",
"290 66 CURVE",
"269 94 OFFCURVE",
"224 135 OFFCURVE",
"185 151 CURVE",
"151 132 OFFCURVE",
"117 86 OFFCURVE",
"96 43 CURVE",
"119 11 OFFCURVE",
"171 -28 OFFCURVE",
"206 -42 CURVE"
);
}
);
width = 290;
}
);
unicode = 002E;
},
{
color = 3;
glyphname = slash;
layers = (
{
layerId = "3A083A2A-974B-4791-8355-BC872DC0CF17";
name = Regular;
paths = (
{
closed = 1;
nodes = (
"118 -121 LINE",
"424 686 LINE",
"321 731 LINE",
"13 -78 LINE"
);
}
);
width = 422;
}
);
unicode = 002F;
},
{
color = 3;
glyphname = zero;
layers = (
{
layerId = "3A083A2A-974B-4791-8355-BC872DC0CF17";
name = Regular;
paths = (
{
closed = 1;
nodes = (
"24 145 OFFCURVE",
"122 -15 OFFCURVE",
"302 -15 CURVE SMOOTH",
"478 -15 OFFCURVE",
"576 137 OFFCURVE",
"576 331 CURVE SMOOTH",
"576 539 OFFCURVE",
"456 666 OFFCURVE",
"304 666 CURVE SMOOTH",
"140 666 OFFCURVE",
"24 518 OFFCURVE",
"24 324 CURVE SMOOTH"
);
},
{
closed = 1;
nodes = (
"270 571 OFFCURVE",
"279 572 OFFCURVE",
"287 572 CURVE SMOOTH",
"365 572 OFFCURVE",
"398 443 OFFCURVE",
"398 317 CURVE SMOOTH",
"398 227 OFFCURVE",
"382 130 OFFCURVE",
"345 85 CURVE",
"335 81 OFFCURVE",
"326 80 OFFCURVE",
"318 80 CURVE SMOOTH",
"236 80 OFFCURVE",
"205 221 OFFCURVE",
"205 335 CURVE SMOOTH",
"205 421 OFFCURVE",
"223 526 OFFCURVE",
"259 569 CURVE"
);
}
);
width = 602;
}
);
unicode = 0030;
},
{
color = 3;
glyphname = one;
layers = (
{
layerId = "3A083A2A-974B-4791-8355-BC872DC0CF17";
name = Regular;
paths = (
{
closed = 1;
nodes = (
"257 539 LINE",
"280 626 LINE",
"262 670 LINE",
"10 519 LINE",
"45 453 LINE"
);
},
{
closed = 1;
nodes = (
"336 618 LINE",
"262 670 LINE",
"241 591 LINE"
);
},
{
closed = 1;
nodes = (
"163 0 LINE",
"336 0 LINE",
"336 618 LINE",
"163 602 LINE"
);
},
{
closed = 1;
nodes = (
"176 0 LINE",
"181 91 LINE",
"129 78 OFFCURVE",
"65 56 OFFCURVE",
"27 33 CURVE",
"33 0 LINE"
);
},
{
closed = 1;
nodes = (
"451 0 LINE",
"454 53 LINE",
"316 77 LINE",
"313 0 LINE"
);
}
);
width = 454;
}
);
unicode = 0031;
},
{
color = 3;
glyphname = two;
layers = (
{
layerId = "3A083A2A-974B-4791-8355-BC872DC0CF17";
name = Regular;
paths = (
{
closed = 1;
nodes = (
"177 405 LINE",
"231 597 LINE",
"50 603 LINE",
"45 553 OFFCURVE",
"55 454 OFFCURVE",
"67 405 CURVE"
);
},
{
closed = 1;
nodes = (
"57 0 LINE",
"506 0 LINE",
"506 122 LINE",
"239 78 LINE",
"235 85 LINE",
"368 219 LINE",
"475 326 OFFCURVE",
"522 394 OFFCURVE",
"522 471 CURVE SMOOTH",
"522 581 OFFCURVE",
"430 668 OFFCURVE",
"292 670 CURVE SMOOTH",
"214 672 OFFCURVE",
"121 645 OFFCURVE",
"50 603 CURVE",
"159 566 LINE",
"188 577 OFFCURVE",
"220 582 OFFCURVE",
"241 582 CURVE SMOOTH",
"313 582 OFFCURVE",
"345 540 OFFCURVE",
"345 491 CURVE SMOOTH",
"345 440 OFFCURVE",
"310 382 OFFCURVE",
"205 272 CURVE SMOOTH",
"36 90 LINE"
);
},
{
closed = 1;
nodes = (
"481 226 LINE",
"346 16 LINE",
"523 0 LINE",
"544 71 OFFCURVE",
"555 148 OFFCURVE",
"558 207 CURVE"
);
}
);
width = 599;
}
);
unicode = 0032;
},
{
color = 3;
glyphname = three;
layers = (
{
layerId = "3A083A2A-974B-4791-8355-BC872DC0CF17";
name = Regular;
paths = (
{
closed = 1;
nodes = (
"224 612 LINE",
"58 609 LINE",
"53 559 OFFCURVE",
"57 482 OFFCURVE",
"69 432 CURVE",
"171 431 LINE"
);
},
{
closed = 1;
nodes = (
"342 420 OFFCURVE",
"292 359 OFFCURVE",
"183 355 CURVE",
"191 272 LINE",
"371 322 LINE",
"371 338 LINE",
"472 366 OFFCURVE",
"520 433 OFFCURVE",
"520 499 CURVE SMOOTH",
"520 585 OFFCURVE",
"441 670 OFFCURVE",
"284 670 CURVE SMOOTH",
"205 670 OFFCURVE",
"117 649 OFFCURVE",
"57 609 CURVE",
"94 545 LINE",
"140 571 OFFCURVE",
"179 581 OFFCURVE",
"215 581 CURVE SMOOTH",
"292 581 OFFCURVE",
"342 537 OFFCURVE",
"342 477 CURVE SMOOTH"
);
},
{
closed = 1;
nodes = (
"42 32 LINE",
"114 -1 OFFCURVE",
"203 -20 OFFCURVE",
"280 -20 CURVE SMOOTH",
"443 -20 OFFCURVE",
"548 66 OFFCURVE",
"548 174 CURVE SMOOTH",
"548 269 OFFCURVE",
"468 349 OFFCURVE",
"364 346 CURVE",
"359 359 LINE",
"183 355 LINE",
"173 355 LINE",
"178 269 LINE",
"234 271 LINE",
"319 271 OFFCURVE",
"366 218 OFFCURVE",
"366 161 CURVE SMOOTH",
"366 134 OFFCURVE",
"355 105 OFFCURVE",
"332 82 CURVE",
"259 91 OFFCURVE",
"167 146 OFFCURVE",
"89 192 CURVE"
);
}
);
width = 591;
}
);
unicode = 0033;
},
{
color = 3;
glyphname = four;
layers = (
{
layerId = "3A083A2A-974B-4791-8355-BC872DC0CF17";
name = Regular;
paths = (
{
closed = 1;
nodes = (
"143 226 LINE",
"384 579 LINE",
"418 553 LINE",
"421 654 LINE",
"350 670 LINE",
"13 250 LINE",
"48 157 LINE",
"563 157 LINE",
"594 187 LINE",
"590 267 LINE",
"98 255 LINE"
);
},
{
closed = 1;
nodes = (
"313 0 LINE",
"480 0 LINE",
"480 654 LINE",
"346 656 LINE",
"324 539 LINE",
"313 401 LINE"
);
},
{
closed = 1;
nodes = (
"331 0 LINE",
"336 91 LINE",
"290 77 OFFCURVE",
"231 56 OFFCURVE",
"194 33 CURVE",
"200 0 LINE"
);
},
{
closed = 1;
nodes = (
"550 0 LINE",
"553 53 LINE",
"415 77 LINE",
"412 0 LINE"
);
}
);
width = 614;
}
);
unicode = 0034;
},
{
color = 3;
glyphname = five;
layers = (
{
layerId = "3A083A2A-974B-4791-8355-BC872DC0CF17";
name = Regular;
paths = (
{
closed = 1;
nodes = (
"499 498 OFFCURVE",
"508 601 OFFCURVE",
"505 650 CURVE",
"337 646 LINE",
"380 448 LINE",
"486 448 LINE"
);
},
{
closed = 1;
nodes = (
"35 47 LINE",
"110 1 OFFCURVE",
"208 -23 OFFCURVE",
"284 -23 CURVE SMOOTH",
"444 -23 OFFCURVE",
"537 78 OFFCURVE",
"537 196 CURVE SMOOTH",
"537 336 OFFCURVE",
"408 402 OFFCURVE",
"296 404 CURVE SMOOTH",
"271 404 OFFCURVE",
"242 403 OFFCURVE",
"220 394 CURVE",
"234 561 LINE",
"448 549 LINE",
"457 650 LINE",
"97 650 LINE",
"67 321 LINE",
"120 265 LINE",
"151 275 OFFCURVE",
"182 280 OFFCURVE",
"208 280 CURVE SMOOTH",
"304 280 OFFCURVE",
"379 244 OFFCURVE",
"379 164 CURVE SMOOTH",
"379 140 OFFCURVE",
"373 112 OFFCURVE",
"342 80 CURVE",
"266 90 OFFCURVE",
"167 137 OFFCURVE",
"88 204 CURVE"
);
}
);
width = 573;
}
);
unicode = 0035;
},
{
color = 3;
glyphname = six;
layers = (
{
layerId = "3A083A2A-974B-4791-8355-BC872DC0CF17";
name = Regular;
paths = (
{
closed = 1;
nodes = (
"256 268 LINE",
"277 282 OFFCURVE",
"297 290 OFFCURVE",
"315 290 CURVE SMOOTH",
"361 290 OFFCURVE",
"392 238 OFFCURVE",
"392 177 CURVE SMOOTH",
"392 132 OFFCURVE",
"375 89 OFFCURVE",
"340 65 CURVE",
"250 60 OFFCURVE",
"206 162 OFFCURVE",
"206 278 CURVE SMOOTH",
"206 383 OFFCURVE",
"243 496 OFFCURVE",
"314 534 CURVE",
"501 494 LINE",
"501 659 LINE",
"172 667 OFFCURVE",
"34 451 OFFCURVE",
"34 263 CURVE SMOOTH",
"34 79 OFFCURVE",
"169 -20 OFFCURVE",
"315 -20 CURVE SMOOTH",
"467 -20 OFFCURVE",
"556 85 OFFCURVE",
"556 204 CURVE SMOOTH",
"556 322 OFFCURVE",
"470 398 OFFCURVE",
"373 398 CURVE SMOOTH",
"332 398 OFFCURVE",
"279 384 OFFCURVE",
"233 343 CURVE"
);
}
);
width = 582;
}
);
unicode = 0036;
},
{
color = 3;
glyphname = seven;
layers = (
{
layerId = "3A083A2A-974B-4791-8355-BC872DC0CF17";
name = Regular;
paths = (
{
closed = 1;
nodes = (
"470 650 LINE",
"32 650 LINE",
"78 537 LINE",
"354 547 LINE",
"361 539 LINE",
"251 380 OFFCURVE",
"162 212 OFFCURVE",
"79 34 CURVE",
"243 -22 LINE",
"322 183 OFFCURVE",
"410 370 OFFCURVE",
"515 555 CURVE"
);
},
{
closed = 1;
nodes = (
"154 434 LINE",
"189 646 LINE",
"23 650 LINE",
"18 601 OFFCURVE",
"28 484 OFFCURVE",
"40 434 CURVE"
);
}
);
width = 510;
}
);
unicode = 0037;
},
{
color = 3;
glyphname = eight;
layers = (
{
layerId = "3A083A2A-974B-4791-8355-BC872DC0CF17";
name = Regular;
paths = (
{
closed = 1;
nodes = (
"466 371 OFFCURVE",
"507 439 OFFCURVE",
"507 502 CURVE SMOOTH",
"507 588 OFFCURVE",
"428 668 OFFCURVE",
"288 668 CURVE SMOOTH",
"140 668 OFFCURVE",
"57 580 OFFCURVE",
"57 483 CURVE SMOOTH",
"57 412 OFFCURVE",
"101 360 OFFCURVE",
"169 319 CURVE",
"229 285 LINE",
"334 228 OFFCURVE",
"373 195 OFFCURVE",
"373 134 CURVE SMOOTH",
"373 110 OFFCURVE",
"367 92 OFFCURVE",
"351 67 CURVE",
"332 60 OFFCURVE",
"314 58 OFFCURVE",
"299 58 CURVE SMOOTH",
"235 58 OFFCURVE",
"201 103 OFFCURVE",
"201 155 CURVE SMOOTH",
"201 204 OFFCURVE",
"229 258 OFFCURVE",
"292 287 CURVE",
"229 358 LINE",
"107 330 OFFCURVE",
"37 249 OFFCURVE",
"37 161 CURVE SMOOTH",
"37 51 OFFCURVE",
"144 -22 OFFCURVE",
"286 -22 CURVE SMOOTH",
"427 -22 OFFCURVE",
"533 52 OFFCURVE",
"533 169 CURVE SMOOTH",
"533 277 OFFCURVE",
"444 335 OFFCURVE",
"349 386 CURVE SMOOTH",
"276 425 OFFCURVE",
"211 455 OFFCURVE",
"211 514 CURVE SMOOTH",
"211 532 OFFCURVE",
"218 555 OFFCURVE",
"235 575 CURVE",
"251 582 OFFCURVE",
"267 585 OFFCURVE",
"281 585 CURVE SMOOTH",
"332 585 OFFCURVE",
"367 548 OFFCURVE",
"367 497 CURVE SMOOTH",
"367 467 OFFCURVE",
"354 423 OFFCURVE",
"299 388 CURVE",
"372 336 LINE"
);
}
);
width = 570;
}
);
unicode = 0038;
},
{
color = 3;
glyphname = nine;
layers = (
{
layerId = "3A083A2A-974B-4791-8355-BC872DC0CF17";
name = Regular;
paths = (
{
closed = 1;
nodes = (
"249 322 OFFCURVE",
"202 384 OFFCURVE",
"202 460 CURVE SMOOTH",
"202 509 OFFCURVE",
"219 558 OFFCURVE",
"253 574 CURVE",
"342 590 OFFCURVE",
"377 480 OFFCURVE",
"377 367 CURVE SMOOTH",
"377 263 OFFCURVE",
"348 155 OFFCURVE",
"276 113 CURVE",
"82 159 LINE",
"110 -10 LINE",
"353 -26 OFFCURVE",
"543 136 OFFCURVE",
"543 368 CURVE SMOOTH",
"543 539 OFFCURVE",
"441 670 OFFCURVE",
"271 670 CURVE SMOOTH",
"127 670 OFFCURVE",
"27 574 OFFCURVE",
"27 446 CURVE SMOOTH",
"27 286 OFFCURVE",
"182 185 OFFCURVE",
"338 248 CURVE",
"328 340 LINE"
);
}
);
width = 570;
}
);
unicode = 0039;
},
{
color = 3;
glyphname = colon;
layers = (
{
layerId = "3A083A2A-974B-4791-8355-BC872DC0CF17";
name = Regular;
paths = (
{
closed = 1;
nodes = (
"256 125 OFFCURVE",
"216 162 OFFCURVE",
"168 183 CURVE",
"120 156 OFFCURVE",
"86 119 OFFCURVE",
"78 65 CURVE",
"100 22 OFFCURVE",
"135 -6 OFFCURVE",
"183 -20 CURVE",
"226 2 OFFCURVE",
"255 36 OFFCURVE",
"268 81 CURVE"
);
},
{
closed = 1;
nodes = (
"256 435 OFFCURVE",
"216 470 OFFCURVE",
"168 491 CURVE",
"120 466 OFFCURVE",
"86 427 OFFCURVE",
"78 374 CURVE",
"100 332 OFFCURVE",
"135 304 OFFCURVE",
"183 289 CURVE",
"226 311 OFFCURVE",
"255 345 OFFCURVE",
"268 390 CURVE"
);
}
);
width = 362;
}
);
leftMetricsKey = period;
rightMetricsKey = period;
unicode = 003A;
},
{
color = 3;
glyphname = semicolon;
layers = (
{
layerId = "3A083A2A-974B-4791-8355-BC872DC0CF17";
name = Regular;
paths = (
{
closed = 1;
nodes = (
"242 435 OFFCURVE",
"202 470 OFFCURVE",
"154 491 CURVE",
"106 466 OFFCURVE",
"72 427 OFFCURVE",
"64 374 CURVE",
"86 332 OFFCURVE",
"121 304 OFFCURVE",
"169 289 CURVE",
"212 311 OFFCURVE",
"241 345 OFFCURVE",
"254 390 CURVE"
);
},
{
closed = 1;
nodes = (
"92 -142 LINE",
"177 -104 OFFCURVE",
"250 -18 OFFCURVE",
"250 59 CURVE SMOOTH",
"250 110 OFFCURVE",
"219 156 OFFCURVE",
"152 181 CURVE",
"108 157 OFFCURVE",
"73 119 OFFCURVE",
"64 66 CURVE",
"118 20 LINE",
"116 -13 OFFCURVE",
"89 -57 OFFCURVE",
"49 -91 CURVE"
);
}
);
width = 312;
}
);
leftMetricsKey = comma;
rightMetricsKey = comma;
unicode = 003B;
},
{
color = 3;
glyphname = less;
layers = (
{
layerId = "3A083A2A-974B-4791-8355-BC872DC0CF17";
name = Regular;
paths = (
{
closed = 1;
nodes = (
"62 272 LINE",
"66 202 LINE",
"465 -6 LINE",
"513 86 LINE",
"214 239 LINE",
"213 245 LINE",
"511 412 LINE",
"464 500 LINE"
);
}
);
width = 577;
}
);
unicode = 003C;
},
{
color = 3;
glyphname = equal;
layers = (
{
layerId = "3A083A2A-974B-4791-8355-BC872DC0CF17";
name = Regular;
paths = (
{
closed = 1;
nodes = (
"54 207 LINE",
"54 118 LINE",
"526 118 LINE",
"526 207 LINE"
);
},
{
closed = 1;
nodes = (
"54 393 LINE",
"54 304 LINE",
"526 304 LINE",
"526 393 LINE"
);
}
);
width = 580;
}
);
leftMetricsKey = minus;
rightMetricsKey = minus;
unicode = 003D;
},
{
color = 3;
glyphname = greater;
layers = (
{
layerId = "3A083A2A-974B-4791-8355-BC872DC0CF17";
name = Regular;
paths = (
{
closed = 1;
nodes = (
"364 245 LINE",
"363 239 LINE",
"63 86 LINE",
"112 -6 LINE",
"511 202 LINE",
"514 272 LINE",
"112 500 LINE",
"65 412 LINE"
);
}
);
width = 577;
}
);
unicode = 003E;
},
{
color = 3;
glyphname = question;
layers = (
{
layerId = "3A083A2A-974B-4791-8355-BC872DC0CF17";
name = Regular;
paths = (
{
closed = 1;
nodes = (
"212 457 LINE",
"281 641 LINE",
"90 638 LINE",
"87 608 OFFCURVE",
"98 516 OFFCURVE",
"111 457 CURVE"
);
},
{
closed = 1;
nodes = (
"392 369 OFFCURVE",
"549 376 OFFCURVE",
"549 519 CURVE SMOOTH",
"549 632 OFFCURVE",
"452 719 OFFCURVE",
"307 719 CURVE SMOOTH",
"208 719 OFFCURVE",
"138 680 OFFCURVE",
"89 638 CURVE",
"131 526 LINE",
"202 583 OFFCURVE",
"255 610 OFFCURVE",
"317 609 CURVE",
"355 592 OFFCURVE",
"373 557 OFFCURVE",
"373 522 CURVE SMOOTH",
"373 424 OFFCURVE",
"226 402 OFFCURVE",
"227 249 CURVE",
"371 249 LINE"
);
},
{
closed = 1;
nodes = (
"260 156 OFFCURVE",
"226 119 OFFCURVE",
"218 65 CURVE",
"240 22 OFFCURVE",
"275 -6 OFFCURVE",
"323 -20 CURVE",
"366 2 OFFCURVE",
"395 36 OFFCURVE",
"408 81 CURVE",
"396 125 OFFCURVE",
"356 162 OFFCURVE",
"308 183 CURVE"
);
}
);
width = 641;
}
);
unicode = 003F;
},
{
color = 3;
glyphname = at;
layers = (
{
layerId = "3A083A2A-974B-4791-8355-BC872DC0CF17";
name = Regular;
paths = (
{
closed = 1;
nodes = (
"487 402 LINE",
"500 407 OFFCURVE",
"523 412 OFFCURVE",
"543 413 CURVE",
"567 401 OFFCURVE",
"589 376 OFFCURVE",
"589 313 CURVE SMOOTH",
"589 70 LINE",
"604 67 LINE",
"628 16 OFFCURVE",
"671 -22 OFFCURVE",
"770 -17 CURVE",
"949 13 OFFCURVE",
"1043 161 OFFCURVE",
"1043 316 CURVE SMOOTH",
"1043 516 OFFCURVE",
"889 730 OFFCURVE",
"556 730 CURVE SMOOTH",
"231 730 OFFCURVE",
"50 527 OFFCURVE",
"50 305 CURVE SMOOTH",
"50 184 OFFCURVE",
"103 57 OFFCURVE",
"215 -48 CURVE",
"307 9 LINE",
"247 93 OFFCURVE",
"217 185 OFFCURVE",
"217 272 CURVE SMOOTH",
"217 450 OFFCURVE",
"339 601 OFFCURVE",
"561 601 CURVE SMOOTH",
"765 601 OFFCURVE",
"879 473 OFFCURVE",
"879 309 CURVE SMOOTH",
"879 234 OFFCURVE",
"854 150 OFFCURVE",
"812 112 CURVE SMOOTH",
"791 93 OFFCURVE",
"762 85 OFFCURVE",
"762 124 CURVE SMOOTH",
"762 321 LINE SMOOTH",
"762 381 OFFCURVE",
"760 408 OFFCURVE",
"750 424 CURVE SMOOTH",
"722 466 OFFCURVE",
"663 496 OFFCURVE",
"608 496 CURVE SMOOTH",
"549 496 OFFCURVE",
"430 472 OFFCURVE",
"346 441 CURVE",
"342 391 OFFCURVE",
"349 338 OFFCURVE",
"364 289 CURVE",
"463 290 LINE"
);
},
{
closed = 1;
nodes = (
"342 203 OFFCURVE",
"318 154 OFFCURVE",
"318 113 CURVE SMOOTH",
"318 45 OFFCURVE",
"384 -31 OFFCURVE",
"504 -13 CURVE",
"626 66 LINE",
"614 108 LINE",
"587 99 OFFCURVE",
"544 84 OFFCURVE",
"506 81 CURVE",
"494 92 OFFCURVE",
"489 110 OFFCURVE",
"489 124 CURVE SMOOTH",
"489 167 OFFCURVE",
"543 176 OFFCURVE",
"592 174 CURVE",
"620 174 LINE",
"617 237 LINE",
"399 231 LINE"
);
}
);
width = 1083;
}
);
unicode = 0040;
},
{
color = 3;
glyphname = A;
layers = (
{
anchors = (
{
name = ogonek;
position = "{696, 0}";
},
{
name = top;
position = "{354, 650}";
}
);
layerId = "3A083A2A-974B-4791-8355-BC872DC0CF17";
name = Regular;
paths = (
{
closed = 1;
nodes = (
"32 0 LINE",
"156 0 LINE",
"390 624 LINE",
"294 644 LINE"
);
},
{
closed = 1;
nodes = (
"263 646 LINE",
"505 0 LINE",
"696 0 LINE",
"419 686 LINE"
);
},
{
closed = 1;
nodes = (
"183 256 LINE",
"183 172 LINE",
"506 172 LINE",
"506 256 LINE"
);
},
{
closed = 1;
nodes = (
"42 69 OFFCURVE",
"9 52 OFFCURVE",
"-20 32 CURVE",
"-14 0 LINE",
"80 0 LINE",
"79 85 LINE"
);
},
{
closed = 1;
nodes = (
"126 0 LINE",
"266 0 LINE",
"267 53 LINE",
"129 75 LINE"
);
},
{
closed = 1;
nodes = (
"458 69 OFFCURVE",
"425 52 OFFCURVE",
"396 32 CURVE",
"402 0 LINE",
"517 0 LINE",
"495 85 LINE"
);
},
{
closed = 1;
nodes = (
"601 0 LINE",
"741 0 LINE",
"742 53 LINE",
"604 75 LINE"
);
}
);
width = 730;
}
);
leftKerningGroup = A;
rightKerningGroup = A;
unicode = 0041;
},
{
color = 3;
glyphname = B;
layers = (
{
layerId = "3A083A2A-974B-4791-8355-BC872DC0CF17";
name = Regular;
paths = (
{
closed = 1;
nodes = (
"289 670 OFFCURVE",
"134 667 OFFCURVE",
"39 662 CURVE",
"284 567 LINE",
"386 583 LINE",
"427 571 OFFCURVE",
"453 522 OFFCURVE",
"453 478 CURVE SMOOTH",
"453 429 OFFCURVE",
"419 380 OFFCURVE",
"335 380 CURVE SMOOTH",
"263 380 LINE",
"263 314 LINE",
"345 322 LINE",
"476 345 LINE",
"584 351 OFFCURVE",
"633 433 OFFCURVE",
"633 499 CURVE SMOOTH",
"633 583 OFFCURVE",
"551 670 OFFCURVE",
"377 670 CURVE"
);
},
{
closed = 1;
nodes = (
"86 69 OFFCURVE",
"53 52 OFFCURVE",
"24 32 CURVE",
"30 0 LINE",
"124 0 LINE",
"123 85 LINE"
);
},
{
closed = 1;
nodes = (
"109 662 LINE",
"109 0 LINE",
"290 0 LINE",
"290 662 LINE"
);
},
{
closed = 1;
nodes = (
"286 338 LINE",
"269 308 LINE",
"364 308 LINE SMOOTH",
"433 308 OFFCURVE",
"476 245 OFFCURVE",
"476 188 CURVE SMOOTH",
"476 133 OFFCURVE",
"439 77 OFFCURVE",
"360 85 CURVE SMOOTH",
"269 95 LINE",
"266 0 LINE",
"382 0 LINE SMOOTH",
"588 0 OFFCURVE",
"662 92 OFFCURVE",
"662 184 CURVE SMOOTH",
"662 282 OFFCURVE",
"579 366 OFFCURVE",
"418 354 CURVE"
);
},
{
closed = 1;
nodes = (
"39 662 LINE",
"38 609 LINE",
"160 591 LINE",
"161 662 LINE"
);
}
);
width = 693;
}
);
leftKerningGroup = I;
leftMetricsKey = I;
unicode = 0042;
},
{
color = 3;
glyphname = C;
layers = (
{
anchors = (
{
name = bottom;
position = "{334, 0}";
},
{
name = top;
position = "{334, 650}";
}
);
layerId = "3A083A2A-974B-4791-8355-BC872DC0CF17";
name = Regular;
paths = (
{
closed = 1;
nodes = (
"561 154 LINE",
"391 100 LINE",
"257 97 OFFCURVE",
"191 208 OFFCURVE",
"191 348 CURVE SMOOTH",
"191 436 OFFCURVE",
"217 531 OFFCURVE",
"278 586 CURVE",
"387 581 OFFCURVE",
"466 540 OFFCURVE",
"539 479 CURVE",
"570 617 LINE",
"527 648 OFFCURVE",
"462 682 OFFCURVE",
"359 682 CURVE SMOOTH",
"122 682 OFFCURVE",
"9 502 OFFCURVE",
"9 322 CURVE SMOOTH",
"9 162 OFFCURVE",
"99 -28 OFFCURVE",
"379 -17 CURVE",
"589 72 LINE"
);
},
{
closed = 1;
nodes = (
"546 425 LINE",
"562 481 OFFCURVE",
"574 575 OFFCURVE",
"570 617 CURVE",
"397 608 LINE",
"438 425 LINE"
);
}
);
width = 597;
}
);
leftKerningGroup = O;
leftMetricsKey = O;
rightKerningGroup = C;
unicode = 0043;
},
{
color = 3;
glyphname = D;
layers = (
{
anchors = (
{
name = bottom;
position = "{121, 0}";
},
{
name = center;
position = "{375, 325}";
},
{
name = top;
position = "{361, 650}";
}
);
layerId = "3A083A2A-974B-4791-8355-BC872DC0CF17";
name = Regular;
paths = (
{
closed = 1;
nodes = (
"260 670 OFFCURVE",
"152 668 OFFCURVE",
"39 662 CURVE",
"281 567 LINE",
"416 583 LINE",
"487 537 OFFCURVE",
"532 432 OFFCURVE",
"532 328 CURVE SMOOTH",
"532 212 OFFCURVE",
"477 92 OFFCURVE",
"357 92 CURVE SMOOTH",
"329 92 OFFCURVE",
"296 98 OFFCURVE",
"260 113 CURVE",
"270 0 LINE",
"368 0 LINE SMOOTH",
"608 0 OFFCURVE",
"721 164 OFFCURVE",
"721 337 CURVE SMOOTH",
"721 498 OFFCURVE",
"603 670 OFFCURVE",
"372 670 CURVE SMOOTH"
);
},
{
closed = 1;
nodes = (
"86 69 OFFCURVE",
"53 52 OFFCURVE",
"24 32 CURVE",
"30 0 LINE",
"124 0 LINE",
"123 85 LINE"
);
},
{
closed = 1;
nodes = (
"109 662 LINE",
"109 0 LINE",
"290 0 LINE",
"290 662 LINE"
);
},
{
closed = 1;
nodes = (
"39 662 LINE",
"38 609 LINE",
"160 591 LINE",
"161 662 LINE"
);
}
);
width = 732;
}
);
leftKerningGroup = I;
leftMetricsKey = I;
rightKerningGroup = O;
rightMetricsKey = O;
unicode = 0044;
},
{
color = 3;
glyphname = E;
layers = (
{
anchors = (
{
name = bottom;
position = "{322, 0}";
},
{
name = ogonek;
position = "{616, 0}";
},
{
name = top;
position = "{322, 650}";
}
);
layerId = "3A083A2A-974B-4791-8355-BC872DC0CF17";
name = Regular;
paths = (
{
closed = 1;
nodes = (
"109 662 LINE",
"109 0 LINE",
"290 0 LINE",
"290 662 LINE"
);
},
{
closed = 1;
nodes = (
"86 69 OFFCURVE",
"53 52 OFFCURVE",
"24 32 CURVE",
"30 0 LINE",
"124 0 LINE",
"123 85 LINE"
);
},
{
closed = 1;
nodes = (
"257 90 LINE",
"182 0 LINE",
"580 0 LINE",
"575 115 LINE"
);
},
{
closed = 1;
nodes = (
"259 368 LINE",
"259 290 LINE",
"499 280 LINE",
"499 388 LINE"
);
},
{
closed = 1;
nodes = (
"177 662 LINE",
"252 576 LINE",
"574 554 LINE",
"588 662 LINE"
);
},
{
closed = 1;
nodes = (
"35 662 LINE",
"34 609 LINE",
"156 591 LINE",
"157 662 LINE"
);
},
{
closed = 1;
nodes = (
"428 16 LINE",
"581 0 LINE",
"589 59 OFFCURVE",
"595 151 OFFCURVE",
"593 208 CURVE",
"494 216 LINE"
);
},
{
closed = 1;
nodes = (
"570 460 LINE",
"584 527 OFFCURVE",
"591 619 OFFCURVE",
"588 662 CURVE",
"437 644 LINE",
"470 460 LINE"
);
}
);
width = 643;
}
);
leftKerningGroup = I;
leftMetricsKey = I;
rightKerningGroup = E;
unicode = 0045;
},
{
color = 3;
glyphname = F;
layers = (
{
anchors = (
{
name = bottom;
position = "{116, 0}";
},
{
name = top;
position = "{116, 260}";
}
);
layerId = "3A083A2A-974B-4791-8355-BC872DC0CF17";
name = Regular;
paths = (
{
closed = 1;
nodes = (
"104 662 LINE",
"104 0 LINE",
"285 0 LINE",
"285 662 LINE"
);
},
{
closed = 1;
nodes = (
"87 69 OFFCURVE",
"54 52 OFFCURVE",
"25 32 CURVE",
"31 0 LINE",
"125 0 LINE",
"124 85 LINE"
);
},
{
closed = 1;
nodes = (
"266 0 LINE",
"406 0 LINE",
"407 53 LINE",
"269 75 LINE"
);
},
{
closed = 1;
nodes = (
"267 350 LINE",
"267 265 LINE",
"507 254 LINE",
"507 368 LINE"
);
},
{
closed = 1;
nodes = (
"185 662 LINE",
"260 576 LINE",
"554 555 LINE",
"584 662 LINE"
);
},
{
closed = 1;
nodes = (
"31 662 LINE",
"30 609 LINE",
"152 591 LINE",
"153 662 LINE"
);
},
{
closed = 1;
nodes = (
"565 454 LINE",
"579 521 OFFCURVE",
"586 619 OFFCURVE",
"583 662 CURVE",
"432 644 LINE",
"465 454 LINE"
);
}
);
width = 623;
}
);
leftKerningGroup = I;
leftMetricsKey = I;
rightMetricsKey = E;
unicode = 0046;
},
{
color = 3;
glyphname = G;
layers = (
{
anchors = (
{
name = bottom;
position = "{353, 0}";
},
{
name = top;
position = "{353, 650}";
}
);
layerId = "3A083A2A-974B-4791-8355-BC872DC0CF17";
name = Regular;
paths = (
{
closed = 1;
nodes = (
"140 682 OFFCURVE",
"9 506 OFFCURVE",
"9 319 CURVE SMOOTH",
"9 161 OFFCURVE",
"105 -35 OFFCURVE",
"392 -20 CURVE",
"614 68 LINE",
"569 122 LINE",
"525 107 OFFCURVE",
"445 87 OFFCURVE",
"383 89 CURVE SMOOTH",
"252 95 OFFCURVE",
"190 217 OFFCURVE",
"190 345 CURVE SMOOTH",
"190 438 OFFCURVE",
"219 534 OFFCURVE",
"282 586 CURVE",
"435 589 OFFCURVE",
"530 521 OFFCURVE",
"573 485 CURVE",
"603 621 LINE",
"568 645 OFFCURVE",
"492 682 OFFCURVE",
"385 682 CURVE SMOOTH"
);
},
{
closed = 1;
nodes = (
"356 271 LINE",
"389 248 OFFCURVE",
"430 230 OFFCURVE",
"469 214 CURVE",
"464 304 LINE",
"362 304 LINE"
);
},
{
closed = 1;
nodes = (
"451 64 LINE",
"614 68 LINE",
"614 304 LINE",
"451 304 LINE"
);
},
{
closed = 1;
nodes = (
"532 304 LINE",
"547 221 LINE",
"690 257 LINE",
"689 304 LINE"
);
},
{
closed = 1;
nodes = (
"581 439 LINE",
"597 498 OFFCURVE",
"607 578 OFFCURVE",
"603 621 CURVE",
"430 611 LINE",
"474 439 LINE"
);
}
);
width = 708;
}
);
leftKerningGroup = O;
leftMetricsKey = O;
rightKerningGroup = G;
unicode = 0047;
},
{
color = 3;
glyphname = H;
layers = (
{
anchors = (
{
name = center;
position = "{415, 325}";
},
{
name = top;
position = "{415, 650}";
}
);
layerId = "3A083A2A-974B-4791-8355-BC872DC0CF17";
name = Regular;
paths = (
{
closed = 1;
nodes = (
"170 587 LINE",
"173 662 LINE",
"33 662 LINE",
"32 609 LINE"
);
},
{
closed = 1;
nodes = (
"109 662 LINE",
"109 0 LINE",
"290 0 LINE",
"290 662 LINE"
);
},
{
closed = 1;
nodes = (
"275 662 LINE",
"276 577 LINE",
"313 593 OFFCURVE",
"347 610 OFFCURVE",
"375 630 CURVE",
"369 662 LINE"
);
},
{
closed = 1;
nodes = (
"457 662 LINE",
"456 609 LINE",
"594 587 LINE",
"597 662 LINE"
);
},
{
closed = 1;
nodes = (
"533 662 LINE",
"533 0 LINE",
"714 0 LINE",
"714 662 LINE"
);
},
{
closed = 1;
nodes = (
"699 662 LINE",
"700 577 LINE",
"737 593 OFFCURVE",
"771 610 OFFCURVE",
"799 630 CURVE",
"793 662 LINE"
);
},
{
closed = 1;
nodes = (
"241 377 LINE",
"241 283 LINE",
"595 283 LINE",
"595 377 LINE"
);
},
{
closed = 1;
nodes = (
"86 69 OFFCURVE",
"53 52 OFFCURVE",
"24 32 CURVE",
"30 0 LINE",
"124 0 LINE",
"123 85 LINE"
);
},
{
closed = 1;
nodes = (
"240 0 LINE",
"380 0 LINE",
"381 53 LINE",
"243 75 LINE"
);
},
{
closed = 1;
nodes = (
"510 69 OFFCURVE",
"477 52 OFFCURVE",
"448 32 CURVE",
"454 0 LINE",
"548 0 LINE",
"547 85 LINE"
);
},
{
closed = 1;
nodes = (
"664 0 LINE",
"804 0 LINE",
"805 53 LINE",
"667 75 LINE"
);
}
);
width = 829;
}
);
leftKerningGroup = I;
leftMetricsKey = I;
rightKerningGroup = I;
rightMetricsKey = I;
unicode = 0048;
},
{
color = 3;
glyphname = I;
layers = (
{
anchors = (
{
name = ogonek;
position = "{321, 0}";
},
{
name = top;
position = "{200, 650}";
}
);
layerId = "3A083A2A-974B-4791-8355-BC872DC0CF17";
name = Regular;
paths = (
{
closed = 1;
nodes = (
"290 0 LINE",
"290 662 LINE",
"109 662 LINE",
"109 0 LINE"
);
},
{
closed = 1;
nodes = (
"124 0 LINE",
"123 85 LINE",
"86 69 OFFCURVE",
"53 52 OFFCURVE",
"24 32 CURVE",
"30 0 LINE"
);
},
{
closed = 1;
nodes = (
"380 0 LINE",
"381 53 LINE",
"243 75 LINE",
"240 0 LINE"
);
},
{
closed = 1;
nodes = (
"33 662 LINE",
"32 609 LINE",
"170 587 LINE",
"173 662 LINE"
);
},
{
closed = 1;
nodes = (
"275 662 LINE",
"276 577 LINE",
"313 593 OFFCURVE",
"347 610 OFFCURVE",
"375 630 CURVE",
"369 662 LINE"
);
}
);
width = 405;
}
);
leftKerningGroup = I;
rightKerningGroup = I;
unicode = 0049;
},
{
color = 3;
glyphname = J;
layers = (
{
anchors = (
{
name = top;
position = "{212, 650}";
}
);
layerId = "3A083A2A-974B-4791-8355-BC872DC0CF17";
name = Regular;
paths = (
{
closed = 1;
nodes = (
"35 662 LINE",
"34 609 LINE",
"172 587 LINE",
"175 662 LINE"
);
},
{
closed = 1;
nodes = (
"119 662 LINE",
"119 146 LINE SMOOTH",
"119 -16 OFFCURVE",
"60 -78 OFFCURVE",
"-25 -131 CURVE",
"10 -188 LINE",
"180 -130 OFFCURVE",
"299 -47 OFFCURVE",
"299 153 CURVE SMOOTH",
"299 662 LINE"
);
},
{
closed = 1;
nodes = (
"284 662 LINE",
"285 577 LINE",
"322 593 OFFCURVE",
"356 610 OFFCURVE",
"384 630 CURVE",
"378 662 LINE"
);
}
);
width = 406;
}
);
unicode = 004A;
},
{
color = 3;
glyphname = K;
layers = (
{
anchors = (
{
name = bottom;
position = "{397, 0}";
},
{
name = top;
position = "{381, 650}";
}
);
layerId = "3A083A2A-974B-4791-8355-BC872DC0CF17";
name = Regular;
paths = (
{
closed = 1;
nodes = (
"558 662 LINE",
"229 309 LINE",
"249 200 LINE",
"642 615 LINE",
"648 662 LINE"
);
},
{
closed = 1;
nodes = (
"86 69 OFFCURVE",
"53 52 OFFCURVE",
"24 32 CURVE",
"30 0 LINE",
"124 0 LINE",
"123 85 LINE"
);
},
{
closed = 1;
nodes = (
"228 0 LINE",
"368 0 LINE",
"369 53 LINE",
"231 75 LINE"
);
},
{
closed = 1;
nodes = (
"109 662 LINE",
"109 0 LINE",
"290 0 LINE",
"290 662 LINE"
);
},
{
closed = 1;
nodes = (
"275 662 LINE",
"276 577 LINE",
"313 593 OFFCURVE",
"347 610 OFFCURVE",
"375 630 CURVE",
"369 662 LINE"
);
},
{
closed = 1;
nodes = (
"435 662 LINE",
"434 609 LINE",
"572 587 LINE",
"575 662 LINE"
);
},
{
closed = 1;
nodes = (
"588 662 LINE",
"589 577 LINE",
"626 592 OFFCURVE",
"678 610 OFFCURVE",
"706 630 CURVE",
"700 662 LINE"
);
},
{
closed = 1;
nodes = (
"33 662 LINE",
"32 609 LINE",
"170 587 LINE",
"173 662 LINE"
);
},
{
closed = 1;
nodes = (
"309 289 LINE",
"514 0 LINE",
"733 0 LINE",
"433 404 LINE"
);
},
{
closed = 1;
nodes = (
"623 0 LINE",
"745 0 LINE",
"746 53 LINE",
"624 77 LINE"
);
}
);
width = 753;
}
);
leftKerningGroup = I;
leftMetricsKey = I;
rightKerningGroup = K;
unicode = 004B;
},
{
color = 3;
glyphname = L;
layers = (
{
anchors = (
{
name = bottom;
position = "{317, 0}";
},
{
name = top;
position = "{213, 650}";
},
{
name = topright;
position = "{576, 650}";
}
);
layerId = "3A083A2A-974B-4791-8355-BC872DC0CF17";
name = Regular;
paths = (
{
closed = 1;
nodes = (
"33 662 LINE",
"32 609 LINE",
"170 587 LINE",
"173 662 LINE"
);
},
{
closed = 1;
nodes = (
"275 662 LINE",
"276 577 LINE",
"313 593 OFFCURVE",
"347 610 OFFCURVE",
"375 630 CURVE",
"369 662 LINE"
);
},
{
closed = 1;
nodes = (
"86 69 OFFCURVE",
"53 52 OFFCURVE",
"24 32 CURVE",
"30 0 LINE",
"124 0 LINE",
"123 85 LINE"
);
},
{
closed = 1;
nodes = (
"263 90 LINE",
"188 0 LINE",
"601 0 LINE",
"584 121 LINE"
);
},
{
closed = 1;
nodes = (
"109 662 LINE",
"109 0 LINE",
"290 0 LINE",
"290 662 LINE"
);
},
{
closed = 1;
nodes = (
"439 16 LINE",
"602 0 LINE",
"614 67 OFFCURVE",
"618 176 OFFCURVE",
"616 246 CURVE",
"513 255 LINE"
);
}
);
width = 619;
}
);
leftKerningGroup = I;
leftMetricsKey = I;
rightKerningGroup = L;
unicode = 004C;
},
{
color = 3;
glyphname = M;
layers = (
{
layerId = "3A083A2A-974B-4791-8355-BC872DC0CF17";
name = Regular;
paths = (
{
closed = 1;
nodes = (
"40 650 LINE",
"39 603 LINE",
"177 569 LINE",
"180 650 LINE"
);
},
{
closed = 1;
nodes = (
"125 650 LINE",
"109 0 LINE",
"236 0 LINE",
"240 303 LINE",
"220 540 LINE",
"336 650 LINE"
);
},
{
closed = 1;
nodes = (
"85 69 OFFCURVE",
"52 52 OFFCURVE",
"23 32 CURVE",
"29 0 LINE",
"123 0 LINE",
"122 85 LINE"
);
},
{
closed = 1;
nodes = (
"181 0 LINE",
"321 0 LINE",
"322 47 LINE SMOOTH",
"184 81 LINE"
);
},
{
closed = 1;
nodes = (
"179 605 LINE",
"400 -7 LINE",
"528 16 LINE",
"524 120 LINE",
"335 650 LINE"
);
},
{
closed = 1;
nodes = (
"449 36 LINE",
"528 16 LINE",
"754 613 LINE",
"678 650 LINE"
);
},
{
closed = 1;
nodes = (
"678 650 LINE",
"709 545 LINE",
"690 303 LINE",
"692 0 LINE",
"865 0 LINE",
"855 650 LINE"
);
},
{
closed = 1;
nodes = (
"842 650 LINE",
"843 565 LINE",
"880 581 OFFCURVE",
"914 598 OFFCURVE",
"942 618 CURVE",
"936 650 LINE"
);
},
{
closed = 1;
nodes = (
"668 69 OFFCURVE",
"635 52 OFFCURVE",
"606 32 CURVE",
"612 0 LINE",
"706 0 LINE",
"705 85 LINE"
);
},
{
closed = 1;
nodes = (
"815 0 LINE",
"955 0 LINE",
"956 47 LINE",
"818 81 LINE"
);
}
);
width = 981;
}
);
leftKerningGroup = I;
leftMetricsKey = I;
rightKerningGroup = I;
rightMetricsKey = I;
unicode = 004D;
},
{
color = 3;
glyphname = N;
layers = (
{
anchors = (
{
name = bottom;
position = "{392, 0}";
},
{
name = top;
position = "{374, 650}";
}
);
layerId = "3A083A2A-974B-4791-8355-BC872DC0CF17";
name = Regular;
paths = (
{
closed = 1;
nodes = (
"181 0 LINE",
"321 0 LINE",
"322 53 LINE",
"184 75 LINE"
);
},
{
closed = 1;
nodes = (
"86 69 OFFCURVE",
"53 52 OFFCURVE",
"24 32 CURVE",
"30 0 LINE",
"124 0 LINE",
"123 85 LINE"
);
},
{
closed = 1;
nodes = (
"109 662 LINE",
"109 0 LINE",
"234 0 LINE",
"234 315 LINE",
"207 551 LINE",
"282 662 LINE"
);
},
{
closed = 1;
nodes = (
"37 662 LINE",
"36 609 LINE",
"162 587 LINE",
"165 662 LINE"
);
},
{
closed = 1;
nodes = (
"132 662 LINE",
"130 571 LINE",
"519 -13 LINE",
"633 16 LINE",
"651 93 LINE",
"281 662 LINE"
);
},
{
closed = 1;
nodes = (
"462 662 LINE",
"461 609 LINE",
"599 587 LINE",
"602 662 LINE"
);
},
{
closed = 1;
nodes = (
"560 662 LINE",
"560 336 LINE",
"593 44 LINE",
"519 -13 LINE",
"679 0 LINE",
"685 662 LINE"
);
},
{
closed = 1;
nodes = (
"664 662 LINE",
"665 577 LINE",
"702 593 OFFCURVE",
"736 610 OFFCURVE",
"764 630 CURVE",
"758 662 LINE"
);
}
);
width = 788;
}
);
leftKerningGroup = I;
leftMetricsKey = I;
rightKerningGroup = I;
rightMetricsKey = I;
unicode = 004E;
},
{
color = 3;
glyphname = O;
layers = (
{
anchors = (
{
name = top;
position = "{344, 650}";
}
);
layerId = "3A083A2A-974B-4791-8355-BC872DC0CF17";
name = Regular;
paths = (
{
closed = 1;
nodes = (
"157 682 OFFCURVE",
"11 544 OFFCURVE",
"11 326 CURVE SMOOTH",
"11 97 OFFCURVE",
"172 -20 OFFCURVE",
"348 -20 CURVE SMOOTH",
"519 -20 OFFCURVE",
"676 92 OFFCURVE",
"676 322 CURVE SMOOTH",
"676 552 OFFCURVE",
"520 682 OFFCURVE",
"341 682 CURVE SMOOTH"
);
},
{
closed = 1;
nodes = (
"286 580 OFFCURVE",
"307 585 OFFCURVE",
"328 585 CURVE SMOOTH",
"437 585 OFFCURVE",
"486 454 OFFCURVE",
"486 319 CURVE SMOOTH",
"486 214 OFFCURVE",
"456 125 OFFCURVE",
"413 85 CURVE",
"399 80 OFFCURVE",
"385 77 OFFCURVE",
"366 77 CURVE SMOOTH",
"259 77 OFFCURVE",
"201 188 OFFCURVE",
"201 346 CURVE SMOOTH",
"201 455 OFFCURVE",
"229 538 OFFCURVE",
"266 572 CURVE"
);
}
);
width = 687;
}
);
leftKerningGroup = O;
rightKerningGroup = O;
unicode = 004F;
},
{
color = 3;
glyphname = P;
layers = (
{
layerId = "3A083A2A-974B-4791-8355-BC872DC0CF17";
name = Regular;
paths = (
{
closed = 1;
nodes = (
"31 662 LINE",
"274 567 LINE",
"409 583 LINE",
"444 561 OFFCURVE",
"462 500 OFFCURVE",
"462 450 CURVE SMOOTH",
"462 385 OFFCURVE",
"429 326 OFFCURVE",
"352 326 CURVE SMOOTH",
"331 326 OFFCURVE",
"293 330 OFFCURVE",
"260 341 CURVE",
"257 233 LINE",
"385 234 LINE SMOOTH",
"542 235 OFFCURVE",
"645 328 OFFCURVE",
"645 447 CURVE SMOOTH",
"645 561 OFFCURVE",
"553 672 OFFCURVE",
"376 670 CURVE SMOOTH"
);
},
{
closed = 1;
nodes = (
"87 69 OFFCURVE",
"54 52 OFFCURVE",
"25 32 CURVE",
"31 0 LINE",
"125 0 LINE",
"124 85 LINE"
);
},
{
closed = 1;
nodes = (
"266 0 LINE",
"406 0 LINE",
"407 53 LINE",
"269 75 LINE"
);
},
{
closed = 1;
nodes = (
"104 662 LINE",
"104 0 LINE",
"285 0 LINE",
"285 662 LINE"
);
},
{
closed = 1;
nodes = (
"31 662 LINE",
"30 609 LINE",
"152 591 LINE",
"153 662 LINE"
);
}
);
width = 657;
}
);
leftKerningGroup = I;
leftMetricsKey = I;
unicode = 0050;
},
{
color = 3;
glyphname = Q;
layers = (
{
components = (
{
name = O;
}
);
layerId = "3A083A2A-974B-4791-8355-BC872DC0CF17";
name = Regular;
paths = (
{
closed = 1;
nodes = (
"344 -3 LINE",
"658 -192 LINE",
"739 -40 LINE",
"379 46 LINE"
);
}
);
width = 724;
}
);
leftKerningGroup = O;
leftMetricsKey = O;
rightKerningGroup = O;
unicode = 0051;
},
{
color = 3;
glyphname = R;
layers = (
{
anchors = (
{
name = bottom;
position = "{353, 0}";
},
{
name = top;
position = "{338, 650}";
}
);
layerId = "3A083A2A-974B-4791-8355-BC872DC0CF17";
name = Regular;
paths = (
{
closed = 1;
nodes = (
"35 662 LINE",
"280 567 LINE",
"413 583 LINE",
"448 554 OFFCURVE",
"464 505 OFFCURVE",
"464 458 CURVE SMOOTH",
"464 389 OFFCURVE",
"431 337 OFFCURVE",
"346 337 CURVE SMOOTH",
"320 337 OFFCURVE",
"286 343 OFFCURVE",
"252 357 CURVE",
"261 251 LINE",
"395 252 LINE SMOOTH",
"544 252 OFFCURVE",
"649 348 OFFCURVE",
"649 461 CURVE SMOOTH",
"649 573 OFFCURVE",
"545 670 OFFCURVE",
"374 670 CURVE"
);
},
{
closed = 1;
nodes = (
"86 69 OFFCURVE",
"53 52 OFFCURVE",
"24 32 CURVE",
"30 0 LINE",
"124 0 LINE",
"123 85 LINE"
);
},
{
closed = 1;
nodes = (
"232 0 LINE",
"372 0 LINE",
"373 53 LINE",
"235 75 LINE"
);
},
{
closed = 1;
nodes = (
"109 662 LINE",
"109 0 LINE",
"290 0 LINE",
"290 662 LINE"
);
},
{
closed = 1;
nodes = (
"35 662 LINE",
"34 609 LINE",
"156 591 LINE",
"157 662 LINE"
);
},
{
closed = 1;
nodes = (
"335 291 LINE",
"488 0 LINE",
"690 0 LINE",
"505 300 LINE"
);
},
{
closed = 1;
nodes = (
"572 0 LINE",
"712 0 LINE",
"713 53 LINE",
"575 74 LINE"
);
}
);
width = 719;
}
);
leftKerningGroup = I;
leftMetricsKey = I;
rightKerningGroup = R;
unicode = 0052;
},
{
color = 3;
glyphname = S;
layers = (
{
anchors = (
{
name = bottom;
position = "{298, 0}";
},
{
name = top;
position = "{310, 650}";
}
);
layerId = "3A083A2A-974B-4791-8355-BC872DC0CF17";
name = Regular;
paths = (
{
closed = 1;
nodes = (
"163 682 OFFCURVE",
"51 600 OFFCURVE",
"51 477 CURVE SMOOTH",
"51 361 OFFCURVE",
"150 308 OFFCURVE",
"239 267 CURVE SMOOTH",
"321 229 OFFCURVE",
"386 202 OFFCURVE",
"386 143 CURVE SMOOTH",
"386 116 OFFCURVE",
"371 86 OFFCURVE",
"332 68 CURVE",
"252 71 OFFCURVE",
"160 98 OFFCURVE",
"96 171 CURVE",
"52 42 LINE",
"120 2 OFFCURVE",
"227 -19 OFFCURVE",
"303 -19 CURVE SMOOTH",
"444 -19 OFFCURVE",
"564 54 OFFCURVE",
"564 186 CURVE SMOOTH",
"564 308 OFFCURVE",
"470 360 OFFCURVE",
"379 402 CURVE SMOOTH",
"294 441 OFFCURVE",
"221 467 OFFCURVE",
"221 522 CURVE SMOOTH",
"221 547 OFFCURVE",
"234 579 OFFCURVE",
"266 597 CURVE",
"345 596 OFFCURVE",
"420 571 OFFCURVE",
"479 507 CURVE",
"534 644 LINE",
"480 664 OFFCURVE",
"393 682 OFFCURVE",
"320 682 CURVE SMOOTH"
);
},
{
closed = 1;
nodes = (
"513 453 LINE",
"527 512 OFFCURVE",
"532 589 OFFCURVE",
"534 644 CURVE",
"363 634 LINE",
"421 453 LINE"
);
},
{
closed = 1;
nodes = (
"57 182 OFFCURVE",
"48 84 OFFCURVE",
"53 42 CURVE",
"242 33 LINE",
"151 235 LINE",
"70 235 LINE"
);
}
);
width = 600;
}
);
leftKerningGroup = S;
rightKerningGroup = S;
unicode = 0053;
},
{
color = 3;
glyphname = T;
layers = (
{
anchors = (
{
name = bottom;
position = "{334, 0}";
},
{
name = center;
position = "{334, 325}";
},
{
name = top;
position = "{334, 650}";
}
);
layerId = "3A083A2A-974B-4791-8355-BC872DC0CF17";
name = Regular;
paths = (
{
closed = 1;
nodes = (
"244 662 LINE",
"244 0 LINE",
"425 0 LINE",
"425 662 LINE"
);
},
{
closed = 1;
nodes = (
"214 69 OFFCURVE",
"175 52 OFFCURVE",
"146 32 CURVE",
"152 0 LINE",
"252 0 LINE",
"251 85 LINE"
);
},
{
closed = 1;
nodes = (
"382 0 LINE",
"522 0 LINE",
"523 53 LINE",
"385 75 LINE"
);
},
{
closed = 1;
nodes = (
"398 662 OFFCURVE",
"276 662 OFFCURVE",
"8 668 CURVE",
"25 565 LINE",
"335 595 LINE",
"644 565 LINE",
"660 668 LINE"
);
},
{
closed = 1;
nodes = (
"642 436 LINE",
"655 502 OFFCURVE",
"664 625 OFFCURVE",
"661 668 CURVE",
"525 646 LINE",
"548 436 LINE SMOOTH"
);
},
{
closed = 1;
nodes = (
"142 646 LINE",
"8 668 LINE",
"3 625 OFFCURVE",
"13 502 OFFCURVE",
"27 436 CURVE",
"120 436 LINE"
);
}
);
width = 668;
}
);
leftKerningGroup = T;
rightKerningGroup = T;
unicode = 0054;
},
{
color = 3;
glyphname = U;
layers = (
{
anchors = (
{
name = ogonek;
position = "{528, 0}";
},
{
name = top;
position = "{378, 650}";
}
);
layerId = "3A083A2A-974B-4791-8355-BC872DC0CF17";
name = Regular;
paths = (
{
closed = 1;
nodes = (
"538 662 LINE",
"538 290 LINE SMOOTH",
"538 201 OFFCURVE",
"524 137 OFFCURVE",
"495 105 CURVE",
"473 89 OFFCURVE",
"447 80 OFFCURVE",
"412 80 CURVE SMOOTH",
"327 80 OFFCURVE",
"265 134 OFFCURVE",
"265 261 CURVE SMOOTH",
"265 662 LINE",
"84 662 LINE",
"84 301 LINE SMOOTH",
"84 83 OFFCURVE",
"219 -20 OFFCURVE",
"394 -20 CURVE SMOOTH",
"543 -20 OFFCURVE",
"663 57 OFFCURVE",
"663 290 CURVE SMOOTH",
"663 662 LINE"
);
},
{
closed = 1;
nodes = (
"8 662 LINE",
"7 609 LINE",
"145 587 LINE",
"148 662 LINE"
);
},
{
closed = 1;
nodes = (
"250 662 LINE",
"251 577 LINE",
"288 593 OFFCURVE",
"322 610 OFFCURVE",
"350 630 CURVE",
"344 662 LINE"
);
},
{
closed = 1;
nodes = (
"456 662 LINE",
"455 609 LINE",
"593 587 LINE",
"596 662 LINE"
);
},
{
closed = 1;
nodes = (
"648 662 LINE",
"649 577 LINE",
"686 593 OFFCURVE",
"720 610 OFFCURVE",
"748 630 CURVE",
"742 662 LINE"
);
}
);
width = 755;
}
);
leftKerningGroup = U;
rightKerningGroup = U;
unicode = 0055;
},
{
color = 3;
glyphname = V;
layers = (
{
layerId = "3A083A2A-974B-4791-8355-BC872DC0CF17";
name = Regular;
paths = (
{
closed = 1;
nodes = (
"46 662 LINE",
"286 -16 LINE",
"344 -13 OFFCURVE",
"402 -7 OFFCURVE",
"448 1 CURVE",
"397 122 LINE",
"371 123 LINE",
"358 260 LINE",
"231 662 LINE"
);
},
{
closed = 1;
nodes = (
"-2 662 LINE",
"-3 609 LINE",
"135 587 LINE",
"138 662 LINE"
);
},
{
closed = 1;
nodes = (
"447 1 LINE",
"675 662 LINE",
"557 662 LINE",
"350 36 LINE"
);
},
{
closed = 1;
nodes = (
"227 662 LINE",
"236 577 LINE",
"273 593 OFFCURVE",
"307 610 OFFCURVE",
"335 630 CURVE",
"329 662 LINE"
);
},
{
closed = 1;
nodes = (
"448 662 LINE",
"447 609 LINE",
"585 587 LINE",
"588 662 LINE"
);
},
{
closed = 1;
nodes = (
"618 662 LINE",
"627 577 LINE",
"664 593 OFFCURVE",
"698 610 OFFCURVE",
"726 630 CURVE",
"720 662 LINE"
);
}
);
width = 724;
}
);
leftKerningGroup = V;
rightKerningGroup = V;
unicode = 0056;
},
{
color = 3;
glyphname = W;
layers = (
{
anchors = (
{
name = top;
position = "{506, 650}";
}
);
layerId = "3A083A2A-974B-4791-8355-BC872DC0CF17";
name = Regular;
paths = (
{
closed = 1;
nodes = (
"4 662 LINE",
"3 609 LINE",
"141 587 LINE",
"144 662 LINE"
);
},
{
closed = 1;
nodes = (
"229 662 LINE",
"238 577 LINE",
"275 593 OFFCURVE",
"309 610 OFFCURVE",
"337 630 CURVE",
"331 662 LINE"
);
},
{
closed = 1;
nodes = (
"51 662 LINE",
"268 -16 LINE",
"328 -13 OFFCURVE",
"380 -8 OFFCURVE",
"426 1 CURVE",
"385 122 LINE",
"351 123 LINE",
"344 264 LINE",
"236 662 LINE"
);
},
{
closed = 1;
nodes = (
"332 36 LINE",
"427 1 LINE",
"489 204 LINE",
"514 329 LINE",
"532 329 LINE",
"576 476 LINE",
"472 522 LINE"
);
},
{
closed = 1;
nodes = (
"418 621 LINE",
"618 -16 LINE",
"678 -13 OFFCURVE",
"730 -8 OFFCURVE",
"777 1 CURVE",
"741 122 LINE",
"702 123 LINE",
"693 280 LINE",
"588 658 LINE"
);
},
{
closed = 1;
nodes = (
"777 1 LINE",
"967 662 LINE",
"850 662 LINE",
"680 36 LINE"
);
},
{
closed = 1;
nodes = (
"737 662 LINE",
"736 609 LINE",
"874 587 LINE",
"877 662 LINE"
);
},
{
closed = 1;
nodes = (
"911 662 LINE",
"920 577 LINE",
"957 593 OFFCURVE",
"991 610 OFFCURVE",
"1019 630 CURVE",
"1013 662 LINE"
);
}
);
width = 1017;
}
);
leftKerningGroup = V;
leftMetricsKey = V;
rightKerningGroup = V;
rightMetricsKey = V;
unicode = 0057;
},
{
color = 3;
glyphname = X;
layers = (
{
layerId = "3A083A2A-974B-4791-8355-BC872DC0CF17";
name = Regular;
paths = (
{
closed = 1;
nodes = (
"162 587 LINE",
"165 662 LINE",
"25 662 LINE",
"24 609 LINE"
);
},
{
closed = 1;
nodes = (
"232 662 LINE",
"241 577 LINE",
"278 593 OFFCURVE",
"312 610 OFFCURVE",
"340 630 CURVE",
"334 662 LINE"
);
},
{
closed = 1;
nodes = (
"423 662 LINE",
"422 609 LINE",
"560 587 LINE",
"563 662 LINE"
);
},
{
closed = 1;
nodes = (
"587 662 LINE",
"596 577 LINE",
"633 593 OFFCURVE",
"667 610 OFFCURVE",
"695 630 CURVE",
"689 662 LINE"
);
},
{
closed = 1;
nodes = (
"60 69 OFFCURVE",
"27 52 OFFCURVE",
"-2 32 CURVE",
"4 0 LINE",
"106 0 LINE",
"97 85 LINE"
);
},
{
closed = 1;
nodes = (
"150 0 LINE",
"290 0 LINE",
"291 53 LINE",
"153 75 LINE"
);
},
{
closed = 1;
nodes = (
"456 69 OFFCURVE",
"423 52 OFFCURVE",
"394 32 CURVE",
"400 0 LINE",
"502 0 LINE",
"493 85 LINE"
);
},
{
closed = 1;
nodes = (
"586 0 LINE",
"726 0 LINE",
"727 53 LINE",
"581 75 LINE"
);
},
{
closed = 1;
nodes = (
"46 662 LINE",
"495 0 LINE",
"698 0 LINE",
"247 662 LINE"
);
},
{
closed = 1;
nodes = (
"538 662 LINE",
"360 375 LINE",
"453 342 LINE",
"663 662 LINE"
);
},
{
closed = 1;
nodes = (
"29 0 LINE",
"169 0 LINE",
"394 344 LINE",
"302 392 LINE"
);
}
);
width = 713;
}
);
unicode = 0058;
},
{
color = 3;
glyphname = Y;
layers = (
{
anchors = (
{
name = top;
position = "{354, 650}";
}
);
layerId = "3A083A2A-974B-4791-8355-BC872DC0CF17";
name = Regular;
paths = (
{
closed = 1;
nodes = (
"27 662 LINE",
"256 232 LINE",
"397 312 LINE",
"378 350 LINE",
"355 349 LINE",
"327 436 LINE",
"207 662 LINE"
);
},
{
closed = 1;
nodes = (
"-2 662 LINE",
"-3 609 LINE",
"135 587 LINE",
"138 662 LINE"
);
},
{
closed = 1;
nodes = (
"184 662 LINE",
"193 577 LINE",
"230 593 OFFCURVE",
"264 610 OFFCURVE",
"292 630 CURVE",
"286 662 LINE"
);
},
{
closed = 1;
nodes = (
"518 662 LINE",
"330 287 LINE",
"412 246 LINE",
"635 662 LINE"
);
},
{
closed = 1;
nodes = (
"416 662 LINE",
"415 609 LINE",
"553 587 LINE",
"556 662 LINE"
);
},
{
closed = 1;
nodes = (
"571 662 LINE",
"580 577 LINE",
"617 593 OFFCURVE",
"651 610 OFFCURVE",
"679 630 CURVE",
"673 662 LINE"
);
},
{
closed = 1;
nodes = (
"249 0 LINE",
"424 0 LINE",
"424 320 LINE",
"249 320 LINE"
);
},
{
closed = 1;
nodes = (
"229 69 OFFCURVE",
"196 52 OFFCURVE",
"167 32 CURVE",
"173 0 LINE",
"267 0 LINE",
"266 85 LINE"
);
},
{
closed = 1;
nodes = (
"367 0 LINE",
"507 0 LINE",
"508 53 LINE",
"370 75 LINE"
);
}
);
width = 672;
}
);
leftKerningGroup = Y;
leftMetricsKey = V;
rightKerningGroup = Y;
rightMetricsKey = V;
unicode = 0059;
},
{
color = 3;
glyphname = Z;
layers = (
{
layerId = "3A083A2A-974B-4791-8355-BC872DC0CF17";
name = Regular;
paths = (
{
closed = 1;
nodes = (
"98 555 LINE",
"547 589 LINE",
"580 662 LINE",
"66 662 LINE"
);
},
{
closed = 1;
nodes = (
"518 619 LINE",
"429 607 LINE",
"32 79 LINE",
"81 -1 LINE",
"136 37 LINE",
"215 47 LINE",
"619 585 LINE",
"580 662 LINE"
);
},
{
closed = 1;
nodes = (
"144 91 LINE",
"81 -1 LINE",
"599 0 LINE",
"585 108 LINE"
);
},
{
closed = 1;
nodes = (
"224 603 LINE",
"66 662 LINE",
"60 595 OFFCURVE",
"61 501 OFFCURVE",
"73 429 CURVE",
"172 429 LINE"
);
},
{
closed = 1;
nodes = (
"433 22 LINE",
"598 0 LINE",
"612 81 OFFCURVE",
"621 144 OFFCURVE",
"624 223 CURVE",
"518 237 LINE"
);
}
);
width = 660;
}
);
leftKerningGroup = Z;
rightKerningGroup = Z;
unicode = 005A;
},
{
color = 3;
glyphname = bracketleft;
layers = (
{
layerId = "3A083A2A-974B-4791-8355-BC872DC0CF17";
name = Regular;
paths = (
{
closed = 1;
nodes = (
"88 712 LINE",
"88 -122 LINE",
"383 -122 LINE",
"389 -60 LINE",
"259 -26 LINE",
"259 616 LINE",
"389 650 LINE",
"383 712 LINE"
);
}
);
width = 417;
}
);
unicode = 005B;
},
{
color = 3;
glyphname = backslash;
layers = (
{
layerId = "3A083A2A-974B-4791-8355-BC872DC0CF17";
name = Regular;
paths = (
{
closed = 1;
nodes = (
"406 -78 LINE",
"98 731 LINE",
"-29 681 LINE",
"278 -126 LINE"
);
}
);
width = 410;
}
);
unicode = 005C;
},
{
color = 3;
glyphname = bracketright;
layers = (
{
layerId = "3A083A2A-974B-4791-8355-BC872DC0CF17";
name = Regular;
paths = (
{
closed = 1;
nodes = (
"28 650 LINE",
"158 616 LINE",
"158 -26 LINE",
"28 -60 LINE",
"34 -122 LINE",
"329 -122 LINE",
"329 712 LINE",
"34 712 LINE"
);
}
);
width = 418;
}
);
unicode = 005D;
},
{
color = 3;
glyphname = asciicircum;
layers = (
{
layerId = "3A083A2A-974B-4791-8355-BC872DC0CF17";
name = Regular;
paths = (
{
closed = 1;
nodes = (
"16 374 LINE",
"102 321 LINE",
"245 539 LINE",
"252 539 LINE",
"404 323 LINE",
"485 376 LINE",
"292 650 LINE",
"202 650 LINE"
);
}
);
width = 497;
}
);
unicode = 005E;
},
{
color = 3;
glyphname = underscore;
layers = (
{
layerId = "3A083A2A-974B-4791-8355-BC872DC0CF17";
name = Regular;
paths = (
{
closed = 1;
nodes = (
"10 -128 LINE",
"10 -217 LINE",
"522 -217 LINE",
"522 -128 LINE"
);
}
);
width = 532;
}
);
unicode = 005F;
},
{
color = 3;
glyphname = a;
layers = (
{
anchors = (
{
name = top;
position = "{265, 468}";
}
);
layerId = "3A083A2A-974B-4791-8355-BC872DC0CF17";
name = Regular;
paths = (
{
closed = 1;
nodes = (
"54 203 OFFCURVE",
"30 155 OFFCURVE",
"30 114 CURVE SMOOTH",
"30 46 OFFCURVE",
"96 -31 OFFCURVE",
"216 -13 CURVE",
"338 67 LINE",
"326 109 LINE",
"299 100 OFFCURVE",
"256 85 OFFCURVE",
"218 82 CURVE",
"206 93 OFFCURVE",
"201 111 OFFCURVE",
"201 125 CURVE SMOOTH",
"201 167 OFFCURVE",
"255 176 OFFCURVE",
"304 175 CURVE",
"332 174 LINE",
"333 237 LINE",
"111 232 LINE"
);
},
{
closed = 1;
nodes = (
"54 396 OFFCURVE",
"61 340 OFFCURVE",
"77 295 CURVE",
"175 297 LINE",
"199 407 LINE",
"213 413 OFFCURVE",
"236 418 OFFCURVE",
"255 419 CURVE",
"280 406 OFFCURVE",
"301 381 OFFCURVE",
"301 318 CURVE SMOOTH",
"301 75 LINE",
"315 70 LINE",
"338 18 OFFCURVE",
"384 -16 OFFCURVE",
"424 -17 CURVE",
"556 57 LINE",
"550 101 LINE",
"529 100 OFFCURVE",
"514 98 OFFCURVE",
"499 98 CURVE SMOOTH",
"483 98 OFFCURVE",
"474 108 OFFCURVE",
"474 122 CURVE",
"474 327 LINE",
"474 386 OFFCURVE",
"472 413 OFFCURVE",
"462 429 CURVE SMOOTH",
"428 477 OFFCURVE",
"376 502 OFFCURVE",
"321 502 CURVE SMOOTH",
"266 502 OFFCURVE",
"143 478 OFFCURVE",
"60 446 CURVE"
);
}
);
width = 563;
}
);
leftKerningGroup = a;
rightKerningGroup = a;
unicode = 0061;
},
{
color = 3;
glyphname = b;
layers = (
{
layerId = "3A083A2A-974B-4791-8355-BC872DC0CF17";
name = Regular;
paths = (
{
closed = 1;
nodes = (
"175 737 LINE",
"56 684 LINE",
"56 20 LINE",
"229 42 LINE",
"229 687 LINE"
);
},
{
closed = 1;
nodes = (
"172 330 LINE",
"211 354 OFFCURVE",
"245 373 OFFCURVE",
"278 373 CURVE SMOOTH",
"340 373 OFFCURVE",
"377 307 OFFCURVE",
"377 232 CURVE SMOOTH",
"377 172 OFFCURVE",
"355 110 OFFCURVE",
"316 76 CURVE",
"245 66 OFFCURVE",
"188 93 OFFCURVE",
"152 137 CURVE",
"55 20 LINE",
"125 -4 OFFCURVE",
"201 -18 OFFCURVE",
"264 -18 CURVE SMOOTH",
"460 -18 OFFCURVE",
"555 118 OFFCURVE",
"555 262 CURVE SMOOTH",
"555 396 OFFCURVE",
"473 514 OFFCURVE",
"335 491 CURVE",
"163 366 LINE"
);
},
{
closed = 1;
nodes = (
"-19 650 LINE",
"99 629 LINE",
"175 666 LINE",
"175 737 LINE",
"105 733 OFFCURVE",
"35 721 OFFCURVE",
"-23 700 CURVE"
);
}
);
width = 573;
}
);
leftKerningGroup = b;
rightKerningGroup = o;
rightMetricsKey = o;
unicode = 0062;
},
{
color = 3;
glyphname = c;
layers = (
{
anchors = (
{
name = bottom;
position = "{250, 0}";
},
{
name = top;
position = "{262, 468}";
}
);
layerId = "3A083A2A-974B-4791-8355-BC872DC0CF17";
name = Regular;
paths = (
{
closed = 1;
nodes = (
"427 126 LINE",
"388 107 OFFCURVE",
"352 96 OFFCURVE",
"318 96 CURVE SMOOTH",
"226 96 OFFCURVE",
"178 168 OFFCURVE",
"178 265 CURVE SMOOTH",
"178 310 OFFCURVE",
"189 369 OFFCURVE",
"226 409 CURVE",
"266 387 OFFCURVE",
"298 348 OFFCURVE",
"326 293 CURVE",
"463 370 LINE",
"437 458 OFFCURVE",
"353 500 OFFCURVE",
"264 500 CURVE SMOOTH",
"122 500 OFFCURVE",
"11 395 OFFCURVE",
"11 239 CURVE SMOOTH",
"11 66 OFFCURVE",
"151 -37 OFFCURVE",
"306 -13 CURVE",
"451 71 LINE"
);
}
);
width = 463;
}
);
leftKerningGroup = o;
leftMetricsKey = o;
rightKerningGroup = c;
unicode = 0063;
},
{
color = 3;
glyphname = d;
layers = (
{
anchors = (
{
name = center;
position = "{108, 94}";
},
{
name = topright;
position = "{208, 260}";
}
);
layerId = "3A083A2A-974B-4791-8355-BC872DC0CF17";
name = Regular;
paths = (
{
closed = 1;
nodes = (
"582 101 LINE",
"560 100 OFFCURVE",
"546 98 OFFCURVE",
"531 98 CURVE SMOOTH",
"516 98 OFFCURVE",
"506 108 OFFCURVE",
"506 122 CURVE SMOOTH",
"506 687 LINE",
"452 737 LINE",
"333 684 LINE",
"333 75 LINE",
"347 70 LINE",
"370 18 OFFCURVE",
"415 -16 OFFCURVE",
"455 -17 CURVE",
"588 57 LINE"
);
},
{
closed = 1;
nodes = (
"413 161 LINE",
"365 125 OFFCURVE",
"321 110 OFFCURVE",
"290 110 CURVE SMOOTH",
"226 110 OFFCURVE",
"191 174 OFFCURVE",
"191 252 CURVE SMOOTH",
"191 311 OFFCURVE",
"211 372 OFFCURVE",
"247 406 CURVE",
"317 408 OFFCURVE",
"378 373 OFFCURVE",
"414 322 CURVE",
"442 446 LINE",
"393 478 OFFCURVE",
"339 497 OFFCURVE",
"277 497 CURVE SMOOTH",
"106 497 OFFCURVE",
"11 372 OFFCURVE",
"11 234 CURVE SMOOTH",
"11 101 OFFCURVE",
"95 -19 OFFCURVE",
"234 -17 CURVE",
"406 112 LINE"
);
},
{
closed = 1;
nodes = (
"376 629 LINE",
"452 666 LINE",
"452 737 LINE",
"382 733 OFFCURVE",
"312 721 OFFCURVE",
"254 700 CURVE",
"259 650 LINE"
);
}
);
width = 592;
}
);
leftKerningGroup = o;
leftMetricsKey = o;
rightKerningGroup = l;
unicode = 0064;
},
{
color = 3;
glyphname = e;
layers = (
{
anchors = (
{
name = bottom;
position = "{265, 0}";
},
{
name = ogonek;
position = "{466, 26}";
},
{
name = top;
position = "{261, 468}";
}
);
layerId = "3A083A2A-974B-4791-8355-BC872DC0CF17";
name = Regular;
paths = (
{
closed = 1;
nodes = (
"447 134 LINE",
"400 109 OFFCURVE",
"362 96 OFFCURVE",
"320 96 CURVE SMOOTH",
"235 96 OFFCURVE",
"173 152 OFFCURVE",
"173 255 CURVE SMOOTH",
"173 313 OFFCURVE",
"193 387 OFFCURVE",
"239 417 CURVE",
"299 414 OFFCURVE",
"338 340 OFFCURVE",
"328 273 CURVE",
"484 287 LINE",
"486 440 OFFCURVE",
"366 500 OFFCURVE",
"266 500 CURVE SMOOTH",
"132 500 OFFCURVE",
"11 391 OFFCURVE",
"11 234 CURVE SMOOTH",
"11 67 OFFCURVE",
"151 -35 OFFCURVE",
"315 -12 CURVE",
"472 77 LINE"
);
},
{
closed = 1;
nodes = (
"127 231 LINE",
"426 229 LINE",
"484 287 LINE",
"401 321 LINE",
"115 303 LINE"
);
}
);
width = 500;
}
);
leftKerningGroup = o;
leftMetricsKey = o;
rightKerningGroup = e;
unicode = 0065;
},
{
color = 3;
glyphname = f;
layers = (
{
layerId = "3A083A2A-974B-4791-8355-BC872DC0CF17";
name = Regular;
paths = (
{
closed = 1;
nodes = (
"435 702 LINE",
"387 735 OFFCURVE",
"331 751 OFFCURVE",
"286 751 CURVE SMOOTH",
"175 751 OFFCURVE",
"82 659 OFFCURVE",
"82 535 CURVE SMOOTH",
"82 0 LINE",
"256 0 LINE",
"256 437 LINE",
"258 465 LINE",
"194 641 LINE",
"251 623 OFFCURVE",
"302 593 OFFCURVE",
"345 551 CURVE"
);
},
{
closed = 1;
nodes = (
"196 362 LINE",
"209 431 LINE",
"142 491 LINE",
"98 468 OFFCURVE",
"52 444 OFFCURVE",
"6 415 CURVE",
"8 360 LINE"
);
},
{
closed = 1;
nodes = (
"130 0 LINE",
"140 83 LINE",
"102 74 OFFCURVE",
"54 57 OFFCURVE",
"16 35 CURVE",
"18 0 LINE"
);
},
{
closed = 1;
nodes = (
"345 0 LINE",
"347 49 LINE",
"310 72 OFFCURVE",
"266 87 OFFCURVE",
"224 97 CURVE",
"199 0 LINE"
);
},
{
closed = 1;
nodes = (
"202 360 LINE",
"318 360 LINE",
"369 424 LINE",
"367 473 LINE",
"202 473 LINE"
);
}
);
width = 385;
}
);
leftKerningGroup = f;
leftMetricsKey = n;
rightKerningGroup = f;
unicode = 0066;
},
{
color = 3;
glyphname = g;
layers = (
{
anchors = (
{
name = top;
position = "{265, 468}";
}
);
layerId = "3A083A2A-974B-4791-8355-BC872DC0CF17";
name = Regular;
paths = (
{
closed = 1;
nodes = (
"415 555 OFFCURVE",
"384 448 OFFCURVE",
"402 361 CURVE",
"425 380 LINE",
"464 414 OFFCURVE",
"513 428 OFFCURVE",
"572 419 CURVE",
"544 561 LINE"
);
},
{
closed = 1;
nodes = (
"410 156 OFFCURVE",
"502 233 OFFCURVE",
"502 329 CURVE SMOOTH",
"502 427 OFFCURVE",
"406 504 OFFCURVE",
"267 504 CURVE SMOOTH",
"122 504 OFFCURVE",
"30 419 OFFCURVE",
"30 326 CURVE SMOOTH",
"30 237 OFFCURVE",
"112 156 OFFCURVE",
"263 156 CURVE SMOOTH"
);
},
{
closed = 1;
nodes = (
"291 446 OFFCURVE",
"335 381 OFFCURVE",
"335 319 CURVE SMOOTH",
"335 284 OFFCURVE",
"324 247 OFFCURVE",
"302 232 CURVE",
"233 213 OFFCURVE",
"198 265 OFFCURVE",
"198 330 CURVE SMOOTH",
"198 365 OFFCURVE",
"207 406 OFFCURVE",
"224 420 CURVE"
);
},
{
closed = 1;
nodes = (
"170 46 LINE",
"14 -93 LINE",
"23 -208 OFFCURVE",
"135 -247 OFFCURVE",
"232 -247 CURVE SMOOTH",
"434 -247 OFFCURVE",
"593 -82 OFFCURVE",
"531 63 CURVE",
"434 94 OFFCURVE",
"301 118 OFFCURVE",
"189 119 CURVE",
"210 140 OFFCURVE",
"238 163 OFFCURVE",
"269 181 CURVE",
"207 198 LINE",
"147 170 OFFCURVE",
"92 127 OFFCURVE",
"44 77 CURVE",
"65 3 LINE",
"202 -3 OFFCURVE",
"342 -26 OFFCURVE",
"423 -58 CURVE",
"393 -98 OFFCURVE",
"322 -119 OFFCURVE",
"259 -119 CURVE SMOOTH",
"198 -119 OFFCURVE",
"148 -101 OFFCURVE",
"148 -61 CURVE SMOOTH",
"148 -28 OFFCURVE",
"192 11 OFFCURVE",
"263 51 CURVE"
);
}
);
width = 580;
}
);
leftKerningGroup = g;
rightKerningGroup = g;
unicode = 0067;
},
{
color = 9;
glyphname = h;
layers = (
{
layerId = "3A083A2A-974B-4791-8355-BC872DC0CF17";
name = Regular;
paths = (
{
closed = 1;
nodes = (
"133 629 LINE",
"209 666 LINE",
"209 737 LINE",
"139 733 OFFCURVE",
"69 721 OFFCURVE",
"11 700 CURVE",
"16 650 LINE"
);
},
{
closed = 1;
nodes = (
"90 0 LINE",
"263 0 LINE",
"263 687 LINE",
"209 737 LINE",
"90 684 LINE"
);
},
{
closed = 1;
nodes = (
"129 0 LINE",
"139 83 LINE",
"101 74 OFFCURVE",
"53 57 OFFCURVE",
"15 35 CURVE",
"17 0 LINE"
);
},
{
closed = 1;
nodes = (
"315 0 LINE",
"317 49 LINE",
"280 75 OFFCURVE",
"236 93 OFFCURVE",
"194 103 CURVE",
"169 0 LINE"
);
},
{
closed = 1;
nodes = (
"627 0 LINE",
"629 49 LINE",
"592 75 OFFCURVE",
"548 93 OFFCURVE",
"506 103 CURVE",
"481 0 LINE"
);
},
{
closed = 1;
nodes = (
"390 0 LINE",
"563 0 LINE",
"563 296 LINE SMOOTH",
"563 380 OFFCURVE",
"561 406 OFFCURVE",
"551 423 CURVE SMOOTH",
"516 478 OFFCURVE",
"451 494 OFFCURVE",
"412 495 CURVE",
"340 472 OFFCURVE",
"250 413 OFFCURVE",
"166 329 CURVE",
"171 303 LINE",
"219 339 OFFCURVE",
"276 376 OFFCURVE",
"322 378 CURVE SMOOTH",
"365 380 OFFCURVE",
"390 346 OFFCURVE",
"390 285 CURVE SMOOTH"
);
}
);
width = 643;
}
);
leftKerningGroup = l;
leftMetricsKey = n;
rightKerningGroup = n;
rightMetricsKey = n;
unicode = 0068;
},
{
color = 3;
glyphname = i;
layers = (
{
anchors = (
{
name = ogonek;
position = "{92, 0}";
}
);
layerId = "3A083A2A-974B-4791-8355-BC872DC0CF17";
name = Regular;
paths = (
{
closed = 1;
nodes = (
"220 578 OFFCURVE",
"254 618 OFFCURVE",
"275 660 CURVE",
"247 701 OFFCURVE",
"206 739 OFFCURVE",
"162 762 CURVE",
"122 733 OFFCURVE",
"88 690 OFFCURVE",
"63 642 CURVE",
"93 605 OFFCURVE",
"137 571 OFFCURVE",
"182 551 CURVE"
);
},
{
closed = 1;
nodes = (
"129 391 LINE",
"205 428 LINE",
"205 498 LINE",
"135 496 OFFCURVE",
"65 483 OFFCURVE",
"7 461 CURVE",
"12 413 LINE"
);
},
{
closed = 1;
nodes = (
"86 0 LINE",
"259 0 LINE",
"259 450 LINE",
"205 498 LINE",
"86 446 LINE"
);
},
{
closed = 1;
nodes = (
"329 0 LINE",
"331 49 LINE",
"294 75 OFFCURVE",
"238 93 OFFCURVE",
"196 103 CURVE",
"171 0 LINE"
);
},
{
closed = 1;
nodes = (
"124 0 LINE",
"134 83 LINE",
"96 74 OFFCURVE",
"48 57 OFFCURVE",
"10 35 CURVE",
"12 0 LINE"
);
}
);
width = 345;
}
);
leftKerningGroup = n;
leftMetricsKey = n;
rightKerningGroup = i;
rightMetricsKey = n;
unicode = 0069;
},
{
color = 3;
glyphname = j;
layers = (
{
anchors = (
{
name = top;
position = "{60, 200}";
}
);
layerId = "3A083A2A-974B-4791-8355-BC872DC0CF17";
name = Regular;
paths = (
{
closed = 1;
nodes = (
"221 578 OFFCURVE",
"255 617 OFFCURVE",
"276 660 CURVE",
"248 700 OFFCURVE",
"207 738 OFFCURVE",
"163 762 CURVE",
"123 732 OFFCURVE",
"89 690 OFFCURVE",
"64 642 CURVE",
"94 605 OFFCURVE",
"138 571 OFFCURVE",
"183 550 CURVE"
);
},
{
closed = 1;
nodes = (
"207 498 LINE",
"88 446 LINE",
"88 -55 LINE SMOOTH",
"88 -123 OFFCURVE",
"50 -157 OFFCURVE",
"-10 -177 CURVE",
"7 -219 LINE",
"196 -202 OFFCURVE",
"261 -111 OFFCURVE",
"261 -45 CURVE SMOOTH",
"261 450 LINE"
);
},
{
closed = 1;
nodes = (
"130 391 LINE",
"206 428 LINE",
"206 498 LINE",
"136 496 OFFCURVE",
"66 483 OFFCURVE",
"8 461 CURVE",
"13 413 LINE"
);
}
);
width = 328;
}
);
leftKerningGroup = j;
rightKerningGroup = j;
unicode = 006A;
},
{
color = 9;
glyphname = k;
layers = (
{
anchors = (
{
name = bottom;
position = "{316, 0}";
}
);
layerId = "3A083A2A-974B-4791-8355-BC872DC0CF17";
name = Regular;
paths = (
{
closed = 1;
nodes = (
"131 629 LINE",
"207 666 LINE",
"207 737 LINE",
"137 733 OFFCURVE",
"67 721 OFFCURVE",
"9 700 CURVE",
"14 650 LINE"
);
},
{
closed = 1;
nodes = (
"90 0 LINE",
"263 0 LINE",
"263 687 LINE",
"209 737 LINE",
"90 684 LINE"
);
},
{
closed = 1;
nodes = (
"128 0 LINE",
"138 83 LINE",
"100 74 OFFCURVE",
"52 57 OFFCURVE",
"14 35 CURVE",
"16 0 LINE"
);
},
{
closed = 1;
nodes = (
"321 413 LINE",
"442 392 LINE",
"518 429 LINE",
"518 498 LINE",
"448 496 OFFCURVE",
"374 483 OFFCURVE",
"316 462 CURVE"
);
},
{
closed = 1;
nodes = (
"518 498 LINE",
"404 445 LINE",
"238 225 LINE",
"356 175 LINE",
"565 431 LINE"
);
},
{
closed = 1;
nodes = (
"568 53 OFFCURVE",
"556 65 OFFCURVE",
"544 76 CURVE SMOOTH",
"408 267 LINE",
"261 213 LINE",
"363 49 LINE SMOOTH",
"380 23 OFFCURVE",
"392 6 OFFCURVE",
"411 -6 CURVE",
"582 -6 LINE",
"590 41 LINE"
);
}
);
width = 608;
}
);
leftKerningGroup = l;
leftMetricsKey = n;
rightKerningGroup = k;
unicode = 006B;
},
{
color = 3;
glyphname = l;
layers = (
{
anchors = (
{
name = bottom;
position = "{182, 0}";
},
{
name = top;
position = "{167, 735}";
},
{
name = topright;
position = "{334, 468}";
}
);
layerId = "3A083A2A-974B-4791-8355-BC872DC0CF17";
name = Regular;
paths = (
{
closed = 1;
nodes = (
"86 0 LINE",
"259 0 LINE",
"259 687 LINE",
"205 737 LINE",
"86 684 LINE"
);
},
{
closed = 1;
nodes = (
"129 629 LINE",
"205 666 LINE",
"205 737 LINE",
"135 733 OFFCURVE",
"65 721 OFFCURVE",
"7 700 CURVE",
"12 650 LINE"
);
},
{
closed = 1;
nodes = (
"329 0 LINE",
"331 49 LINE",
"294 75 OFFCURVE",
"238 93 OFFCURVE",
"196 103 CURVE",
"171 0 LINE"
);
},
{
closed = 1;
nodes = (
"124 0 LINE",
"134 83 LINE",
"96 74 OFFCURVE",
"48 57 OFFCURVE",
"10 35 CURVE",
"12 0 LINE"
);
}
);
width = 351;
}
);
leftKerningGroup = l;
leftMetricsKey = n;
rightKerningGroup = l;
unicode = 006C;
},
{
color = 9;
glyphname = m;
layers = (
{
layerId = "3A083A2A-974B-4791-8355-BC872DC0CF17";
name = Regular;
paths = (
{
closed = 1;
nodes = (
"133 391 LINE",
"209 428 LINE",
"209 498 LINE",
"139 496 OFFCURVE",
"69 483 OFFCURVE",
"11 461 CURVE",
"16 413 LINE"
);
},
{
closed = 1;
nodes = (
"90 0 LINE",
"263 0 LINE",
"263 444 LINE",
"209 498 LINE",
"90 446 LINE"
);
},
{
closed = 1;
nodes = (
"387 0 LINE",
"560 0 LINE",
"560 296 LINE SMOOTH",
"560 380 OFFCURVE",
"558 406 OFFCURVE",
"548 423 CURVE SMOOTH",
"513 478 OFFCURVE",
"448 494 OFFCURVE",
"409 495 CURVE",
"337 472 OFFCURVE",
"247 413 OFFCURVE",
"163 329 CURVE",
"168 303 LINE",
"216 339 OFFCURVE",
"273 376 OFFCURVE",
"319 378 CURVE SMOOTH",
"362 380 OFFCURVE",
"387 346 OFFCURVE",
"387 285 CURVE SMOOTH"
);
},
{
closed = 1;
nodes = (
"685 0 LINE",
"858 0 LINE",
"858 296 LINE SMOOTH",
"858 380 OFFCURVE",
"856 406 OFFCURVE",
"846 423 CURVE SMOOTH",
"811 478 OFFCURVE",
"746 494 OFFCURVE",
"707 495 CURVE",
"635 472 OFFCURVE",
"545 413 OFFCURVE",
"461 329 CURVE",
"466 303 LINE",
"514 339 OFFCURVE",
"571 376 OFFCURVE",
"617 378 CURVE SMOOTH",
"660 380 OFFCURVE",
"685 346 OFFCURVE",
"685 285 CURVE SMOOTH"
);
},
{
closed = 1;
nodes = (
"130 0 LINE",
"140 83 LINE",
"102 74 OFFCURVE",
"54 57 OFFCURVE",
"16 35 CURVE",
"18 0 LINE"
);
},
{
closed = 1;
nodes = (
"319 0 LINE",
"321 49 LINE",
"284 75 OFFCURVE",
"240 93 OFFCURVE",
"198 103 CURVE",
"173 0 LINE"
);
},
{
closed = 1;
nodes = (
"617 0 LINE",
"620 49 LINE",
"582 75 OFFCURVE",
"537 93 OFFCURVE",
"495 103 CURVE",
"470 0 LINE"
);
},
{
closed = 1;
nodes = (
"932 0 LINE",
"935 49 LINE",
"897 75 OFFCURVE",
"840 93 OFFCURVE",
"798 103 CURVE",
"773 0 LINE"
);
}
);
width = 948;
}
);
leftKerningGroup = n;
leftMetricsKey = n;
rightKerningGroup = n;
rightMetricsKey = n;
unicode = 006D;
},
{
color = 9;
glyphname = n;
layers = (
{
anchors = (
{
name = bottom;
position = "{333, 0}";
},
{
name = top;
position = "{325, 468}";
}
);
layerId = "3A083A2A-974B-4791-8355-BC872DC0CF17";
name = Regular;
paths = (
{
closed = 1;
nodes = (
"133 391 LINE",
"209 428 LINE",
"209 498 LINE",
"139 496 OFFCURVE",
"69 483 OFFCURVE",
"11 461 CURVE",
"16 413 LINE"
);
},
{
closed = 1;
nodes = (
"90 0 LINE",
"263 0 LINE",
"263 444 LINE",
"209 498 LINE",
"90 446 LINE"
);
},
{
closed = 1;
nodes = (
"130 0 LINE",
"140 83 LINE",
"102 74 OFFCURVE",
"54 57 OFFCURVE",
"16 35 CURVE",
"18 0 LINE"
);
},
{
closed = 1;
nodes = (
"319 0 LINE",
"321 49 LINE",
"284 75 OFFCURVE",
"240 93 OFFCURVE",
"198 103 CURVE",
"173 0 LINE"
);
},
{
closed = 1;
nodes = (
"634 0 LINE",
"637 49 LINE",
"599 75 OFFCURVE",
"542 93 OFFCURVE",
"500 103 CURVE",
"475 0 LINE"
);
},
{
closed = 1;
nodes = (
"392 0 LINE",
"565 0 LINE",
"565 296 LINE SMOOTH",
"565 380 OFFCURVE",
"563 406 OFFCURVE",
"553 423 CURVE SMOOTH",
"518 478 OFFCURVE",
"453 494 OFFCURVE",
"414 495 CURVE",
"342 472 OFFCURVE",
"252 413 OFFCURVE",
"168 329 CURVE",
"173 303 LINE",
"221 339 OFFCURVE",
"278 376 OFFCURVE",
"324 378 CURVE SMOOTH",
"367 380 OFFCURVE",
"392 346 OFFCURVE",
"392 285 CURVE SMOOTH"
);
}
);
width = 650;
}
);
leftKerningGroup = n;
rightKerningGroup = n;
unicode = 006E;
},
{
color = 3;
glyphname = o;
layers = (
{
anchors = (
{
name = top;
position = "{261, 468}";
}
);
layerId = "3A083A2A-974B-4791-8355-BC872DC0CF17";
name = Regular;
paths = (
{
closed = 1;
nodes = (
"11 77 OFFCURVE",
"133 -20 OFFCURVE",
"266 -20 CURVE SMOOTH",
"397 -20 OFFCURVE",
"511 72 OFFCURVE",
"511 238 CURVE SMOOTH",
"511 408 OFFCURVE",
"392 500 OFFCURVE",
"262 500 CURVE SMOOTH",
"131 500 OFFCURVE",
"11 408 OFFCURVE",
"11 243 CURVE SMOOTH"
);
},
{
closed = 1;
nodes = (
"288 71 OFFCURVE",
"280 70 OFFCURVE",
"271 70 CURVE SMOOTH",
"210 70 OFFCURVE",
"186 147 OFFCURVE",
"186 241 CURVE SMOOTH",
"186 307 OFFCURVE",
"196 365 OFFCURVE",
"216 393 CURVE",
"225 400 OFFCURVE",
"240 404 OFFCURVE",
"255 404 CURVE SMOOTH",
"314 404 OFFCURVE",
"336 324 OFFCURVE",
"336 227 CURVE SMOOTH",
"336 160 OFFCURVE",
"328 97 OFFCURVE",
"299 75 CURVE"
);
}
);
width = 527;
}
);
leftKerningGroup = o;
rightKerningGroup = o;
unicode = 006F;
},
{
color = 3;
glyphname = p;
layers = (
{
layerId = "3A083A2A-974B-4791-8355-BC872DC0CF17";
name = Regular;
paths = (
{
closed = 1;
nodes = (
"84 -202 LINE",
"257 -202 LINE",
"257 450 LINE",
"203 498 LINE",
"84 446 LINE"
);
},
{
closed = 1;
nodes = (
"132 -202 LINE",
"142 -119 LINE",
"104 -134 OFFCURVE",
"56 -151 OFFCURVE",
"18 -167 CURVE",
"20 -202 LINE"
);
},
{
closed = 1;
nodes = (
"350 -202 LINE",
"352 -153 LINE",
"315 -133 OFFCURVE",
"271 -115 OFFCURVE",
"229 -99 CURVE",
"204 -202 LINE"
);
},
{
closed = 1;
nodes = (
"199 329 LINE",
"238 354 OFFCURVE",
"273 373 OFFCURVE",
"305 373 CURVE SMOOTH",
"366 373 OFFCURVE",
"399 305 OFFCURVE",
"399 232 CURVE SMOOTH",
"399 172 OFFCURVE",
"377 110 OFFCURVE",
"343 78 CURVE",
"277 74 OFFCURVE",
"207 99 OFFCURVE",
"174 128 CURVE",
"104 52 LINE",
"173 17 OFFCURVE",
"260 -6 OFFCURVE",
"328 -6 CURVE SMOOTH",
"495 -6 OFFCURVE",
"583 123 OFFCURVE",
"583 261 CURVE SMOOTH",
"583 396 OFFCURVE",
"500 514 OFFCURVE",
"362 491 CURVE",
"190 364 LINE"
);
},
{
closed = 1;
nodes = (
"128 391 LINE",
"211 456 LINE",
"204 498 LINE",
"134 496 OFFCURVE",
"64 483 OFFCURVE",
"6 461 CURVE",
"11 413 LINE"
);
}
);
width = 602;
}
);
leftKerningGroup = n;
leftMetricsKey = n;
rightKerningGroup = o;
rightMetricsKey = o;
unicode = 0070;
},
{
color = 9;
glyphname = q;
layers = (
{
layerId = "3A083A2A-974B-4791-8355-BC872DC0CF17";
name = Regular;
paths = (
{
closed = 1;
nodes = (
"342 -202 LINE",
"515 -202 LINE",
"515 451 LINE",
"369 423 LINE",
"342 417 LINE"
);
},
{
closed = 1;
nodes = (
"360 -202 LINE",
"364 -119 LINE",
"326 -128 OFFCURVE",
"278 -145 OFFCURVE",
"240 -167 CURVE",
"242 -202 LINE"
);
},
{
closed = 1;
nodes = (
"567 -202 LINE",
"569 -153 LINE",
"532 -127 OFFCURVE",
"488 -109 OFFCURVE",
"446 -99 CURVE",
"421 -202 LINE"
);
},
{
closed = 1;
nodes = (
"421 165 LINE",
"374 130 OFFCURVE",
"329 114 OFFCURVE",
"298 114 CURVE SMOOTH",
"235 114 OFFCURVE",
"200 179 OFFCURVE",
"200 256 CURVE SMOOTH",
"200 315 OFFCURVE",
"219 377 OFFCURVE",
"256 410 CURVE",
"325 413 OFFCURVE",
"387 377 OFFCURVE",
"423 328 CURVE",
"515 451 LINE",
"461 479 OFFCURVE",
"375 501 OFFCURVE",
"303 501 CURVE SMOOTH",
"120 501 OFFCURVE",
"19 380 OFFCURVE",
"19 238 CURVE SMOOTH",
"19 107 OFFCURVE",
"104 -14 OFFCURVE",
"242 -11 CURVE",
"415 117 LINE"
);
}
);
width = 583;
}
);
leftKerningGroup = o;
leftMetricsKey = o;
unicode = 0071;
},
{
color = 9;
glyphname = r;
layers = (
{
anchors = (
{
name = bottom;
position = "{193, 0}";
},
{
name = top;
position = "{263, 468}";
}
);
layerId = "3A083A2A-974B-4791-8355-BC872DC0CF17";
name = Regular;
paths = (
{
closed = 1;
nodes = (
"133 391 LINE",
"209 428 LINE",
"209 498 LINE",
"139 496 OFFCURVE",
"69 483 OFFCURVE",
"11 461 CURVE",
"16 413 LINE"
);
},
{
closed = 1;
nodes = (
"90 0 LINE",
"263 0 LINE",
"263 423 LINE",
"209 498 LINE",
"90 446 LINE"
);
},
{
closed = 1;
nodes = (
"130 0 LINE",
"140 83 LINE",
"102 74 OFFCURVE",
"54 57 OFFCURVE",
"16 35 CURVE",
"18 0 LINE"
);
},
{
closed = 1;
nodes = (
"370 0 LINE",
"372 49 LINE",
"335 72 OFFCURVE",
"283 87 OFFCURVE",
"241 97 CURVE",
"216 0 LINE"
);
},
{
closed = 1;
nodes = (
"183 314 LINE",
"155 249 LINE",
"278 339 LINE",
"317 334 OFFCURVE",
"355 303 OFFCURVE",
"385 278 CURVE",
"500 423 LINE",
"477 484 OFFCURVE",
"403 512 OFFCURVE",
"342 494 CURVE"
);
}
);
width = 496;
}
);
leftKerningGroup = n;
leftMetricsKey = n;
rightKerningGroup = r;
unicode = 0072;
},
{
color = 3;
glyphname = s;
layers = (
{
layerId = "3A083A2A-974B-4791-8355-BC872DC0CF17";
name = Regular;
paths = (
{
closed = 1;
nodes = (
"17 34 LINE",
"89 -4 OFFCURVE",
"163 -20 OFFCURVE",
"226 -20 CURVE SMOOTH",
"354 -20 OFFCURVE",
"431 47 OFFCURVE",
"431 135 CURVE SMOOTH",
"431 290 OFFCURVE",
"189 298 OFFCURVE",
"189 381 CURVE SMOOTH",
"189 396 OFFCURVE",
"196 413 OFFCURVE",
"229 423 CURVE",
"273 422 OFFCURVE",
"332 406 OFFCURVE",
"374 379 CURVE",
"409 467 LINE",
"365 490 OFFCURVE",
"305 500 OFFCURVE",
"254 500 CURVE SMOOTH",
"125 500 OFFCURVE",
"33 437 OFFCURVE",
"33 343 CURVE SMOOTH",
"33 192 OFFCURVE",
"272 185 OFFCURVE",
"272 102 CURVE SMOOTH",
"272 89 OFFCURVE",
"265 74 OFFCURVE",
"254 65 CURVE",
"191 87 OFFCURVE",
"128 123 OFFCURVE",
"74 165 CURVE"
);
},
{
closed = 1;
nodes = (
"394 327 LINE",
"409 372 OFFCURVE",
"414 420 OFFCURVE",
"409 467 CURVE",
"256 473 LINE",
"306 327 LINE"
);
}
);
width = 459;
}
);
leftKerningGroup = s;
rightKerningGroup = s;
unicode = 0073;
},
{
color = 3;
glyphname = t;
layers = (
{
anchors = (
{
name = bottom;
position = "{197, 0}";
},
{
name = center;
position = "{207, 234}";
},
{
name = topright;
position = "{394, 468}";
}
);
layerId = "3A083A2A-974B-4791-8355-BC872DC0CF17";
name = Regular;
paths = (
{
closed = 1;
nodes = (
"369 120 LINE",
"344 115 OFFCURVE",
"312 111 OFFCURVE",
"289 111 CURVE SMOOTH",
"263 111 OFFCURVE",
"251 121 OFFCURVE",
"251 154 CURVE SMOOTH",
"251 444 LINE",
"221 607 LINE",
"142 607 LINE",
"78 451 LINE",
"78 92 LINE SMOOTH",
"78 33 OFFCURVE",
"144 -20 OFFCURVE",
"211 -17 CURVE",
"376 68 LINE"
);
},
{
closed = 1;
nodes = (
"192 362 LINE",
"206 431 LINE",
"179 522 LINE",
"109 488 OFFCURVE",
"50 454 OFFCURVE",
"2 415 CURVE",
"5 361 LINE"
);
},
{
closed = 1;
nodes = (
"201 360 LINE",
"335 360 LINE",
"385 423 LINE",
"384 473 LINE",
"201 473 LINE"
);
}
);
width = 402;
}
);
leftKerningGroup = t;
rightKerningGroup = t;
unicode = 0074;
},
{
color = 3;
glyphname = u;
layers = (
{
anchors = (
{
name = ogonek;
position = "{569, 11}";
},
{
name = top;
position = "{294, 468}";
}
);
layerId = "3A083A2A-974B-4791-8355-BC872DC0CF17";
name = Regular;
paths = (
{
closed = 1;
nodes = (
"122 391 LINE",
"198 428 LINE",
"198 498 LINE",
"128 496 OFFCURVE",
"58 483 OFFCURVE",
"0 461 CURVE",
"5 413 LINE"
);
},
{
closed = 1;
nodes = (
"473 173 LINE",
"423 138 OFFCURVE",
"370 105 OFFCURVE",
"322 103 CURVE SMOOTH",
"274 100 OFFCURVE",
"252 128 OFFCURVE",
"252 186 CURVE SMOOTH",
"252 450 LINE",
"198 498 LINE",
"79 449 LINE",
"79 185 LINE SMOOTH",
"79 101 OFFCURVE",
"82 75 OFFCURVE",
"93 58 CURVE SMOOTH",
"128 3 OFFCURVE",
"191 -17 OFFCURVE",
"230 -17 CURVE",
"307 6 OFFCURVE",
"402 65 OFFCURVE",
"478 146 CURVE"
);
},
{
closed = 1;
nodes = (
"418 391 LINE",
"494 428 LINE",
"494 498 LINE",
"430 497 OFFCURVE",
"366 485 OFFCURVE",
"314 464 CURVE",
"319 416 LINE"
);
},
{
closed = 1;
nodes = (
"602 100 OFFCURVE",
"588 98 OFFCURVE",
"573 98 CURVE SMOOTH",
"557 98 OFFCURVE",
"548 108 OFFCURVE",
"548 122 CURVE",
"548 450 LINE",
"494 498 LINE",
"375 449 LINE",
"375 78 LINE",
"389 73 LINE",
"412 21 OFFCURVE",
"457 -15 OFFCURVE",
"497 -17 CURVE",
"630 57 LINE",
"624 101 LINE"
);
}
);
width = 634;
}
);
leftKerningGroup = u;
rightKerningGroup = u;
rightMetricsKey = d;
unicode = 0075;
},
{
color = 9;
glyphname = v;
layers = (
{
layerId = "3A083A2A-974B-4791-8355-BC872DC0CF17";
name = Regular;
paths = (
{
closed = 1;
nodes = (
"-23 424 LINE",
"151 325 LINE",
"196 479 LINE",
"-22 479 LINE"
);
},
{
closed = 1;
nodes = (
"225 -11 OFFCURVE",
"305 -10 OFFCURVE",
"349 3 CURVE",
"417 156 OFFCURVE",
"477 325 OFFCURVE",
"542 479 CURVE",
"355 479 LINE",
"342 375 OFFCURVE",
"323 254 OFFCURVE",
"303 150 CURVE",
"289 150 LINE",
"275 226 LINE",
"196 479 LINE",
"16 455 LINE",
"185 -4 LINE"
);
},
{
closed = 1;
nodes = (
"403 479 LINE",
"490 393 LINE",
"515 403 OFFCURVE",
"537 415 OFFCURVE",
"559 430 CURVE",
"556 479 LINE"
);
}
);
width = 556;
}
);
leftKerningGroup = v;
rightKerningGroup = v;
unicode = 0076;
},
{
color = 9;
glyphname = w;
layers = (
{
anchors = (
{
name = top;
position = "{152, 200}";
}
);
layerId = "3A083A2A-974B-4791-8355-BC872DC0CF17";
name = Regular;
paths = (
{
closed = 1;
nodes = (
"-23 424 LINE",
"145 325 LINE",
"187 479 LINE",
"-22 479 LINE"
);
},
{
closed = 1;
nodes = (
"776 479 LINE",
"588 479 LINE",
"561 136 LINE",
"548 136 LINE",
"459 475 LINE",
"283 467 LINE",
"447 -4 LINE",
"487 -12 OFFCURVE",
"561 -10 OFFCURVE",
"607 5 CURVE"
);
},
{
closed = 1;
nodes = (
"639 479 LINE",
"726 393 LINE",
"751 403 OFFCURVE",
"773 415 OFFCURVE",
"795 430 CURVE",
"792 479 LINE"
);
},
{
closed = 1;
nodes = (
"362 313 LINE",
"298 136 LINE",
"284 136 LINE",
"188 479 LINE",
"11 455 LINE",
"168 -4 LINE",
"209 -11 OFFCURVE",
"288 -10 OFFCURVE",
"333 5 CURVE",
"407 176 LINE",
"426 274 LINE"
);
}
);
width = 793;
}
);
leftKerningGroup = v;
leftMetricsKey = v;
rightKerningGroup = v;
rightMetricsKey = v;
unicode = 0077;
},
{
color = 3;
glyphname = x;
layers = (
{
layerId = "3A083A2A-974B-4791-8355-BC872DC0CF17";
name = Regular;
paths = (
{
closed = 1;
nodes = (
"14 424 LINE",
"191 325 LINE",
"221 479 LINE",
"14 479 LINE"
);
},
{
closed = 1;
nodes = (
"237 403 OFFCURVE",
"259 415 OFFCURVE",
"281 430 CURVE",
"278 479 LINE",
"167 479 LINE",
"212 393 LINE SMOOTH"
);
},
{
closed = 1;
nodes = (
"422 375 LINE",
"530 479 LINE",
"311 479 LINE",
"311 424 LINE"
);
},
{
closed = 1;
nodes = (
"404 479 LINE",
"473 390 LINE",
"500 398 OFFCURVE",
"538 417 OFFCURVE",
"560 430 CURVE",
"557 479 LINE"
);
},
{
closed = 1;
nodes = (
"373 0 LINE",
"558 0 LINE",
"213 479 LINE",
"41 444 LINE"
);
},
{
closed = 1;
nodes = (
"513 414 LINE",
"528 479 LINE",
"372 479 LINE",
"311 302 LINE",
"345 220 LINE"
);
},
{
closed = 1;
nodes = (
"16 17 LINE",
"42 0 LINE",
"196 0 LINE",
"264 183 LINE",
"216 258 LINE"
);
},
{
closed = 1;
nodes = (
"110 0 LINE",
"120 83 LINE",
"82 74 OFFCURVE",
"34 57 OFFCURVE",
"-4 35 CURVE",
"-2 0 LINE"
);
},
{
closed = 1;
nodes = (
"274 0 LINE",
"276 49 LINE",
"239 75 OFFCURVE",
"195 93 OFFCURVE",
"153 103 CURVE",
"124 0 LINE"
);
},
{
closed = 1;
nodes = (
"436 0 LINE",
"426 83 LINE",
"388 74 OFFCURVE",
"340 57 OFFCURVE",
"302 35 CURVE",
"304 0 LINE"
);
},
{
closed = 1;
nodes = (
"579 0 LINE",
"581 49 LINE",
"544 75 OFFCURVE",
"500 93 OFFCURVE",
"458 103 CURVE",
"429 0 LINE"
);
}
);
width = 584;
}
);
leftKerningGroup = x;
rightKerningGroup = x;
unicode = 0078;
},
{
color = 9;
glyphname = y;
layers = (
{
anchors = (
{
name = top;
position = "{297, 468}";
}
);
layerId = "3A083A2A-974B-4791-8355-BC872DC0CF17";
name = Regular;
paths = (
{
closed = 1;
nodes = (
"-24 424 LINE",
"157 325 LINE",
"201 479 LINE",
"-23 479 LINE"
);
},
{
closed = 1;
nodes = (
"295 -145 OFFCURVE",
"370 -49 OFFCURVE",
"423 83 CURVE SMOOTH",
"471 209 OFFCURVE",
"508 355 OFFCURVE",
"544 479 CURVE",
"364 479 LINE",
"348 375 OFFCURVE",
"321 256 OFFCURVE",
"296 156 CURVE",
"280 156 LINE",
"272 236 LINE",
"202 479 LINE",
"27 451 LINE",
"176 44 LINE",
"208 34 OFFCURVE",
"239 24 OFFCURVE",
"274 16 CURVE",
"204 -22 OFFCURVE",
"129 -50 OFFCURVE",
"50 -74 CURVE",
"140 -230 LINE"
);
},
{
closed = 1;
nodes = (
"410 479 LINE",
"497 393 LINE",
"522 403 OFFCURVE",
"550 415 OFFCURVE",
"572 430 CURVE",
"569 479 LINE"
);
}
);
width = 570;
}
);
leftKerningGroup = v;
leftMetricsKey = v;
rightKerningGroup = y;
rightMetricsKey = v;
unicode = 0079;
},
{
color = 9;
glyphname = z;
layers = (
{
anchors = (
{
name = top;
position = "{269, 468}";
}
);
layerId = "3A083A2A-974B-4791-8355-BC872DC0CF17";
name = Regular;
paths = (
{
closed = 1;
nodes = (
"49 375 LINE",
"403 429 LINE",
"443 479 LINE",
"47 479 LINE"
);
},
{
closed = 1;
nodes = (
"446 144 LINE",
"399 131 LINE",
"125 78 LINE",
"95 30 LINE",
"465 -18 LINE",
"479 41 OFFCURVE",
"490 95 OFFCURVE",
"501 158 CURVE"
);
},
{
closed = 1;
nodes = (
"144 298 LINE",
"202 443 LINE",
"48 479 LINE",
"40 426 OFFCURVE",
"42 351 OFFCURVE",
"52 298 CURVE"
);
},
{
closed = 1;
nodes = (
"452 500 LINE",
"394 463 LINE",
"327 467 LINE",
"16 33 LINE",
"77 -18 LINE",
"149 36 LINE",
"212 45 LINE",
"508 447 LINE"
);
}
);
width = 525;
}
);
leftKerningGroup = z;
rightKerningGroup = z;
unicode = 007A;
},
{
color = 3;
glyphname = braceleft;
layers = (
{
layerId = "3A083A2A-974B-4791-8355-BC872DC0CF17";
name = Regular;
paths = (
{
closed = 1;
nodes = (
"443 -36 LINE",
"329 -24 LINE",
"341 149 LINE SMOOTH",
"346 202 OFFCURVE",
"325 252 OFFCURVE",
"285 295 CURVE",
"285 304 LINE",
"325 346 OFFCURVE",
"346 397 OFFCURVE",
"341 449 CURVE SMOOTH",
"329 620 LINE",
"446 620 LINE",
"440 729 LINE",
"239 715 OFFCURVE",
"157 622 OFFCURVE",
"157 543 CURVE SMOOTH",
"157 443 LINE SMOOTH",
"157 374 OFFCURVE",
"150 333 OFFCURVE",
"70 327 CURVE",
"64 268 LINE",
"152 262 OFFCURVE",
"157 223 OFFCURVE",
"157 142 CURVE SMOOTH",
"157 28 LINE SMOOTH",
"157 -42 OFFCURVE",
"253 -135 OFFCURVE",
"433 -145 CURVE"
);
}
);
width = 529;
}
);
unicode = 007B;
},
{
color = 3;
glyphname = bar;
layers = (
{
layerId = "3A083A2A-974B-4791-8355-BC872DC0CF17";
name = Regular;
paths = (
{
closed = 1;
nodes = (
"225 -225 LINE",
"224 735 LINE",
"96 735 LINE",
"96 -225 LINE"
);
}
);
width = 323;
}
);
unicode = 007C;
},
{
color = 3;
glyphname = braceright;
layers = (
{
layerId = "3A083A2A-974B-4791-8355-BC872DC0CF17";
name = Regular;
paths = (
{
closed = 1;
nodes = (
"277 -135 OFFCURVE",
"373 -42 OFFCURVE",
"373 28 CURVE SMOOTH",
"373 142 LINE SMOOTH",
"373 223 OFFCURVE",
"378 262 OFFCURVE",
"466 268 CURVE",
"460 327 LINE",
"380 333 OFFCURVE",
"373 374 OFFCURVE",
"373 443 CURVE SMOOTH",
"373 543 LINE SMOOTH",
"373 622 OFFCURVE",
"291 715 OFFCURVE",
"90 729 CURVE",
"84 620 LINE",
"201 620 LINE",
"189 449 LINE SMOOTH",
"185 397 OFFCURVE",
"207 346 OFFCURVE",
"245 304 CURVE",
"245 295 LINE",
"207 252 OFFCURVE",
"185 202 OFFCURVE",
"189 149 CURVE SMOOTH",
"201 -24 LINE",
"87 -36 LINE",
"97 -145 LINE"
);
}
);
width = 532;
}
);
unicode = 007D;
},
{
color = 3;
glyphname = cent;
layers = (
{
components = (
{
name = c;
transform = "{1, 0, 0, 0.938, 0, 19}";
}
);
layerId = "3A083A2A-974B-4791-8355-BC872DC0CF17";
name = Regular;
paths = (
{
closed = 1;
nodes = (
"216 465 LINE",
"314 465 LINE",
"314 599 LINE",
"216 599 LINE"
);
},
{
closed = 1;
nodes = (
"216 -117 LINE",
"314 -117 LINE",
"314 17 LINE",
"216 17 LINE"
);
}
);
width = 475;
}
);
leftMetricsKey = c;
rightMetricsKey = c;
unicode = 00A2;
},
{
color = 3;
glyphname = sterling;
layers = (
{
layerId = "3A083A2A-974B-4791-8355-BC872DC0CF17";
name = Regular;
paths = (
{
closed = 1;
nodes = (
"162 670 OFFCURVE",
"71 559 OFFCURVE",
"71 461 CURVE SMOOTH",
"71 335 OFFCURVE",
"220 218 OFFCURVE",
"52 0 CURVE",
"155 0 LINE",
"391 192 OFFCURVE",
"254 363 OFFCURVE",
"254 488 CURVE SMOOTH",
"254 522 OFFCURVE",
"263 555 OFFCURVE",
"297 576 CURVE",
"365 568 OFFCURVE",
"420 547 OFFCURVE",
"474 492 CURVE",
"534 621 LINE",
"481 648 OFFCURVE",
"403 670 OFFCURVE",
"330 670 CURVE SMOOTH"
);
},
{
closed = 1;
nodes = (
"78 69 OFFCURVE",
"45 52 OFFCURVE",
"16 32 CURVE",
"22 0 LINE",
"116 0 LINE",
"115 85 LINE"
);
},
{
closed = 1;
nodes = (
"232 96 LINE",
"126 0 LINE",
"553 0 LINE",
"536 115 LINE"
);
},
{
closed = 1;
nodes = (
"425 302 LINE",
"419 337 LINE",
"258 337 LINE",
"221 321 LINE",
"61 321 LINE",
"18 281 LINE",
"24 246 LINE",
"206 246 LINE",
"243 262 LINE",
"382 262 LINE"
);
},
{
closed = 1;
nodes = (
"534 482 OFFCURVE",
"538 578 OFFCURVE",
"534 621 CURVE",
"345 611 LINE",
"433 429 LINE",
"521 429 LINE"
);
},
{
closed = 1;
nodes = (
"465 231 LINE",
"370 16 LINE",
"552 0 LINE",
"559 47 OFFCURVE",
"556 169 OFFCURVE",
"547 224 CURVE"
);
}
);
width = 591;
}
);
unicode = 00A3;
},
{
color = 3;
glyphname = currency;
layers = (
{
layerId = "3A083A2A-974B-4791-8355-BC872DC0CF17";
name = Regular;
paths = (
{
closed = 1;
nodes = (
"69 247 OFFCURVE",
"147 161 OFFCURVE",
"254 161 CURVE SMOOTH",
"344 161 OFFCURVE",
"439 230 OFFCURVE",
"439 357 CURVE SMOOTH",
"439 484 OFFCURVE",
"352 550 OFFCURVE",
"258 550 CURVE SMOOTH",
"164 550 OFFCURVE",
"69 475 OFFCURVE",
"69 357 CURVE SMOOTH"
);
},
{
closed = 1;
nodes = (
"293 254 OFFCURVE",
"279 253 OFFCURVE",
"271 253 CURVE SMOOTH",
"201 253 OFFCURVE",
"171 308 OFFCURVE",
"171 363 CURVE SMOOTH",
"171 400 OFFCURVE",
"185 435 OFFCURVE",
"205 453 CURVE",
"218 455 OFFCURVE",
"227 456 OFFCURVE",
"238 456 CURVE SMOOTH",
"312 456 OFFCURVE",
"337 401 OFFCURVE",
"337 348 CURVE SMOOTH",
"337 309 OFFCURVE",
"323 272 OFFCURVE",
"305 257 CURVE"
);
},
{
closed = 1;
nodes = (
"132 257 LINE",
"54 170 LINE",
"106 123 LINE",
"181 213 LINE"
);
},
{
closed = 1;
nodes = (
"330 212 LINE",
"410 125 LINE",
"460 174 LINE",
"380 261 LINE"
);
},
{
closed = 1;
nodes = (
"177 500 LINE",
"101 585 LINE",
"48 538 LINE",
"127 449 LINE"
);
},
{
closed = 1;
nodes = (
"380 448 LINE",
"462 539 LINE",
"408 584 LINE",
"333 495 LINE"
);
}
);
width = 510;
}
);
unicode = 00A4;
},
{
color = 3;
glyphname = yen;
layers = (
{
components = (
{
name = Y;
transform = "{1, 0, 0, 1, -23, 0}";
}
);
layerId = "3A083A2A-974B-4791-8355-BC872DC0CF17";
name = Regular;
paths = (
{
closed = 1;
nodes = (
"537 271 LINE",
"531 306 LINE",
"138 306 LINE",
"95 271 LINE",
"101 236 LINE",
"494 236 LINE"
);
},
{
closed = 1;
nodes = (
"537 153 LINE",
"531 188 LINE",
"138 188 LINE",
"95 152 LINE",
"101 117 LINE",
"494 117 LINE"
);
}
);
width = 663;
}
);
leftMetricsKey = y;
rightMetricsKey = Y;
unicode = 00A5;
},
{
color = 3;
glyphname = brokenbar;
layers = (
{
layerId = "3A083A2A-974B-4791-8355-BC872DC0CF17";
name = Regular;
paths = (
{
closed = 1;
nodes = (
"224 358 LINE",
"224 616 LINE",
"96 616 LINE",
"96 358 LINE"
);
},
{
closed = 1;
nodes = (
"224 -76 LINE",
"224 182 LINE",
"96 182 LINE",
"96 -76 LINE"
);
}
);
width = 322;
}
);
leftMetricsKey = bar;
rightMetricsKey = bar;
unicode = 00A6;
},
{
color = 3;
glyphname = section;
layers = (
{
layerId = "3A083A2A-974B-4791-8355-BC872DC0CF17";
name = Regular;
paths = (
{
closed = 1;
nodes = (
"472 534 OFFCURVE",
"476 594 OFFCURVE",
"472 637 CURVE",
"319 627 LINE",
"371 481 LINE",
"459 481 LINE"
);
},
{
closed = 1;
nodes = (
"383 113 LINE",
"458 146 OFFCURVE",
"500 194 OFFCURVE",
"500 258 CURVE SMOOTH",
"500 352 OFFCURVE",
"410 397 OFFCURVE",
"332 433 CURVE SMOOTH",
"262 466 OFFCURVE",
"217 484 OFFCURVE",
"217 527 CURVE SMOOTH",
"217 553 OFFCURVE",
"235 578 OFFCURVE",
"262 590 CURVE",
"326 594 OFFCURVE",
"391 571 OFFCURVE",
"430 537 CURVE",
"471 637 LINE",
"423 658 OFFCURVE",
"357 671 OFFCURVE",
"302 671 CURVE SMOOTH",
"172 671 OFFCURVE",
"73 603 OFFCURVE",
"73 503 CURVE SMOOTH",
"73 427 OFFCURVE",
"130 378 OFFCURVE",
"228 333 CURVE SMOOTH",
"293 303 OFFCURVE",
"373 278 OFFCURVE",
"373 217 CURVE SMOOTH",
"373 195 OFFCURVE",
"361 177 OFFCURVE",
"331 155 CURVE"
);
},
{
closed = 1;
nodes = (
"217 410 LINE",
"123 382 OFFCURVE",
"64 326 OFFCURVE",
"64 251 CURVE SMOOTH",
"64 165 OFFCURVE",
"143 121 OFFCURVE",
"235 78 CURVE SMOOTH",
"296 51 OFFCURVE",
"350 35 OFFCURVE",
"350 -8 CURVE SMOOTH",
"350 -26 OFFCURVE",
"339 -45 OFFCURVE",
"320 -57 CURVE",
"260 -42 OFFCURVE",
"193 -13 OFFCURVE",
"135 35 CURVE",
"67 -89 LINE",
"135 -132 OFFCURVE",
"218 -149 OFFCURVE",
"277 -149 CURVE SMOOTH",
"391 -149 OFFCURVE",
"478 -83 OFFCURVE",
"478 11 CURVE SMOOTH",
"478 88 OFFCURVE",
"420 138 OFFCURVE",
"336 175 CURVE SMOOTH",
"267 205 OFFCURVE",
"190 225 OFFCURVE",
"190 280 CURVE SMOOTH",
"190 310 OFFCURVE",
"212 334 OFFCURVE",
"244 355 CURVE"
);
}
);
width = 541;
}
);
leftMetricsKey = S;
rightMetricsKey = S;
unicode = 00A7;
},
{
color = 3;
glyphname = copyright;
layers = (
{
layerId = "3A083A2A-974B-4791-8355-BC872DC0CF17";
name = Regular;
paths = (
{
closed = 1;
nodes = (
"592 -24 OFFCURVE",
"750 132 OFFCURVE",
"750 331 CURVE SMOOTH",
"750 532 OFFCURVE",
"587 691 OFFCURVE",
"389 691 CURVE SMOOTH",
"191 691 OFFCURVE",
"33 532 OFFCURVE",
"33 332 CURVE SMOOTH",
"33 130 OFFCURVE",
"193 -24 OFFCURVE",
"392 -24 CURVE SMOOTH"
);
},
{
closed = 1;
nodes = (
"233 53 OFFCURVE",
"112 173 OFFCURVE",
"112 330 CURVE SMOOTH",
"112 489 OFFCURVE",
"238 613 OFFCURVE",
"392 613 CURVE SMOOTH",
"546 613 OFFCURVE",
"672 488 OFFCURVE",
"672 333 CURVE SMOOTH",
"672 179 OFFCURVE",
"550 53 OFFCURVE",
"389 53 CURVE SMOOTH"
);
},
{
closed = 1;
nodes = (
"540 249 LINE",
"511 239 OFFCURVE",
"489 233 OFFCURVE",
"461 233 CURVE SMOOTH",
"376 233 OFFCURVE",
"331 284 OFFCURVE",
"331 349 CURVE SMOOTH",
"331 384 OFFCURVE",
"345 429 OFFCURVE",
"374 458 CURVE",
"416 438 OFFCURVE",
"439 407 OFFCURVE",
"460 360 CURVE",
"570 420 LINE",
"533 503 OFFCURVE",
"472 529 OFFCURVE",
"405 529 CURVE SMOOTH",
"287 529 OFFCURVE",
"200 448 OFFCURVE",
"200 330 CURVE SMOOTH",
"200 200 OFFCURVE",
"306 125 OFFCURVE",
"430 136 CURVE",
"558 204 LINE"
);
}
);
width = 784;
}
);
unicode = 00A9;
},
{
color = 3;
glyphname = ordfeminine;
layers = (
{
layerId = "3A083A2A-974B-4791-8355-BC872DC0CF17";
name = Regular;
paths = (
{
closed = 1;
nodes = (
"52 435 OFFCURVE",
"38 404 OFFCURVE",
"38 378 CURVE SMOOTH",
"38 330 OFFCURVE",
"82 286 OFFCURVE",
"163 298 CURVE",
"247 355 LINE",
"237 377 LINE",
"220 372 OFFCURVE",
"184 363 OFFCURVE",
"161 362 CURVE",
"153 367 OFFCURVE",
"149 375 OFFCURVE",
"149 385 CURVE SMOOTH",
"149 412 OFFCURVE",
"184 419 OFFCURVE",
"214 417 CURVE SMOOTH",
"241 414 LINE",
"241 458 LINE",
"89 456 LINE"
);
},
{
closed = 1;
nodes = (
"54 560 OFFCURVE",
"58 519 OFFCURVE",
"65 489 CURVE",
"137 491 LINE",
"154 566 LINE",
"163 568 OFFCURVE",
"178 570 OFFCURVE",
"194 570 CURVE",
"210 563 OFFCURVE",
"225 545 OFFCURVE",
"225 507 CURVE SMOOTH",
"225 353 LINE",
"231 351 LINE",
"247 316 OFFCURVE",
"278 296 OFFCURVE",
"307 295 CURVE",
"399 347 LINE",
"396 376 LINE",
"381 375 OFFCURVE",
"372 374 OFFCURVE",
"361 374 CURVE SMOOTH",
"350 374 OFFCURVE",
"345 381 OFFCURVE",
"345 391 CURVE",
"345 510 LINE SMOOTH",
"345 547 OFFCURVE",
"344 563 OFFCURVE",
"338 575 CURVE SMOOTH",
"318 604 OFFCURVE",
"287 625 OFFCURVE",
"245 628 CURVE SMOOTH",
"190 628 OFFCURVE",
"111 614 OFFCURVE",
"56 591 CURVE"
);
},
{
closed = 1;
nodes = (
"31 255 LINE",
"31 192 LINE",
"411 192 LINE",
"411 255 LINE"
);
}
);
width = 441;
}
);
unicode = 00AA;
},
{
color = 3;
glyphname = guillemetleft;
layers = (
{
layerId = "3A083A2A-974B-4791-8355-BC872DC0CF17";
name = Regular;
paths = (
{
closed = 1;
nodes = (
"54 214 LINE",
"221 33 LINE",
"309 95 LINE",
"215 253 LINE",
"303 420 LINE",
"220 476 LINE",
"54 293 LINE"
);
},
{
closed = 1;
nodes = (
"310 214 LINE",
"477 33 LINE",
"565 95 LINE",
"471 253 LINE",
"559 420 LINE",
"476 476 LINE",
"310 293 LINE"
);
}
);
width = 619;
}
);
leftMetricsKey = guilsinglleft;
rightMetricsKey = guilsinglleft;
unicode = 00AB;
},
{
color = 3;
glyphname = logicalnot;
layers = (
{
layerId = "3A083A2A-974B-4791-8355-BC872DC0CF17";
name = Regular;
paths = (
{
closed = 1;
nodes = (
"54 278 LINE",
"54 179 LINE",
"538 179 LINE",
"538 278 LINE"
);
},
{
closed = 1;
nodes = (
"538 278 LINE",
"431 278 LINE",
"431 0 LINE",
"538 0 LINE"
);
}
);
width = 592;
}
);
leftMetricsKey = minus;
rightMetricsKey = minus;
unicode = 00AC;
},
{
color = 3;
glyphname = softhyphen;
layers = (
{
layerId = "3A083A2A-974B-4791-8355-BC872DC0CF17";
name = Regular;
paths = (
{
closed = 1;
nodes = (
"393 222 LINE",
"414 264 LINE",
"358 354 LINE",
"54 354 LINE",
"33 312 LINE",
"89 222 LINE"
);
}
);
width = 463;
}
);
unicode = 00AD;
},
{
color = 3;
glyphname = registered;
layers = (
{
layerId = "3A083A2A-974B-4791-8355-BC872DC0CF17";
name = Regular;
paths = (
{
closed = 1;
nodes = (
"561 662 OFFCURVE",
"445 776 OFFCURVE",
"289 776 CURVE SMOOTH",
"131 776 OFFCURVE",
"12 662 OFFCURVE",
"12 503 CURVE SMOOTH",
"12 349 OFFCURVE",
"124 232 OFFCURVE",
"286 232 CURVE SMOOTH",
"449 232 OFFCURVE",
"561 351 OFFCURVE",
"561 505 CURVE SMOOTH"
);
},
{
closed = 1;
nodes = (
"501 376 OFFCURVE",
"410 289 OFFCURVE",
"282 289 CURVE SMOOTH",
"158 289 OFFCURVE",
"72 371 OFFCURVE",
"72 499 CURVE SMOOTH",
"72 630 OFFCURVE",
"163 720 OFFCURVE",
"286 720 CURVE SMOOTH",
"411 720 OFFCURVE",
"501 631 OFFCURVE",
"501 503 CURVE SMOOTH"
);
},
{
closed = 1;
nodes = (
"145 643 LINE",
"145 616 LINE",
"201 609 LINE",
"201 643 LINE"
);
},
{
closed = 1;
nodes = (
"179 378 LINE",
"255 378 LINE",
"255 643 LINE",
"179 643 LINE"
);
},
{
closed = 1;
nodes = (
"320 595 OFFCURVE",
"330 577 OFFCURVE",
"330 557 CURVE SMOOTH",
"330 532 OFFCURVE",
"315 514 OFFCURVE",
"275 514 CURVE SMOOTH",
"263 514 OFFCURVE",
"251 516 OFFCURVE",
"240 518 CURVE",
"239 477 LINE",
"303 477 LINE SMOOTH",
"376 477 OFFCURVE",
"412 517 OFFCURVE",
"412 560 CURVE SMOOTH",
"412 606 OFFCURVE",
"369 643 OFFCURVE",
"294 643 CURVE",
"214 643 LINE",
"247 599 LINE",
"301 606 LINE"
);
},
{
closed = 1;
nodes = (
"181 413 OFFCURVE",
"154 403 OFFCURVE",
"141 394 CURVE",
"144 378 LINE",
"186 378 LINE",
"190 418 LINE"
);
},
{
closed = 1;
nodes = (
"230 378 LINE",
"290 378 LINE",
"291 403 LINE",
"231 411 LINE"
);
},
{
closed = 1;
nodes = (
"270 497 LINE",
"336 378 LINE",
"424 378 LINE",
"346 502 LINE"
);
},
{
closed = 1;
nodes = (
"374 378 LINE",
"435 378 LINE",
"435 403 LINE",
"375 411 LINE"
);
}
);
width = 574;
}
);
unicode = 00AE;
},
{
color = 3;
glyphname = degree;
layers = (
{
layerId = "3A083A2A-974B-4791-8355-BC872DC0CF17";
name = Regular;
paths = (
{
closed = 1;
nodes = (
"192 456 OFFCURVE",
"183 455 OFFCURVE",
"175 455 CURVE SMOOTH",
"135 455 OFFCURVE",
"116 489 OFFCURVE",
"116 522 CURVE SMOOTH",
"116 540 OFFCURVE",
"122 558 OFFCURVE",
"132 571 CURVE",
"142 576 OFFCURVE",
"152 578 OFFCURVE",
"162 578 CURVE SMOOTH",
"199 578 OFFCURVE",
"219 543 OFFCURVE",
"219 509 CURVE SMOOTH",
"219 490 OFFCURVE",
"213 472 OFFCURVE",
"201 459 CURVE"
);
},
{
closed = 1;
nodes = (
"30 434 OFFCURVE",
"96 379 OFFCURVE",
"172 379 CURVE SMOOTH",
"252 379 OFFCURVE",
"309 433 OFFCURVE",
"309 517 CURVE SMOOTH",
"309 596 OFFCURVE",
"248 657 OFFCURVE",
"168 657 CURVE SMOOTH",
"90 657 OFFCURVE",
"30 596 OFFCURVE",
"30 517 CURVE SMOOTH"
);
}
);
width = 369;
}
);
unicode = 00B0;
},
{
color = 3;
glyphname = plusminus;
layers = (
{
layerId = "3A083A2A-974B-4791-8355-BC872DC0CF17";
name = Regular;
paths = (
{
closed = 1;
nodes = (
"330 434 LINE",
"330 610 LINE",
"223 610 LINE",
"223 434 LINE",
"54 434 LINE",
"54 337 LINE",
"223 337 LINE",
"223 160 LINE",
"330 160 LINE",
"330 337 LINE",
"500 337 LINE",
"500 434 LINE"
);
},
{
closed = 1;
nodes = (
"56 97 LINE",
"56 0 LINE",
"495 0 LINE",
"495 97 LINE"
);
}
);
width = 554;
}
);
leftMetricsKey = minus;
rightMetricsKey = minus;
unicode = 00B1;
},
{
color = 3;
glyphname = twosuperior;
layers = (
{
layerId = "3A083A2A-974B-4791-8355-BC872DC0CF17";
name = Regular;
paths = (
{
closed = 1;
nodes = (
"100 603 LINE",
"134 708 LINE",
"31 710 LINE",
"28 685 OFFCURVE",
"35 627 OFFCURVE",
"41 603 CURVE"
);
},
{
closed = 1;
nodes = (
"46 418 LINE",
"279 418 LINE",
"295 516 LINE",
"158 485 LINE",
"154 492 LINE",
"238 545 OFFCURVE",
"283 597 OFFCURVE",
"283 648 CURVE SMOOTH",
"283 703 OFFCURVE",
"234 751 OFFCURVE",
"157 751 CURVE SMOOTH",
"115 751 OFFCURVE",
"69 737 OFFCURVE",
"31 710 CURVE",
"83 690 LINE",
"98 698 OFFCURVE",
"116 702 OFFCURVE",
"128 702 CURVE SMOOTH",
"157 702 OFFCURVE",
"179 678 OFFCURVE",
"179 647 CURVE SMOOTH",
"179 620 OFFCURVE",
"160 588 OFFCURVE",
"101 533 CURVE SMOOTH",
"27 467 LINE"
);
}
);
width = 322;
}
);
unicode = 00B2;
},
{
color = 3;
glyphname = threesuperior;
layers = (
{
layerId = "3A083A2A-974B-4791-8355-BC872DC0CF17";
name = Regular;
paths = (
{
closed = 1;
nodes = (
"149 724 LINE",
"42 718 LINE",
"40 695 OFFCURVE",
"43 647 OFFCURVE",
"49 623 CURVE",
"99 623 LINE"
);
},
{
closed = 1;
nodes = (
"108 594 LINE",
"112 545 LINE",
"236 583 LINE",
"236 587 LINE",
"271 601 OFFCURVE",
"286 631 OFFCURVE",
"286 658 CURVE SMOOTH",
"286 707 OFFCURVE",
"237 751 OFFCURVE",
"164 751 CURVE SMOOTH",
"121 751 OFFCURVE",
"69 736 OFFCURVE",
"42 718 CURVE",
"61 683 LINE",
"81 696 OFFCURVE",
"110 700 OFFCURVE",
"127 700 CURVE SMOOTH",
"164 700 OFFCURVE",
"187 677 OFFCURVE",
"187 648 CURVE SMOOTH",
"187 624 OFFCURVE",
"169 594 OFFCURVE",
"119 594 CURVE SMOOTH"
);
},
{
closed = 1;
nodes = (
"30 435 LINE",
"70 416 OFFCURVE",
"120 408 OFFCURVE",
"159 408 CURVE SMOOTH",
"232 408 OFFCURVE",
"302 438 OFFCURVE",
"302 504 CURVE SMOOTH",
"302 558 OFFCURVE",
"254 594 OFFCURVE",
"201 586 CURVE",
"205 596 LINE",
"109 594 LINE",
"102 594 LINE",
"104 544 LINE",
"137 544 LINE SMOOTH",
"176 544 OFFCURVE",
"196 521 OFFCURVE",
"196 497 CURVE SMOOTH",
"196 483 OFFCURVE",
"189 468 OFFCURVE",
"172 460 CURVE",
"138 472 OFFCURVE",
"92 501 OFFCURVE",
"54 531 CURVE"
);
}
);
width = 331;
}
);
unicode = 00B3;
},
{
color = 3;
glyphname = foursuperior;
layers = (
{
layerId = "3A083A2A-974B-4791-8355-BC872DC0CF17";
name = Regular;
paths = (
{
closed = 1;
nodes = (
"76 526 LINE",
"199 696 LINE",
"220 692 LINE",
"205 739 LINE",
"167 751 LINE",
"-2 537 LINE",
"19 489 LINE",
"292 489 LINE",
"310 510 LINE",
"310 547 LINE",
"54 544 LINE"
);
},
{
closed = 1;
nodes = (
"155 418 LINE",
"253 418 LINE",
"253 736 LINE",
"166 751 LINE",
"175 689 LINE",
"155 582 LINE"
);
},
{
closed = 1;
nodes = (
"290 418 LINE",
"290 447 LINE",
"229 460 LINE",
"227 418 LINE"
);
},
{
closed = 1;
nodes = (
"165 418 LINE",
"165 465 LINE",
"140 459 OFFCURVE",
"107 446 OFFCURVE",
"87 433 CURVE",
"90 418 LINE"
);
}
);
width = 330;
}
);
unicode = 2074;
},
{
color = 3;
glyphname = micro;
layers = (
{
layerId = "3A083A2A-974B-4791-8355-BC872DC0CF17";
name = Regular;
paths = (
{
closed = 1;
nodes = (
"571 100 OFFCURVE",
"557 98 OFFCURVE",
"542 98 CURVE SMOOTH",
"526 98 OFFCURVE",
"517 108 OFFCURVE",
"517 122 CURVE",
"517 493 LINE",
"455 494 OFFCURVE",
"377 481 OFFCURVE",
"344 473 CURVE",
"344 78 LINE",
"358 73 LINE",
"381 21 OFFCURVE",
"426 -16 OFFCURVE",
"466 -17 CURVE",
"599 57 LINE",
"593 101 LINE"
);
},
{
closed = 1;
nodes = (
"49 -227 LINE",
"115 -244 OFFCURVE",
"204 -215 OFFCURVE",
"226 -189 CURVE",
"139 29 LINE",
"161 3 OFFCURVE",
"183 -13 OFFCURVE",
"205 -14 CURVE",
"272 9 OFFCURVE",
"367 62 OFFCURVE",
"451 146 CURVE",
"446 173 LINE",
"397 138 OFFCURVE",
"342 105 OFFCURVE",
"294 103 CURVE SMOOTH",
"247 101 OFFCURVE",
"221 127 OFFCURVE",
"221 186 CURVE SMOOTH",
"221 493 LINE",
"159 494 OFFCURVE",
"81 481 OFFCURVE",
"48 473 CURVE"
);
},
{
closed = 1;
nodes = (
"112 19 LINE",
"176 19 LINE",
"176 54 LINE",
"112 54 LINE"
);
}
);
width = 603;
}
);
rightMetricsKey = u;
unicode = 00B5;
},
{
color = 3;
glyphname = paragraph;
layers = (
{
layerId = "3A083A2A-974B-4791-8355-BC872DC0CF17";
name = Regular;
paths = (
{
closed = 1;
nodes = (
"326 690 LINE",
"97 704 OFFCURVE",
"0 586 OFFCURVE",
"0 473 CURVE SMOOTH",
"0 379 OFFCURVE",
"68 286 OFFCURVE",
"181 253 CURVE",
"219 290 LINE",
"194 332 OFFCURVE",
"180 371 OFFCURVE",
"180 417 CURVE SMOOTH",
"180 533 OFFCURVE",
"269 599 OFFCURVE",
"383 592 CURVE SMOOTH",
"660 577 LINE",
"667 646 LINE"
);
},
{
closed = 1;
nodes = (
"308 -165 LINE",
"308 -84 LINE",
"308 -84 OFFCURVE",
"226 -101 OFFCURVE",
"178 -123 CURVE",
"184 -165 LINE"
);
},
{
closed = 1;
nodes = (
"662 -165 LINE",
"663 -114 LINE",
"525 -98 LINE",
"522 -165 LINE"
);
},
{
closed = 1;
nodes = (
"288 -166 LINE",
"397 -166 LINE",
"397 609 LINE",
"288 609 LINE"
);
},
{
closed = 1;
nodes = (
"471 -166 LINE",
"580 -166 LINE",
"580 609 LINE",
"471 609 LINE"
);
}
);
width = 693;
}
);
rightMetricsKey = l;
unicode = 00B6;
},
{
color = 3;
glyphname = periodcentered;
layers = (
{
layerId = "3A083A2A-974B-4791-8355-BC872DC0CF17";
name = Regular;
paths = (
{
closed = 1;
nodes = (
"174 205 OFFCURVE",
"209 251 OFFCURVE",
"224 290 CURVE",
"203 318 OFFCURVE",
"158 359 OFFCURVE",
"119 375 CURVE",
"85 356 OFFCURVE",
"51 310 OFFCURVE",
"30 267 CURVE",
"53 235 OFFCURVE",
"105 196 OFFCURVE",
"140 182 CURVE"
);
}
);
width = 282;
}
);
unicode = 00B7;
},
{
color = 3;
glyphname = onesuperior;
layers = (
{
layerId = "3A083A2A-974B-4791-8355-BC872DC0CF17";
name = Regular;
paths = (
{
closed = 1;
nodes = (
"154 676 LINE",
"162 723 LINE",
"152 745 LINE",
"12 667 LINE",
"31 629 LINE"
);
},
{
closed = 1;
nodes = (
"196 716 LINE",
"150 745 LINE",
"145 706 LINE"
);
},
{
closed = 1;
nodes = (
"90 418 LINE",
"197 418 LINE",
"197 716 LINE",
"90 706 LINE"
);
},
{
closed = 1;
nodes = (
"99 418 LINE",
"99 467 LINE",
"75 462 OFFCURVE",
"41 446 OFFCURVE",
"25 433 CURVE",
"28 418 LINE"
);
},
{
closed = 1;
nodes = (
"253 418 LINE",
"253 446 LINE",
"186 465 LINE",
"184 418 LINE"
);
}
);
width = 272;
}
);
unicode = 00B9;
},
{
color = 3;
glyphname = ordmasculine;
layers = (
{
layerId = "3A083A2A-974B-4791-8355-BC872DC0CF17";
name = Regular;
paths = (
{
closed = 1;
nodes = (
"30 351 OFFCURVE",
"111 285 OFFCURVE",
"204 285 CURVE SMOOTH",
"293 285 OFFCURVE",
"375 345 OFFCURVE",
"375 455 CURVE SMOOTH",
"375 565 OFFCURVE",
"294 631 OFFCURVE",
"206 631 CURVE SMOOTH",
"122 631 OFFCURVE",
"30 570 OFFCURVE",
"30 457 CURVE SMOOTH"
);
},
{
closed = 1;
nodes = (
"225 356 OFFCURVE",
"220 355 OFFCURVE",
"213 355 CURVE SMOOTH",
"174 355 OFFCURVE",
"154 389 OFFCURVE",
"154 457 CURVE SMOOTH",
"154 503 OFFCURVE",
"164 541 OFFCURVE",
"177 549 CURVE",
"183 551 OFFCURVE",
"188 553 OFFCURVE",
"196 553 CURVE SMOOTH",
"236 553 OFFCURVE",
"252 506 OFFCURVE",
"252 441 CURVE SMOOTH",
"252 389 OFFCURVE",
"239 361 OFFCURVE",
"231 356 CURVE"
);
},
{
closed = 1;
nodes = (
"17 255 LINE",
"17 192 LINE",
"391 192 LINE",
"391 255 LINE"
);
}
);
width = 435;
}
);
unicode = 00BA;
},
{
color = 3;
glyphname = guillemetright;
layers = (
{
layerId = "3A083A2A-974B-4791-8355-BC872DC0CF17";
name = Regular;
paths = (
{
closed = 1;
nodes = (
"565 293 LINE",
"400 476 LINE",
"317 420 LINE",
"405 253 LINE",
"310 95 LINE",
"398 33 LINE",
"565 214 LINE"
);
},
{
closed = 1;
nodes = (
"309 293 LINE",
"144 476 LINE",
"61 420 LINE",
"149 253 LINE",
"54 95 LINE",
"142 33 LINE",
"309 214 LINE"
);
}
);
width = 619;
}
);
leftMetricsKey = "=|";
rightMetricsKey = "=|guillemetleft";
unicode = 00BB;
},
{
color = 3;
glyphname = AE;
layers = (
{
anchors = (
{
name = top;
position = "{539, 650}";
}
);
layerId = "3A083A2A-974B-4791-8355-BC872DC0CF17";
name = Regular;
paths = (
{
closed = 1;
nodes = (
"290 662 LINE",
"289 609 LINE",
"411 591 LINE",
"472 662 LINE"
);
},
{
closed = 1;
nodes = (
"918 662 LINE",
"507 662 LINE",
"582 573 LINE",
"904 554 LINE"
);
},
{
closed = 1;
nodes = (
"390 653 LINE",
"50 0 LINE",
"168 0 LINE",
"485 628 LINE"
);
},
{
closed = 1;
nodes = (
"439 662 LINE",
"439 0 LINE",
"614 0 LINE",
"614 662 LINE"
);
},
{
closed = 1;
nodes = (
"218 256 LINE",
"218 172 LINE",
"541 172 LINE",
"541 256 LINE"
);
},
{
closed = 1;
nodes = (
"74 75 OFFCURVE",
"25 54 OFFCURVE",
"-2 34 CURVE",
"4 0 LINE",
"98 0 LINE",
"97 87 LINE"
);
},
{
closed = 1;
nodes = (
"144 0 LINE",
"284 0 LINE",
"285 53 LINE",
"147 75 LINE"
);
},
{
closed = 1;
nodes = (
"430 75 OFFCURVE",
"381 54 OFFCURVE",
"354 34 CURVE",
"360 0 LINE",
"454 0 LINE",
"453 87 LINE"
);
},
{
closed = 1;
nodes = (
"588 96 LINE",
"513 0 LINE",
"900 0 LINE",
"904 115 LINE"
);
},
{
closed = 1;
nodes = (
"589 368 LINE",
"589 290 LINE",
"829 280 LINE",
"829 388 LINE"
);
},
{
closed = 1;
nodes = (
"759 16 LINE",
"912 0 LINE",
"920 59 OFFCURVE",
"926 151 OFFCURVE",
"924 208 CURVE",
"825 216 LINE"
);
},
{
closed = 1;
nodes = (
"900 460 LINE",
"914 527 OFFCURVE",
"921 619 OFFCURVE",
"918 662 CURVE",
"767 644 LINE",
"800 460 LINE"
);
}
);
width = 964;
}
);
leftKerningGroup = A;
leftMetricsKey = A;
rightKerningGroup = E;
rightMetricsKey = E;
unicode = 00C6;
},
{
color = 3;
glyphname = multiply;
layers = (
{
layerId = "3A083A2A-974B-4791-8355-BC872DC0CF17";
name = Regular;
paths = (
{
closed = 1;
nodes = (
"281 311 LINE",
"135 461 LINE",
"60 389 LINE",
"207 238 LINE",
"62 90 LINE",
"134 19 LINE",
"278 168 LINE",
"423 18 LINE",
"497 92 LINE",
"350 240 LINE",
"497 390 LINE",
"424 460 LINE"
);
}
);
width = 557;
}
);
unicode = 00D7;
},
{
color = 3;
glyphname = Oslash;
layers = (
{
components = (
{
name = O;
}
);
layerId = "3A083A2A-974B-4791-8355-BC872DC0CF17";
name = Regular;
paths = (
{
closed = 1;
nodes = (
"176 -90 LINE",
"612 703 LINE",
"537 746 LINE",
"101 -49 LINE"
);
}
);
width = 708;
}
);
leftKerningGroup = O;
leftMetricsKey = O;
rightKerningGroup = O;
rightMetricsKey = O;
unicode = 00D8;
},
{
color = 3;
glyphname = Thorn;
layers = (
{
layerId = "3A083A2A-974B-4791-8355-BC872DC0CF17";
name = Regular;
paths = (
{
closed = 1;
nodes = (
"36 650 LINE",
"35 597 LINE",
"173 575 LINE",
"176 650 LINE"
);
},
{
closed = 1;
nodes = (
"276 650 LINE",
"277 564 LINE",
"300 576 OFFCURVE",
"349 597 OFFCURVE",
"376 617 CURVE",
"370 650 LINE"
);
},
{
closed = 1;
nodes = (
"295 0 LINE",
"295 650 LINE",
"114 650 LINE",
"114 0 LINE"
);
},
{
closed = 1;
nodes = (
"127 0 LINE",
"126 87 LINE",
"103 75 OFFCURVE",
"54 54 OFFCURVE",
"27 34 CURVE",
"33 0 LINE"
);
},
{
closed = 1;
nodes = (
"385 0 LINE",
"386 53 LINE",
"248 75 LINE",
"245 0 LINE"
);
},
{
closed = 1;
nodes = (
"543 145 OFFCURVE",
"624 236 OFFCURVE",
"624 331 CURVE SMOOTH",
"624 426 OFFCURVE",
"542 524 OFFCURVE",
"377 524 CURVE SMOOTH",
"185 524 LINE",
"276 416 LINE",
"389 432 LINE",
"428 405 OFFCURVE",
"446 366 OFFCURVE",
"446 328 CURVE SMOOTH",
"446 274 OFFCURVE",
"410 228 OFFCURVE",
"336 228 CURVE SMOOTH",
"307 228 OFFCURVE",
"283 235 OFFCURVE",
"258 246 CURVE",
"255 143 LINE",
"381 144 LINE SMOOTH"
);
}
);
width = 644;
}
);
leftKerningGroup = I;
leftMetricsKey = I;
rightMetricsKey = P;
unicode = 00DE;
},
{
color = 3;
glyphname = germandbls;
layers = (
{
layerId = "3A083A2A-974B-4791-8355-BC872DC0CF17";
name = Regular;
paths = (
{
closed = 1;
nodes = (
"238 687 OFFCURVE",
"82 640 OFFCURVE",
"82 478 CURVE SMOOTH",
"82 0 LINE",
"254 0 LINE",
"254 436 LINE",
"248 567 LINE",
"278 585 OFFCURVE",
"323 588 OFFCURVE",
"349 582 CURVE",
"410 510 OFFCURVE",
"354 411 OFFCURVE",
"305 339 CURVE",
"317 222 OFFCURVE",
"467 210 OFFCURVE",
"467 130 CURVE SMOOTH",
"467 116 OFFCURVE",
"461 102 OFFCURVE",
"449 88 CURVE",
"408 97 OFFCURVE",
"365 125 OFFCURVE",
"335 152 CURVE",
"294 8 LINE",
"340 -8 OFFCURVE",
"394 -18 OFFCURVE",
"439 -18 CURVE SMOOTH",
"547 -18 OFFCURVE",
"631 39 OFFCURVE",
"631 137 CURVE SMOOTH",
"631 272 OFFCURVE",
"470 306 OFFCURVE",
"453 374 CURVE",
"512 418 OFFCURVE",
"537 462 OFFCURVE",
"537 510 CURVE SMOOTH",
"537 601 OFFCURVE",
"446 687 OFFCURVE",
"317 687 CURVE SMOOTH"
);
},
{
closed = 1;
nodes = (
"190 356 LINE",
"203 425 LINE",
"136 485 LINE",
"86 468 OFFCURVE",
"40 444 OFFCURVE",
"0 409 CURVE",
"2 354 LINE"
);
},
{
closed = 1;
nodes = (
"124 0 LINE",
"134 83 LINE",
"96 74 OFFCURVE",
"48 57 OFFCURVE",
"10 35 CURVE",
"12 0 LINE"
);
}
);
width = 647;
}
);
leftKerningGroup = f;
leftMetricsKey = f;
unicode = 00DF;
},
{
color = 3;
glyphname = ae;
layers = (
{
anchors = (
{
name = bottom;
position = "{210, 0}";
},
{
name = ogonek;
position = "{282, 20}";
},
{
name = top;
position = "{210, 188}";
}
);
layerId = "3A083A2A-974B-4791-8355-BC872DC0CF17";
name = Regular;
paths = (
{
closed = 1;
nodes = (
"55 392 OFFCURVE",
"59 341 OFFCURVE",
"72 295 CURVE",
"176 292 LINE",
"200 402 LINE",
"214 408 OFFCURVE",
"237 412 OFFCURVE",
"256 413 CURVE",
"281 401 OFFCURVE",
"301 377 OFFCURVE",
"302 314 CURVE SMOOTH",
"303 199 LINE",
"409 157 LINE",
"445 415 LINE",
"419 455 OFFCURVE",
"379 496 OFFCURVE",
"334 498 CURVE SMOOTH",
"257 498 OFFCURVE",
"146 474 OFFCURVE",
"61 441 CURVE"
);
},
{
closed = 1;
nodes = (
"54 203 OFFCURVE",
"30 155 OFFCURVE",
"30 114 CURVE SMOOTH",
"30 46 OFFCURVE",
"96 -31 OFFCURVE",
"216 -13 CURVE",
"369 72 LINE",
"356 120 LINE",
"330 111 OFFCURVE",
"256 85 OFFCURVE",
"218 82 CURVE",
"206 93 OFFCURVE",
"201 111 OFFCURVE",
"201 125 CURVE SMOOTH",
"201 167 OFFCURVE",
"255 176 OFFCURVE",
"304 175 CURVE",
"332 174 LINE",
"333 237 LINE",
"111 232 LINE"
);
},
{
closed = 1;
nodes = (
"414 231 LINE",
"713 229 LINE",
"771 287 LINE",
"688 321 LINE",
"402 303 LINE"
);
},
{
closed = 1;
nodes = (
"740 134 LINE",
"693 109 OFFCURVE",
"656 96 OFFCURVE",
"611 96 CURVE SMOOTH",
"528 96 OFFCURVE",
"464 144 OFFCURVE",
"464 256 CURVE SMOOTH",
"464 319 OFFCURVE",
"484 387 OFFCURVE",
"532 417 CURVE",
"592 414 OFFCURVE",
"631 340 OFFCURVE",
"621 273 CURVE",
"777 287 LINE",
"779 440 OFFCURVE",
"659 500 OFFCURVE",
"559 500 CURVE SMOOTH",
"502 500 OFFCURVE",
"447 479 OFFCURVE",
"403 444 CURVE",
"365 237 LINE",
"304 234 LINE",
"304 67 OFFCURVE",
"444 -35 OFFCURVE",
"608 -12 CURVE",
"765 77 LINE"
);
}
);
width = 793;
}
);
leftKerningGroup = a;
leftMetricsKey = a;
rightKerningGroup = e;
rightMetricsKey = e;
unicode = 00E6;
},
{
color = 3;
glyphname = eth;
layers = (
{
layerId = "3A083A2A-974B-4791-8355-BC872DC0CF17";
name = Regular;
paths = (
{
closed = 1;
nodes = (
"193 714 LINE",
"271 603 OFFCURVE",
"307 515 OFFCURVE",
"337 430 CURVE",
"377 421 LINE",
"339 457 OFFCURVE",
"293 477 OFFCURVE",
"239 477 CURVE SMOOTH",
"124 477 OFFCURVE",
"17 389 OFFCURVE",
"17 238 CURVE SMOOTH",
"17 70 OFFCURVE",
"148 -27 OFFCURVE",
"281 -27 CURVE SMOOTH",
"419 -27 OFFCURVE",
"530 78 OFFCURVE",
"530 257 CURVE SMOOTH",
"530 413 OFFCURVE",
"443 624 OFFCURVE",
"314 775 CURVE"
);
},
{
closed = 1;
nodes = (
"232 65 OFFCURVE",
"194 146 OFFCURVE",
"194 227 CURVE SMOOTH",
"194 291 OFFCURVE",
"217 358 OFFCURVE",
"252 387 CURVE",
"310 379 OFFCURVE",
"343 353 OFFCURVE",
"397 301 CURVE",
"337 401 LINE",
"384 294 OFFCURVE",
"372 130 OFFCURVE",
"315 68 CURVE"
);
},
{
closed = 1;
nodes = (
"505 641 LINE",
"454 740 LINE",
"147 604 LINE",
"155 564 LINE",
"222 521 LINE"
);
}
);
width = 541;
}
);
leftKerningGroup = o;
leftMetricsKey = d;
unicode = 00F0;
},
{
color = 3;
glyphname = divide;
layers = (
{
layerId = "3A083A2A-974B-4791-8355-BC872DC0CF17";
name = Regular;
paths = (
{
closed = 1;
nodes = (
"54 306 LINE",
"54 207 LINE",
"542 207 LINE",
"542 306 LINE"
);
},
{
closed = 1;
nodes = (
"376 99 OFFCURVE",
"349 139 OFFCURVE",
"294 163 CURVE",
"264 146 OFFCURVE",
"221 114 OFFCURVE",
"213 57 CURVE",
"227 31 OFFCURVE",
"255 -6 OFFCURVE",
"309 -20 CURVE",
"355 2 OFFCURVE",
"376 44 OFFCURVE",
"385 71 CURVE"
);
},
{
closed = 1;
nodes = (
"377 467 OFFCURVE",
"350 507 OFFCURVE",
"295 531 CURVE",
"265 514 OFFCURVE",
"222 481 OFFCURVE",
"214 425 CURVE",
"228 398 OFFCURVE",
"256 362 OFFCURVE",
"310 348 CURVE",
"356 370 OFFCURVE",
"377 411 OFFCURVE",
"386 438 CURVE"
);
}
);
width = 596;
}
);
leftMetricsKey = minus;
rightMetricsKey = minus;
unicode = 00F7;
},
{
color = 3;
glyphname = oslash;
layers = (
{
anchors = (
{
name = top;
position = "{261, 468}";
}
);
layerId = "3A083A2A-974B-4791-8355-BC872DC0CF17";
name = Regular;
paths = (
{
closed = 1;
nodes = (
"113 -88 LINE",
"499 482 LINE",
"411 539 LINE",
"27 -28 LINE"
);
},
{
closed = 1;
nodes = (
"11 77 OFFCURVE",
"133 -20 OFFCURVE",
"266 -20 CURVE SMOOTH",
"397 -20 OFFCURVE",
"511 72 OFFCURVE",
"511 238 CURVE SMOOTH",
"511 408 OFFCURVE",
"392 500 OFFCURVE",
"262 500 CURVE SMOOTH",
"131 500 OFFCURVE",
"11 408 OFFCURVE",
"11 243 CURVE SMOOTH"
);
},
{
closed = 1;
nodes = (
"288 71 OFFCURVE",
"280 70 OFFCURVE",
"271 70 CURVE SMOOTH",
"210 70 OFFCURVE",
"186 147 OFFCURVE",
"186 241 CURVE SMOOTH",
"186 307 OFFCURVE",
"196 365 OFFCURVE",
"216 393 CURVE",
"225 400 OFFCURVE",
"240 404 OFFCURVE",
"255 404 CURVE SMOOTH",
"314 404 OFFCURVE",
"336 324 OFFCURVE",
"336 227 CURVE SMOOTH",
"336 160 OFFCURVE",
"328 97 OFFCURVE",
"299 75 CURVE"
);
}
);
width = 536;
}
);
leftKerningGroup = o;
leftMetricsKey = o;
rightKerningGroup = o;
rightMetricsKey = o;
unicode = 00F8;
},
{
color = 3;
glyphname = thorn;
layers = (
{
layerId = "3A083A2A-974B-4791-8355-BC872DC0CF17";
name = Regular;
paths = (
{
closed = 1;
nodes = (
"-19 649 LINE",
"110 615 LINE",
"185 666 LINE",
"187 737 LINE",
"112 733 OFFCURVE",
"39 720 OFFCURVE",
"-23 697 CURVE"
);
},
{
closed = 1;
nodes = (
"187 737 LINE",
"67 684 LINE",
"67 14 LINE",
"241 42 LINE",
"241 687 LINE"
);
},
{
closed = 1;
nodes = (
"66 -202 LINE",
"239 -202 LINE",
"239 444 LINE",
"185 492 LINE",
"66 440 LINE"
);
},
{
closed = 1;
nodes = (
"114 -202 LINE",
"124 -119 LINE",
"86 -134 OFFCURVE",
"38 -151 OFFCURVE",
"0 -167 CURVE",
"2 -202 LINE"
);
},
{
closed = 1;
nodes = (
"331 -202 LINE",
"333 -153 LINE",
"296 -133 OFFCURVE",
"252 -115 OFFCURVE",
"210 -99 CURVE",
"185 -202 LINE"
);
},
{
closed = 1;
nodes = (
"185 330 LINE",
"224 354 OFFCURVE",
"258 373 OFFCURVE",
"291 373 CURVE SMOOTH",
"353 373 OFFCURVE",
"390 307 OFFCURVE",
"390 232 CURVE SMOOTH",
"390 172 OFFCURVE",
"368 110 OFFCURVE",
"329 76 CURVE",
"258 66 OFFCURVE",
"201 93 OFFCURVE",
"165 137 CURVE",
"68 20 LINE",
"138 -4 OFFCURVE",
"214 -18 OFFCURVE",
"277 -18 CURVE SMOOTH",
"473 -18 OFFCURVE",
"568 118 OFFCURVE",
"568 262 CURVE SMOOTH",
"568 396 OFFCURVE",
"486 514 OFFCURVE",
"348 491 CURVE",
"176 366 LINE"
);
}
);
width = 585;
}
);
leftKerningGroup = b;
leftMetricsKey = b;
rightKerningGroup = o;
rightMetricsKey = p;
unicode = 00FE;
},
{
color = 3;
glyphname = Dcroat;
layers = (
{
components = (
{
name = D;
}
);
layerId = "3A083A2A-974B-4791-8355-BC872DC0CF17";
name = Regular;
paths = (
{
closed = 1;
nodes = (
"424 311 LINE",
"418 346 LINE",
"56 346 LINE",
"13 303 LINE",
"19 268 LINE",
"381 268 LINE"
);
}
);
width = 756;
}
);
leftKerningGroup = I;
rightKerningGroup = O;
rightMetricsKey = D;
unicode = 0110;
},
{
color = 3;
glyphname = dcroat;
layers = (
{
components = (
{
name = d;
}
);
layerId = "3A083A2A-974B-4791-8355-BC872DC0CF17";
name = Regular;
paths = (
{
closed = 1;
nodes = (
"599 568 LINE",
"593 603 LINE",
"261 603 LINE",
"218 567 LINE",
"224 532 LINE",
"556 532 LINE"
);
}
);
width = 606;
}
);
leftKerningGroup = o;
leftMetricsKey = d;
rightKerningGroup = l;
unicode = 0111;
},
{
color = 3;
glyphname = eogonek;
layers = (
{
components = (
{
name = e;
}
);
layerId = "3A083A2A-974B-4791-8355-BC872DC0CF17";
name = Regular;
paths = (
{
closed = 1;
nodes = (
"422 80 LINE",
"263 35 OFFCURVE",
"180 -46 OFFCURVE",
"180 -121 CURVE SMOOTH",
"180 -185 OFFCURVE",
"240 -244 OFFCURVE",
"330 -234 CURVE",
"456 -167 LINE",
"432 -117 LINE",
"353 -162 OFFCURVE",
"299 -140 OFFCURVE",
"299 -88 CURVE SMOOTH",
"299 -36 OFFCURVE",
"354 6 OFFCURVE",
"431 52 CURVE SMOOTH",
"472 77 LINE"
);
}
);
width = 515;
}
);
leftKerningGroup = o;
leftMetricsKey = e;
rightKerningGroup = e;
unicode = 0119;
},
{
color = 3;
glyphname = Imacron;
layers = (
{
components = (
{
name = I;
transform = "{1, 0, 0, 1, 6, 0}";
}
);
layerId = "3A083A2A-974B-4791-8355-BC872DC0CF17";
name = Regular;
paths = (
{
closed = 1;
nodes = (
"115 831 OFFCURVE",
"72 826 OFFCURVE",
"33 806 CURVE",
"39 732 LINE",
"347 732 LINE",
"394 778 LINE",
"389 831 LINE",
"146 831 LINE"
);
}
);
width = 421;
}
);
leftKerningGroup = I;
leftMetricsKey = I;
rightKerningGroup = I;
rightMetricsKey = I;
unicode = 012A;
},
{
color = 3;
glyphname = imacron;
layers = (
{
components = (
{
name = dotlessi;
transform = "{1, 0, 0, 1, 10, 0}";
}
);
layerId = "3A083A2A-974B-4791-8355-BC872DC0CF17";
name = Regular;
paths = (
{
closed = 1;
nodes = (
"95 668 OFFCURVE",
"52 662 OFFCURVE",
"13 643 CURVE",
"19 569 LINE",
"291 569 LINE",
"338 615 LINE",
"333 668 LINE",
"126 668 LINE"
);
}
);
width = 354;
}
);
leftKerningGroup = n;
leftMetricsKey = i;
rightKerningGroup = i;
rightMetricsKey = i;
unicode = 012B;
},
{
color = 3;
glyphname = dotlessi;
layers = (
{
anchors = (
{
name = ogonek;
position = "{318, 10}";
},
{
name = top;
position = "{159, 468}";
}
);
layerId = "3A083A2A-974B-4791-8355-BC872DC0CF17";
name = Regular;
paths = (
{
closed = 1;
nodes = (
"129 385 LINE",
"205 422 LINE",
"205 492 LINE",
"135 490 OFFCURVE",
"65 477 OFFCURVE",
"7 455 CURVE",
"12 407 LINE"
);
},
{
closed = 1;
nodes = (
"86 0 LINE",
"259 0 LINE",
"259 444 LINE",
"205 492 LINE",
"86 440 LINE"
);
},
{
closed = 1;
nodes = (
"315 0 LINE",
"317 49 LINE",
"280 75 OFFCURVE",
"236 93 OFFCURVE",
"194 103 CURVE",
"169 0 LINE"
);
},
{
closed = 1;
nodes = (
"126 0 LINE",
"136 83 LINE",
"98 74 OFFCURVE",
"50 57 OFFCURVE",
"12 35 CURVE",
"14 0 LINE"
);
}
);
width = 331;
}
);
leftKerningGroup = n;
leftMetricsKey = i;
rightKerningGroup = i;
rightMetricsKey = i;
unicode = 0131;
},
{
color = 3;
glyphname = Lslash;
layers = (
{
components = (
{
name = L;
transform = "{1, 0, 0, 1, 18, 0}";
}
);
layerId = "3A083A2A-974B-4791-8355-BC872DC0CF17";
name = Regular;
paths = (
{
closed = 1;
nodes = (
"27 277 LINE",
"56 216 LINE",
"421 386 LINE",
"436 438 LINE",
"420 462 LINE"
);
}
);
width = 635;
}
);
leftKerningGroup = I;
leftMetricsKey = L;
rightKerningGroup = L;
rightMetricsKey = L;
unicode = 0141;
},
{
color = 3;
glyphname = lslash;
layers = (
{
components = (
{
name = l;
transform = "{1, 0, 0, 1, 23, 0}";
}
);
layerId = "3A083A2A-974B-4791-8355-BC872DC0CF17";
name = Regular;
paths = (
{
closed = 1;
nodes = (
"6 325 LINE",
"41 258 LINE",
"374 426 LINE",
"374 482 LINE",
"348 498 LINE"
);
}
);
width = 432;
}
);
leftKerningGroup = l;
leftMetricsKey = l;
rightKerningGroup = l;
unicode = 0142;
},
{
color = 3;
glyphname = OE;
layers = (
{
layerId = "3A083A2A-974B-4791-8355-BC872DC0CF17";
name = Regular;
paths = (
{
closed = 1;
nodes = (
"505 134 LINE",
"485 99 OFFCURVE",
"431 80 OFFCURVE",
"384 80 CURVE SMOOTH",
"265 80 OFFCURVE",
"212 205 OFFCURVE",
"212 337 CURVE SMOOTH",
"212 434 OFFCURVE",
"241 527 OFFCURVE",
"291 568 CURVE",
"315 577 OFFCURVE",
"340 580 OFFCURVE",
"367 580 CURVE SMOOTH",
"419 580 OFFCURVE",
"480 566 OFFCURVE",
"504 521 CURVE",
"549 639 LINE",
"500 666 OFFCURVE",
"443 680 OFFCURVE",
"383 680 CURVE SMOOTH",
"205 680 OFFCURVE",
"31 559 OFFCURVE",
"31 331 CURVE SMOOTH",
"31 91 OFFCURVE",
"209 -16 OFFCURVE",
"376 -16 CURVE SMOOTH",
"438 -16 OFFCURVE",
"501 -5 OFFCURVE",
"554 29 CURVE"
);
},
{
closed = 1;
nodes = (
"638 0 LINE",
"638 662 LINE",
"457 662 LINE",
"457 0 LINE"
);
},
{
closed = 1;
nodes = (
"920 554 LINE",
"945 662 LINE",
"523 662 LINE",
"598 573 LINE"
);
},
{
closed = 1;
nodes = (
"604 96 LINE",
"527 0 LINE",
"940 0 LINE",
"926 115 LINE"
);
},
{
closed = 1;
nodes = (
"786 16 LINE",
"939 0 LINE",
"947 59 OFFCURVE",
"953 151 OFFCURVE",
"951 208 CURVE",
"852 216 LINE"
);
},
{
closed = 1;
nodes = (
"927 460 LINE",
"941 527 OFFCURVE",
"948 619 OFFCURVE",
"945 662 CURVE",
"794 644 LINE",
"827 460 LINE"
);
},
{
closed = 1;
nodes = (
"605 368 LINE",
"605 290 LINE",
"845 280 LINE",
"845 388 LINE"
);
}
);
width = 980;
}
);
leftKerningGroup = O;
leftMetricsKey = O;
rightKerningGroup = E;
rightMetricsKey = E;
unicode = 0152;
},
{
color = 3;
glyphname = oe;
layers = (
{
anchors = (
{
name = bottom;
position = "{603, 0}";
},
{
name = ogonek;
position = "{805, 26}";
},
{
name = top;
position = "{600, 468}";
}
);
layerId = "3A083A2A-974B-4791-8355-BC872DC0CF17";
name = Regular;
paths = (
{
closed = 1;
nodes = (
"288 71 OFFCURVE",
"280 70 OFFCURVE",
"271 70 CURVE SMOOTH",
"210 70 OFFCURVE",
"186 147 OFFCURVE",
"186 240 CURVE SMOOTH",
"186 307 OFFCURVE",
"196 365 OFFCURVE",
"216 393 CURVE",
"225 400 OFFCURVE",
"240 404 OFFCURVE",
"254 404 CURVE SMOOTH",
"314 404 OFFCURVE",
"336 324 OFFCURVE",
"336 227 CURVE SMOOTH",
"336 160 OFFCURVE",
"328 97 OFFCURVE",
"299 75 CURVE"
);
},
{
closed = 1;
nodes = (
"452 411 LINE",
"405 470 OFFCURVE",
"336 500 OFFCURVE",
"262 500 CURVE SMOOTH",
"131 500 OFFCURVE",
"11 408 OFFCURVE",
"11 243 CURVE SMOOTH",
"11 77 OFFCURVE",
"133 -20 OFFCURVE",
"266 -20 CURVE SMOOTH",
"338 -20 OFFCURVE",
"407 9 OFFCURVE",
"452 65 CURVE"
);
},
{
closed = 1;
nodes = (
"381 101 LINE",
"434 22 OFFCURVE",
"530 -28 OFFCURVE",
"644 -12 CURVE",
"800 77 LINE",
"776 134 LINE",
"728 109 OFFCURVE",
"692 96 OFFCURVE",
"647 96 CURVE SMOOTH",
"559 96 OFFCURVE",
"497 148 OFFCURVE",
"497 250 CURVE SMOOTH",
"497 314 OFFCURVE",
"521 387 OFFCURVE",
"567 417 CURVE",
"627 414 OFFCURVE",
"666 340 OFFCURVE",
"656 273 CURVE",
"813 287 LINE",
"814 440 OFFCURVE",
"694 500 OFFCURVE",
"595 500 CURVE SMOOTH",
"508 500 OFFCURVE",
"428 454 OFFCURVE",
"381 380 CURVE"
);
},
{
closed = 1;
nodes = (
"456 231 LINE",
"755 229 LINE",
"813 287 LINE",
"730 321 LINE",
"444 303 LINE"
);
}
);
width = 829;
}
);
leftKerningGroup = o;
leftMetricsKey = o;
rightKerningGroup = e;
rightMetricsKey = e;
unicode = 0153;
},
{
color = 3;
glyphname = pi;
layers = (
{
layerId = "3A083A2A-974B-4791-8355-BC872DC0CF17";
name = Regular;
paths = (
{
closed = 1;
nodes = (
"120 462 OFFCURVE",
"55 408 OFFCURVE",
"30 374 CURVE",
"66 320 LINE",
"161 385 LINE",
"709 354 LINE",
"748 383 LINE",
"744 473 LINE",
"159 473 LINE"
);
},
{
closed = 1;
nodes = (
"653 0 LINE",
"613 442 LINE",
"469 439 LINE",
"473 33 LINE",
"525 -2 LINE"
);
},
{
closed = 1;
nodes = (
"106 -8 OFFCURVE",
"167 -18 OFFCURVE",
"209 -18 CURVE SMOOTH",
"349 -18 OFFCURVE",
"374 88 OFFCURVE",
"378 231 CURVE SMOOTH",
"385 448 LINE",
"217 450 LINE",
"207 194 LINE SMOOTH",
"205 142 OFFCURVE",
"203 83 OFFCURVE",
"191 63 CURVE",
"157 88 OFFCURVE",
"123 116 OFFCURVE",
"93 143 CURVE",
"42 17 LINE"
);
}
);
width = 772;
}
);
unicode = 03C0;
},
{
color = 3;
glyphname = endash;
layers = (
{
layerId = "3A083A2A-974B-4791-8355-BC872DC0CF17";
name = Regular;
paths = (
{
closed = 1;
nodes = (
"118 320 OFFCURVE",
"75 313 OFFCURVE",
"36 293 CURVE",
"42 218 LINE",
"480 218 LINE",
"527 269 LINE",
"523 320 LINE",
"149 320 LINE"
);
}
);
width = 577;
}
);
leftMetricsKey = hyphen;
rightMetricsKey = hyphen;
unicode = 2013;
},
{
color = 3;
glyphname = emdash;
layers = (
{
layerId = "3A083A2A-974B-4791-8355-BC872DC0CF17";
name = Regular;
paths = (
{
closed = 1;
nodes = (
"118 320 OFFCURVE",
"75 313 OFFCURVE",
"36 293 CURVE",
"42 218 LINE",
"932 218 LINE",
"979 269 LINE",
"974 320 LINE",
"149 320 LINE"
);
}
);
width = 1029;
}
);
leftMetricsKey = hyphen;
rightMetricsKey = hyphen;
unicode = 2014;
},
{
color = 3;
glyphname = quoteleft;
layers = (
{
layerId = "3A083A2A-974B-4791-8355-BC872DC0CF17";
name = Regular;
paths = (
{
closed = 1;
nodes = (
"179 755 LINE",
"88 712 OFFCURVE",
"24 636 OFFCURVE",
"24 561 CURVE SMOOTH",
"24 523 OFFCURVE",
"42 471 OFFCURVE",
"115 443 CURVE",
"160 456 OFFCURVE",
"198 504 OFFCURVE",
"206 543 CURVE",
"149 595 LINE",
"157 641 OFFCURVE",
"181 677 OFFCURVE",
"217 708 CURVE"
);
}
);
width = 257;
}
);
unicode = 2018;
},
{
color = 3;
glyphname = quoteright;
layers = (
{
layerId = "3A083A2A-974B-4791-8355-BC872DC0CF17";
name = Regular;
paths = (
{
closed = 1;
nodes = (
"78 443 LINE",
"169 486 OFFCURVE",
"233 562 OFFCURVE",
"233 636 CURVE SMOOTH",
"233 673 OFFCURVE",
"215 728 OFFCURVE",
"143 755 CURVE",
"97 743 OFFCURVE",
"59 694 OFFCURVE",
"51 656 CURVE",
"108 604 LINE",
"101 558 OFFCURVE",
"76 520 OFFCURVE",
"40 490 CURVE"
);
}
);
width = 257;
}
);
unicode = 2019;
},
{
color = 3;
glyphname = dagger;
layers = (
{
layerId = "3A083A2A-974B-4791-8355-BC872DC0CF17";
name = Regular;
paths = (
{
closed = 1;
nodes = (
"185 645 LINE",
"215 -180 LINE",
"336 -180 LINE",
"376 685 LINE",
"225 689 LINE"
);
},
{
closed = 1;
nodes = (
"529 434 LINE",
"523 469 LINE",
"81 469 LINE",
"38 412 LINE",
"44 377 LINE",
"486 377 LINE"
);
}
);
width = 567;
}
);
unicode = 2020;
},
{
color = 3;
glyphname = daggerdbl;
layers = (
{
layerId = "3A083A2A-974B-4791-8355-BC872DC0CF17";
name = Regular;
paths = (
{
closed = 1;
nodes = (
"189 645 LINE",
"219 -180 LINE",
"340 -180 LINE",
"380 685 LINE",
"229 689 LINE"
);
},
{
closed = 1;
nodes = (
"533 434 LINE",
"527 469 LINE",
"85 469 LINE",
"42 412 LINE",
"48 377 LINE",
"490 377 LINE"
);
},
{
closed = 1;
nodes = (
"529 191 LINE",
"523 226 LINE",
"81 226 LINE",
"38 170 LINE",
"44 135 LINE",
"486 135 LINE"
);
}
);
width = 571;
}
);
leftMetricsKey = dagger;
rightMetricsKey = dagger;
unicode = 2021;
},
{
color = 3;
glyphname = bullet;
layers = (
{
layerId = "3A083A2A-974B-4791-8355-BC872DC0CF17";
name = Regular;
paths = (
{
closed = 1;
nodes = (
"334 328 OFFCURVE",
"273 384 OFFCURVE",
"199 415 CURVE",
"125 374 OFFCURVE",
"72 315 OFFCURVE",
"58 229 CURVE",
"92 164 OFFCURVE",
"147 120 OFFCURVE",
"224 95 CURVE",
"294 130 OFFCURVE",
"338 185 OFFCURVE",
"359 254 CURVE"
);
}
);
width = 417;
}
);
unicode = 2022;
},
{
color = 3;
glyphname = ellipsis;
layers = (
{
layerId = "3A083A2A-974B-4791-8355-BC872DC0CF17";
name = Regular;
paths = (
{
closed = 1;
nodes = (
"275 127 OFFCURVE",
"235 162 OFFCURVE",
"187 183 CURVE",
"139 158 OFFCURVE",
"105 119 OFFCURVE",
"97 66 CURVE",
"119 24 OFFCURVE",
"154 -4 OFFCURVE",
"202 -20 CURVE",
"245 3 OFFCURVE",
"274 37 OFFCURVE",
"287 82 CURVE"
);
},
{
closed = 1;
nodes = (
"581 127 OFFCURVE",
"541 162 OFFCURVE",
"493 183 CURVE",
"445 158 OFFCURVE",
"411 119 OFFCURVE",
"403 66 CURVE",
"425 24 OFFCURVE",
"460 -4 OFFCURVE",
"508 -20 CURVE",
"551 3 OFFCURVE",
"580 37 OFFCURVE",
"593 82 CURVE"
);
},
{
closed = 1;
nodes = (
"887 127 OFFCURVE",
"847 162 OFFCURVE",
"799 183 CURVE",
"751 158 OFFCURVE",
"717 119 OFFCURVE",
"709 66 CURVE",
"731 24 OFFCURVE",
"766 -4 OFFCURVE",
"814 -20 CURVE",
"857 3 OFFCURVE",
"886 37 OFFCURVE",
"899 82 CURVE"
);
}
);
width = 939;
}
);
leftMetricsKey = period;
rightMetricsKey = period;
unicode = 2026;
},
{
color = 3;
glyphname = perthousand;
layers = (
{
layerId = "3A083A2A-974B-4791-8355-BC872DC0CF17";
name = Regular;
paths = (
{
closed = 1;
nodes = (
"232 -38 LINE",
"641 538 LINE",
"571 591 LINE",
"163 17 LINE"
);
},
{
closed = 1;
nodes = (
"227 354 OFFCURVE",
"221 353 OFFCURVE",
"214 353 CURVE SMOOTH",
"166 353 OFFCURVE",
"144 406 OFFCURVE",
"144 448 CURVE SMOOTH",
"144 471 OFFCURVE",
"152 493 OFFCURVE",
"165 510 CURVE",
"174 513 OFFCURVE",
"182 515 OFFCURVE",
"189 515 CURVE SMOOTH",
"229 515 OFFCURVE",
"257 473 OFFCURVE",
"257 423 CURVE SMOOTH",
"257 401 OFFCURVE",
"252 375 OFFCURVE",
"233 355 CURVE"
);
},
{
closed = 1;
nodes = (
"42 340 OFFCURVE",
"117 265 OFFCURVE",
"205 265 CURVE SMOOTH",
"296 265 OFFCURVE",
"361 339 OFFCURVE",
"361 435 CURVE SMOOTH",
"361 524 OFFCURVE",
"290 607 OFFCURVE",
"200 607 CURVE SMOOTH",
"112 607 OFFCURVE",
"42 524 OFFCURVE",
"42 435 CURVE SMOOTH"
);
},
{
closed = 1;
nodes = (
"654 66 OFFCURVE",
"649 65 OFFCURVE",
"643 65 CURVE SMOOTH",
"597 65 OFFCURVE",
"571 112 OFFCURVE",
"571 158 CURVE SMOOTH",
"571 178 OFFCURVE",
"576 203 OFFCURVE",
"592 222 CURVE",
"601 226 OFFCURVE",
"609 228 OFFCURVE",
"616 228 CURVE SMOOTH",
"657 228 OFFCURVE",
"684 181 OFFCURVE",
"684 135 CURVE SMOOTH",
"684 112 OFFCURVE",
"679 87 OFFCURVE",
"660 67 CURVE"
);
},
{
closed = 1;
nodes = (
"469 52 OFFCURVE",
"544 -23 OFFCURVE",
"632 -23 CURVE SMOOTH",
"723 -23 OFFCURVE",
"788 51 OFFCURVE",
"788 147 CURVE SMOOTH",
"788 236 OFFCURVE",
"717 319 OFFCURVE",
"627 319 CURVE SMOOTH",
"539 319 OFFCURVE",
"469 236 OFFCURVE",
"469 147 CURVE SMOOTH"
);
},
{
closed = 1;
nodes = (
"1018 66 OFFCURVE",
"1013 65 OFFCURVE",
"1007 65 CURVE SMOOTH",
"961 65 OFFCURVE",
"935 112 OFFCURVE",
"935 158 CURVE SMOOTH",
"935 177 OFFCURVE",
"940 203 OFFCURVE",
"956 222 CURVE",
"965 226 OFFCURVE",
"973 228 OFFCURVE",
"980 228 CURVE SMOOTH",
"1021 228 OFFCURVE",
"1048 181 OFFCURVE",
"1048 135 CURVE SMOOTH",
"1048 113 OFFCURVE",
"1043 87 OFFCURVE",
"1024 67 CURVE"
);
},
{
closed = 1;
nodes = (
"833 52 OFFCURVE",
"908 -23 OFFCURVE",
"996 -23 CURVE SMOOTH",
"1087 -23 OFFCURVE",
"1152 51 OFFCURVE",
"1152 147 CURVE SMOOTH",
"1152 236 OFFCURVE",
"1081 319 OFFCURVE",
"991 319 CURVE SMOOTH",
"903 319 OFFCURVE",
"833 236 OFFCURVE",
"833 147 CURVE SMOOTH"
);
}
);
width = 1195;
}
);
leftMetricsKey = percent;
rightMetricsKey = percent;
unicode = 2030;
},
{
color = 3;
glyphname = guilsinglleft;
layers = (
{
layerId = "3A083A2A-974B-4791-8355-BC872DC0CF17";
name = Regular;
paths = (
{
closed = 1;
nodes = (
"54 214 LINE",
"221 33 LINE",
"309 95 LINE",
"211 253 LINE",
"303 420 LINE",
"220 476 LINE",
"54 293 LINE"
);
}
);
width = 363;
}
);
unicode = 2039;
},
{
color = 3;
glyphname = guilsinglright;
layers = (
{
layerId = "3A083A2A-974B-4791-8355-BC872DC0CF17";
name = Regular;
paths = (
{
closed = 1;
nodes = (
"144 476 LINE",
"61 420 LINE",
"153 253 LINE",
"54 95 LINE",
"142 33 LINE",
"309 214 LINE",
"309 293 LINE"
);
}
);
width = 363;
}
);
leftMetricsKey = "=|";
rightMetricsKey = "=|guilsinglleft";
unicode = 203A;
},
{
color = 3;
glyphname = fraction;
layers = (
{
layerId = "3A083A2A-974B-4791-8355-BC872DC0CF17";
name = Regular;
paths = (
{
closed = 1;
nodes = (
"-145 13 LINE",
"441 626 LINE",
"377 690 LINE",
"-211 75 LINE"
);
}
);
width = 184;
}
);
unicode = 2044;
},
{
color = 3;
glyphname = euro;
layers = (
{
anchors = (
{
name = bottom;
position = "{418, 0}";
},
{
name = top;
position = "{418, 650}";
}
);
layerId = "3A083A2A-974B-4791-8355-BC872DC0CF17";
name = Regular;
paths = (
{
closed = 1;
nodes = (
"605 132 LINE",
"459 93 LINE",
"316 103 OFFCURVE",
"260 193 OFFCURVE",
"260 323 CURVE SMOOTH",
"260 428 OFFCURVE",
"297 517 OFFCURVE",
"361 568 CURVE",
"437 574 OFFCURVE",
"511 547 OFFCURVE",
"584 486 CURVE",
"634 608 LINE",
"583 647 OFFCURVE",
"510 670 OFFCURVE",
"429 670 CURVE SMOOTH",
"196 670 OFFCURVE",
"85 485 OFFCURVE",
"85 311 CURVE SMOOTH",
"85 156 OFFCURVE",
"173 -27 OFFCURVE",
"447 -22 CURVE",
"632 53 LINE"
);
},
{
closed = 1;
nodes = (
"600 449 LINE",
"615 490 OFFCURVE",
"627 545 OFFCURVE",
"635 608 CURVE",
"493 603 LINE",
"519 449 LINE"
);
},
{
closed = 1;
nodes = (
"573 382 LINE",
"567 407 LINE",
"37 407 LINE",
"-2 361 LINE",
"4 336 LINE",
"534 336 LINE"
);
},
{
closed = 1;
nodes = (
"533 247 LINE",
"527 272 LINE",
"14 272 LINE",
"-26 226 LINE",
"-20 201 LINE",
"494 201 LINE"
);
}
);
width = 650;
}
);
rightMetricsKey = C;
unicode = 20AC;
},
{
color = 3;
glyphname = ruble;
layers = (
{
layerId = "3A083A2A-974B-4791-8355-BC872DC0CF17";
name = Regular;
paths = (
{
closed = 1;
nodes = (
"40 662 LINE",
"283 571 LINE",
"418 584 LINE",
"453 561 OFFCURVE",
"471 494 OFFCURVE",
"471 444 CURVE SMOOTH",
"471 379 OFFCURVE",
"438 320 OFFCURVE",
"361 320 CURVE SMOOTH",
"269 320 LINE",
"266 233 LINE",
"394 233 LINE SMOOTH",
"551 233 OFFCURVE",
"654 328 OFFCURVE",
"654 447 CURVE SMOOTH",
"654 561 OFFCURVE",
"562 672 OFFCURVE",
"385 670 CURVE SMOOTH"
);
},
{
closed = 1;
nodes = (
"96 69 OFFCURVE",
"63 52 OFFCURVE",
"34 32 CURVE",
"40 0 LINE",
"134 0 LINE",
"133 85 LINE"
);
},
{
closed = 1;
nodes = (
"275 0 LINE",
"415 0 LINE",
"416 53 LINE",
"278 75 LINE"
);
},
{
closed = 1;
nodes = (
"113 662 LINE",
"113 0 LINE",
"294 0 LINE",
"294 662 LINE"
);
},
{
closed = 1;
nodes = (
"40 662 LINE",
"39 609 LINE",
"161 591 LINE",
"162 662 LINE"
);
},
{
closed = 1;
nodes = (
"412 156 LINE",
"407 194 LINE",
"70 194 LINE",
"27 156 LINE",
"33 121 LINE",
"370 121 LINE"
);
},
{
closed = 1;
nodes = (
"413 275 LINE",
"407 317 LINE",
"70 317 LINE",
"27 274 LINE",
"33 239 LINE",
"370 239 LINE"
);
}
);
width = 674;
}
);
leftKerningGroup = I;
leftMetricsKey = P;
rightMetricsKey = P;
unicode = 20BD;
},
{
color = 3;
glyphname = trademark;
layers = (
{
anchors = (
{
name = bottom;
position = "{213, 269}";
},
{
name = center;
position = "{200, 412}";
},
{
name = top;
position = "{213, 555}";
}
);
layerId = "3A083A2A-974B-4791-8355-BC872DC0CF17";
name = Regular;
paths = (
{
closed = 1;
nodes = (
"129 728 LINE",
"129 448 LINE",
"240 448 LINE",
"240 728 LINE"
);
},
{
closed = 1;
nodes = (
"116 483 OFFCURVE",
"94 473 OFFCURVE",
"81 462 CURVE",
"84 448 LINE",
"135 448 LINE",
"134 492 LINE"
);
},
{
closed = 1;
nodes = (
"220 448 LINE",
"286 448 LINE",
"287 473 LINE",
"222 485 LINE"
);
},
{
closed = 1;
nodes = (
"202 734 OFFCURVE",
"168 734 OFFCURVE",
"4 737 CURVE",
"30 682 LINE",
"184 692 LINE",
"337 682 LINE",
"364 737 LINE"
);
},
{
closed = 1;
nodes = (
"351 608 LINE",
"359 629 OFFCURVE",
"366 715 OFFCURVE",
"364 737 CURVE",
"270 730 LINE",
"291 608 LINE SMOOTH"
);
},
{
closed = 1;
nodes = (
"96 730 LINE",
"4 737 LINE",
"1 715 OFFCURVE",
"8 629 OFFCURVE",
"15 608 CURVE",
"76 608 LINE"
);
},
{
closed = 1;
nodes = (
"395 735 LINE",
"394 710 LINE",
"459 698 LINE",
"461 735 LINE"
);
},
{
closed = 1;
nodes = (
"431 735 LINE",
"419 449 LINE",
"490 449 LINE",
"495 592 LINE",
"487 680 LINE",
"558 735 LINE"
);
},
{
closed = 1;
nodes = (
"408 483 OFFCURVE",
"392 474 OFFCURVE",
"379 463 CURVE",
"382 449 LINE",
"427 449 LINE",
"427 493 LINE"
);
},
{
closed = 1;
nodes = (
"468 449 LINE",
"535 449 LINE",
"535 474 LINE SMOOTH",
"469 486 LINE"
);
},
{
closed = 1;
nodes = (
"462 715 LINE",
"571 446 LINE",
"645 456 LINE",
"646 518 LINE",
"558 735 LINE"
);
},
{
closed = 1;
nodes = (
"600 465 LINE",
"645 456 LINE",
"751 719 LINE",
"708 735 LINE"
);
},
{
closed = 1;
nodes = (
"708 735 LINE",
"723 678 LINE",
"716 589 LINE",
"724 449 LINE",
"823 449 LINE",
"811 735 LINE"
);
},
{
closed = 1;
nodes = (
"801 735 LINE",
"801 691 LINE",
"820 701 OFFCURVE",
"836 710 OFFCURVE",
"849 721 CURVE",
"846 735 LINE"
);
},
{
closed = 1;
nodes = (
"711 483 OFFCURVE",
"695 474 OFFCURVE",
"682 463 CURVE",
"685 449 LINE",
"730 449 LINE",
"730 493 LINE"
);
},
{
closed = 1;
nodes = (
"795 449 LINE",
"862 449 LINE",
"862 474 LINE",
"796 486 LINE"
);
}
);
width = 886;
}
);
leftMetricsKey = T;
rightMetricsKey = M;
unicode = 2122;
},
{
color = 3;
glyphname = Ohm;
layers = (
{
layerId = "3A083A2A-974B-4791-8355-BC872DC0CF17";
name = Regular;
paths = (
{
closed = 1;
nodes = (
"441 13 LINE",
"591 78 OFFCURVE",
"703 210 OFFCURVE",
"703 365 CURVE SMOOTH",
"703 542 OFFCURVE",
"550 670 OFFCURVE",
"372 670 CURVE SMOOTH",
"189 670 OFFCURVE",
"31 535 OFFCURVE",
"31 356 CURVE SMOOTH",
"31 198 OFFCURVE",
"149 83 OFFCURVE",
"313 18 CURVE",
"350 85 LINE",
"255 168 OFFCURVE",
"215 284 OFFCURVE",
"215 379 CURVE SMOOTH",
"215 497 OFFCURVE",
"273 583 OFFCURVE",
"375 583 CURVE SMOOTH",
"480 583 OFFCURVE",
"537 496 OFFCURVE",
"537 379 CURVE SMOOTH",
"537 287 OFFCURVE",
"500 172 OFFCURVE",
"409 81 CURVE"
);
},
{
closed = 1;
nodes = (
"245 80 OFFCURVE",
"120 60 OFFCURVE",
"60 32 CURVE",
"66 0 LINE",
"350 0 LINE",
"350 85 LINE"
);
},
{
closed = 1;
nodes = (
"409 0 LINE",
"679 0 LINE",
"680 53 LINE",
"409 81 LINE"
);
}
);
width = 734;
}
);
leftMetricsKey = O;
rightMetricsKey = O;
unicode = 2126;
},
{
color = 3;
glyphname = partialdiff;
layers = (
{
layerId = "3A083A2A-974B-4791-8355-BC872DC0CF17";
name = Regular;
paths = (
{
closed = 1;
nodes = (
"429 409 LINE",
"282 474 LINE",
"159 474 OFFCURVE",
"55 355 OFFCURVE",
"55 212 CURVE SMOOTH",
"55 73 OFFCURVE",
"148 -33 OFFCURVE",
"296 -33 CURVE SMOOTH",
"448 -33 OFFCURVE",
"556 92 OFFCURVE",
"556 290 CURVE SMOOTH",
"556 486 OFFCURVE",
"454 683 OFFCURVE",
"201 761 CURVE",
"166 684 LINE",
"313 633 OFFCURVE",
"396 476 OFFCURVE",
"396 314 CURVE SMOOTH",
"396 207 OFFCURVE",
"362 104 OFFCURVE",
"298 60 CURVE",
"239 68 OFFCURVE",
"214 128 OFFCURVE",
"216 192 CURVE SMOOTH",
"220 285 OFFCURVE",
"289 386 OFFCURVE",
"429 364 CURVE"
);
}
);
width = 600;
}
);
unicode = 2202;
},
{
color = 3;
glyphname = increment;
layers = (
{
layerId = "3A083A2A-974B-4791-8355-BC872DC0CF17";
name = Regular;
paths = (
{
closed = 1;
nodes = (
"40 35 LINE",
"46 0 LINE",
"650 0 LINE",
"691 33 LINE",
"687 71 LINE",
"95 71 LINE"
);
},
{
closed = 1;
nodes = (
"40 35 LINE",
"151 23 LINE",
"365 609 LINE",
"272 634 LINE"
);
},
{
closed = 1;
nodes = (
"271 634 LINE",
"525 0 LINE",
"685 71 LINE",
"427 674 LINE"
);
}
);
width = 725;
}
);
unicode = 2206;
},
{
color = 9;
glyphname = product;
layers = (
{
layerId = "3A083A2A-974B-4791-8355-BC872DC0CF17";
name = Regular;
paths = (
{
closed = 1;
nodes = (
"98 735 OFFCURVE",
"61 726 OFFCURVE",
"24 706 CURVE",
"36 638 LINE",
"759 638 LINE",
"803 682 LINE",
"799 735 LINE",
"129 735 LINE"
);
},
{
closed = 1;
nodes = (
"140 680 LINE",
"140 -100 LINE",
"321 -100 LINE",
"321 680 LINE"
);
},
{
closed = 1;
nodes = (
"500 680 LINE",
"500 -100 LINE",
"681 -100 LINE",
"681 680 LINE"
);
},
{
closed = 1;
nodes = (
"117 -31 OFFCURVE",
"84 -48 OFFCURVE",
"55 -68 CURVE",
"61 -100 LINE",
"155 -100 LINE",
"154 -15 LINE"
);
},
{
closed = 1;
nodes = (
"270 -100 LINE",
"410 -100 LINE",
"411 -47 LINE",
"273 -25 LINE"
);
},
{
closed = 1;
nodes = (
"631 -100 LINE",
"771 -100 LINE",
"772 -47 LINE",
"634 -25 LINE"
);
}
);
width = 827;
}
);
leftMetricsKey = H;
rightMetricsKey = H;
unicode = 220F;
},
{
color = 3;
glyphname = summation;
layers = (
{
layerId = "3A083A2A-974B-4791-8355-BC872DC0CF17";
name = Regular;
paths = (
{
closed = 1;
nodes = (
"604 735 LINE",
"30 735 LINE",
"30 663 LINE",
"267 628 LINE",
"587 615 LINE"
);
},
{
closed = 1;
nodes = (
"584 507 LINE",
"597 560 OFFCURVE",
"606 692 OFFCURVE",
"603 735 CURVE",
"413 717 LINE",
"478 507 LINE"
);
},
{
closed = 1;
nodes = (
"30 663 LINE",
"231 243 LINE",
"373 307 LINE",
"179 723 LINE"
);
},
{
closed = 1;
nodes = (
"42 -33 LINE",
"124 -87 LINE",
"373 307 LINE",
"293 365 LINE"
);
},
{
closed = 1;
nodes = (
"249 2 LINE",
"42 -34 LINE",
"42 -100 LINE",
"630 -100 LINE",
"613 15 LINE"
);
},
{
closed = 1;
nodes = (
"439 -82 LINE",
"629 -100 LINE",
"632 -57 OFFCURVE",
"623 75 OFFCURVE",
"610 129 CURVE",
"504 128 LINE"
);
}
);
width = 684;
}
);
unicode = 2211;
},
{
color = 3;
glyphname = minus;
layers = (
{
layerId = "3A083A2A-974B-4791-8355-BC872DC0CF17";
name = Regular;
paths = (
{
closed = 1;
nodes = (
"54 306 LINE",
"54 207 LINE",
"542 207 LINE",
"542 306 LINE"
);
}
);
width = 596;
}
);
unicode = 2212;
},
{
color = 3;
glyphname = bulletoperator;
layers = (
{
layerId = "3A083A2A-974B-4791-8355-BC872DC0CF17";
name = Regular;
paths = (
{
closed = 1;
nodes = (
"174 192 OFFCURVE",
"209 238 OFFCURVE",
"224 277 CURVE",
"203 305 OFFCURVE",
"158 346 OFFCURVE",
"119 362 CURVE",
"85 343 OFFCURVE",
"51 297 OFFCURVE",
"30 254 CURVE",
"53 222 OFFCURVE",
"105 183 OFFCURVE",
"140 169 CURVE"
);
}
);
width = 282;
}
);
unicode = 2219;
},
{
color = 3;
glyphname = radical;
layers = (
{
layerId = "3A083A2A-974B-4791-8355-BC872DC0CF17";
name = Regular;
paths = (
{
closed = 1;
nodes = (
"291 473 LINE",
"431 -51 LINE",
"343 -50 LINE",
"580 751 LINE",
"703 708 LINE",
"469 -78 LINE",
"431 -92 OFFCURVE",
"356 -97 OFFCURVE",
"314 -95 CURVE",
"167 399 LINE",
"251 353 LINE",
"99 254 LINE",
"36 341 LINE",
"184 473 LINE"
);
}
);
width = 775;
}
);
unicode = 221A;
},
{
color = 3;
glyphname = infinity;
layers = (
{
layerId = "3A083A2A-974B-4791-8355-BC872DC0CF17";
name = Regular;
paths = (
{
closed = 1;
nodes = (
"126 529 OFFCURVE",
"30 451 OFFCURVE",
"30 326 CURVE SMOOTH",
"30 202 OFFCURVE",
"127 142 OFFCURVE",
"206 142 CURVE SMOOTH",
"290 142 OFFCURVE",
"357 210 OFFCURVE",
"403 303 CURVE",
"361 349 LINE",
"331 300 OFFCURVE",
"291 273 OFFCURVE",
"247 273 CURVE SMOOTH",
"192 273 OFFCURVE",
"153 312 OFFCURVE",
"153 368 CURVE SMOOTH",
"153 384 OFFCURVE",
"159 396 OFFCURVE",
"167 408 CURVE",
"228 441 OFFCURVE",
"289 370 OFFCURVE",
"351 283 CURVE",
"406 213 OFFCURVE",
"464 140 OFFCURVE",
"557 140 CURVE SMOOTH",
"645 140 OFFCURVE",
"744 205 OFFCURVE",
"744 336 CURVE SMOOTH",
"744 454 OFFCURVE",
"665 528 OFFCURVE",
"580 528 CURVE SMOOTH",
"495 528 OFFCURVE",
"428 451 OFFCURVE",
"379 370 CURVE",
"416 325 LINE",
"454 374 OFFCURVE",
"509 407 OFFCURVE",
"551 407 CURVE SMOOTH",
"599 407 OFFCURVE",
"627 362 OFFCURVE",
"627 324 CURVE SMOOTH",
"627 306 OFFCURVE",
"621 285 OFFCURVE",
"608 271 CURVE",
"546 243 OFFCURVE",
"498 311 OFFCURVE",
"434 390 CURVE SMOOTH",
"380 454 OFFCURVE",
"315 529 OFFCURVE",
"221 529 CURVE SMOOTH"
);
}
);
width = 766;
}
);
unicode = 221E;
},
{
color = 3;
glyphname = integral;
layers = (
{
layerId = "3A083A2A-974B-4791-8355-BC872DC0CF17";
name = Regular;
paths = (
{
closed = 1;
nodes = (
"385 -55 OFFCURVE",
"251 -178 OFFCURVE",
"129 -178 CURVE SMOOTH",
"82 -180 OFFCURVE",
"32 -162 OFFCURVE",
"-36 -129 CURVE",
"49 22 LINE",
"87 -16 OFFCURVE",
"143 -66 OFFCURVE",
"211 -75 CURVE",
"44 481 LINE",
"44 628 OFFCURVE",
"177 750 OFFCURVE",
"300 751 CURVE SMOOTH",
"351 751 OFFCURVE",
"397 737 OFFCURVE",
"463 702 CURVE",
"378 551 LINE",
"342 588 OFFCURVE",
"286 638 OFFCURVE",
"218 647 CURVE",
"385 92 LINE"
);
}
);
width = 427;
}
);
unicode = 222B;
},
{
color = 3;
glyphname = notequal;
layers = (
{
components = (
{
name = equal;
}
);
layerId = "3A083A2A-974B-4791-8355-BC872DC0CF17";
name = Regular;
paths = (
{
closed = 1;
nodes = (
"168 -12 LINE",
"477 489 LINE",
"427 517 LINE",
"118 18 LINE"
);
}
);
width = 580;
}
);
leftMetricsKey = minus;
rightMetricsKey = minus;
unicode = 2260;
},
{
color = 3;
glyphname = lessequal;
layers = (
{
layerId = "3A083A2A-974B-4791-8355-BC872DC0CF17";
name = Regular;
paths = (
{
closed = 1;
nodes = (
"70 402 LINE",
"78 332 LINE",
"477 144 LINE",
"521 223 LINE",
"208 368 LINE",
"207 374 LINE",
"521 534 LINE",
"477 610 LINE"
);
},
{
closed = 1;
nodes = (
"54 89 LINE",
"54 0 LINE",
"542 0 LINE",
"542 89 LINE"
);
}
);
width = 596;
}
);
leftMetricsKey = minus;
rightMetricsKey = minus;
unicode = 2264;
},
{
color = 3;
glyphname = greaterequal;
layers = (
{
layerId = "3A083A2A-974B-4791-8355-BC872DC0CF17";
name = Regular;
paths = (
{
closed = 1;
nodes = (
"75 534 LINE",
"390 374 LINE",
"389 368 LINE",
"76 223 LINE",
"119 144 LINE",
"518 332 LINE",
"526 402 LINE",
"121 610 LINE"
);
},
{
closed = 1;
nodes = (
"54 0 LINE",
"542 0 LINE",
"542 89 LINE",
"54 89 LINE"
);
}
);
width = 596;
}
);
leftMetricsKey = minus;
rightMetricsKey = minus;
unicode = 2265;
},
{
color = 3;
glyphname = lozenge;
layers = (
{
layerId = "3A083A2A-974B-4791-8355-BC872DC0CF17";
name = Regular;
paths = (
{
closed = 1;
nodes = (
"138 413 LINE",
"38 368 LINE",
"240 -8 LINE",
"334 0 LINE",
"516 367 LINE",
"412 410 LINE",
"288 141 LINE",
"282 140 LINE"
);
},
{
closed = 1;
nodes = (
"416 322 LINE",
"516 367 LINE",
"314 743 LINE",
"220 735 LINE",
"38 368 LINE",
"142 325 LINE",
"267 594 LINE",
"273 595 LINE"
);
}
);
width = 554;
}
);
unicode = 25CA;
},
{
color = 3;
glyphname = f_b.liga;
layers = (
{
components = (
{
name = b;
transform = "{1, 0, 0, 1, 388, 0}";
}
);
layerId = "3A083A2A-974B-4791-8355-BC872DC0CF17";
name = Regular;
paths = (
{
closed = 1;
nodes = (
"563 737 LINE",
"295 737 LINE SMOOTH",
"181 737 OFFCURVE",
"82 656 OFFCURVE",
"82 529 CURVE SMOOTH",
"82 0 LINE",
"256 0 LINE",
"256 437 LINE",
"258 465 LINE",
"211 624 LINE",
"516 594 LINE"
);
},
{
closed = 1;
nodes = (
"196 362 LINE",
"209 431 LINE",
"142 491 LINE",
"98 468 OFFCURVE",
"52 444 OFFCURVE",
"6 415 CURVE",
"8 360 LINE SMOOTH"
);
},
{
closed = 1;
nodes = (
"202 360 LINE",
"312 360 LINE",
"363 424 LINE",
"361 473 LINE",
"202 473 LINE"
);
},
{
closed = 1;
nodes = (
"130 0 LINE",
"140 83 LINE",
"102 74 OFFCURVE",
"54 57 OFFCURVE",
"16 35 CURVE",
"18 0 LINE"
);
},
{
closed = 1;
nodes = (
"339 0 LINE",
"341 49 LINE",
"304 75 OFFCURVE",
"260 93 OFFCURVE",
"218 103 CURVE",
"193 0 LINE"
);
}
);
width = 983;
}
);
leftKerningGroup = f;
leftMetricsKey = f;
rightKerningGroup = o;
rightMetricsKey = b;
},
{
color = 3;
glyphname = f_h.liga;
layers = (
{
components = (
{
name = h;
transform = "{1, 0, 0, 1, 385, 0}";
}
);
layerId = "3A083A2A-974B-4791-8355-BC872DC0CF17";
name = Regular;
paths = (
{
closed = 1;
nodes = (
"196 362 LINE",
"209 431 LINE",
"142 491 LINE",
"98 468 OFFCURVE",
"52 444 OFFCURVE",
"6 415 CURVE",
"8 360 LINE"
);
},
{
closed = 1;
nodes = (
"130 0 LINE",
"140 83 LINE",
"102 74 OFFCURVE",
"54 57 OFFCURVE",
"16 35 CURVE",
"18 0 LINE"
);
},
{
closed = 1;
nodes = (
"339 0 LINE",
"341 49 LINE",
"304 75 OFFCURVE",
"260 93 OFFCURVE",
"218 103 CURVE",
"193 0 LINE"
);
},
{
closed = 1;
nodes = (
"202 360 LINE",
"312 360 LINE",
"363 424 LINE",
"361 473 LINE",
"202 473 LINE"
);
},
{
closed = 1;
nodes = (
"589 737 LINE",
"295 737 LINE SMOOTH",
"181 737 OFFCURVE",
"82 656 OFFCURVE",
"82 529 CURVE SMOOTH",
"82 0 LINE",
"256 0 LINE",
"256 437 LINE",
"258 465 LINE",
"211 624 LINE",
"522 594 LINE"
);
}
);
width = 1024;
}
);
leftKerningGroup = f;
leftMetricsKey = f;
rightKerningGroup = n;
rightMetricsKey = h;
},
{
color = 3;
glyphname = f_k.liga;
layers = (
{
components = (
{
name = k;
transform = "{1, 0, 0, 1, 383, 0}";
}
);
layerId = "3A083A2A-974B-4791-8355-BC872DC0CF17";
name = Regular;
paths = (
{
closed = 1;
nodes = (
"196 362 LINE",
"209 431 LINE",
"142 491 LINE",
"98 468 OFFCURVE",
"52 444 OFFCURVE",
"6 415 CURVE",
"8 360 LINE"
);
},
{
closed = 1;
nodes = (
"202 473 LINE",
"202 360 LINE",
"312 360 LINE",
"363 424 LINE",
"361 473 LINE"
);
},
{
closed = 1;
nodes = (
"130 0 LINE",
"140 83 LINE",
"102 74 OFFCURVE",
"54 57 OFFCURVE",
"16 35 CURVE",
"18 0 LINE"
);
},
{
closed = 1;
nodes = (
"339 0 LINE",
"341 49 LINE",
"304 75 OFFCURVE",
"260 93 OFFCURVE",
"218 103 CURVE",
"193 0 LINE"
);
},
{
closed = 1;
nodes = (
"588 737 LINE",
"295 737 LINE SMOOTH",
"181 737 OFFCURVE",
"82 656 OFFCURVE",
"82 529 CURVE SMOOTH",
"82 0 LINE",
"256 0 LINE",
"256 437 LINE",
"258 465 LINE",
"211 624 LINE",
"522 594 LINE"
);
}
);
width = 1016;
}
);
leftKerningGroup = f;
leftMetricsKey = f;
rightKerningGroup = k;
rightMetricsKey = k;
},
{
color = 3;
glyphname = f_l.liga;
layers = (
{
components = (
{
name = l;
transform = "{1, 0, 0, 1, 385, 0}";
}
);
layerId = "3A083A2A-974B-4791-8355-BC872DC0CF17";
name = Regular;
paths = (
{
closed = 1;
nodes = (
"196 362 LINE",
"209 431 LINE",
"142 491 LINE",
"98 468 OFFCURVE",
"52 444 OFFCURVE",
"6 415 CURVE",
"8 360 LINE"
);
},
{
closed = 1;
nodes = (
"202 473 LINE",
"202 360 LINE",
"312 360 LINE",
"363 424 LINE",
"361 473 LINE"
);
},
{
closed = 1;
nodes = (
"130 0 LINE",
"140 83 LINE",
"102 74 OFFCURVE",
"54 57 OFFCURVE",
"16 35 CURVE",
"18 0 LINE"
);
},
{
closed = 1;
nodes = (
"339 0 LINE",
"341 49 LINE",
"304 75 OFFCURVE",
"260 93 OFFCURVE",
"218 103 CURVE",
"193 0 LINE"
);
},
{
closed = 1;
nodes = (
"589 737 LINE",
"295 737 LINE SMOOTH",
"181 737 OFFCURVE",
"82 656 OFFCURVE",
"82 529 CURVE SMOOTH",
"82 0 LINE",
"256 0 LINE",
"256 437 LINE",
"258 465 LINE",
"211 624 LINE",
"522 594 LINE"
);
}
);
width = 736;
}
);
leftKerningGroup = f;
leftMetricsKey = f;
rightKerningGroup = l;
rightMetricsKey = l;
},
{
color = 3;
glyphname = acutecomb;
layers = (
{
anchors = (
{
name = _top;
position = "{0, 473}";
}
);
layerId = "3A083A2A-974B-4791-8355-BC872DC0CF17";
name = Regular;
paths = (
{
closed = 1;
nodes = (
"44 588 OFFCURVE",
"103 647 OFFCURVE",
"163 695 CURVE",
"55 790 LINE",
"-99 602 LINE",
"-12 534 LINE"
);
}
);
width = 0;
}
);
unicode = 0301;
},
{
color = 3;
glyphname = brevecomb;
layers = (
{
anchors = (
{
name = _top;
position = "{-0, 473}";
}
);
layerId = "3A083A2A-974B-4791-8355-BC872DC0CF17";
name = Regular;
paths = (
{
closed = 1;
nodes = (
"59 719 LINE",
"59 670 OFFCURVE",
"31 643 OFFCURVE",
"-3 643 CURVE SMOOTH",
"-35 643 OFFCURVE",
"-65 665 OFFCURVE",
"-70 720 CURVE",
"-168 715 LINE",
"-161 602 OFFCURVE",
"-78 550 OFFCURVE",
"4 550 CURVE SMOOTH",
"90 550 OFFCURVE",
"168 605 OFFCURVE",
"170 715 CURVE"
);
}
);
width = 0;
}
);
unicode = 0306;
},
{
color = 3;
glyphname = caroncomb;
layers = (
{
anchors = (
{
name = _top;
position = "{0, 473}";
}
);
layerId = "3A083A2A-974B-4791-8355-BC872DC0CF17";
name = Regular;
paths = (
{
closed = 1;
nodes = (
"-208 695 LINE",
"-62 541 LINE",
"63 543 LINE",
"196 712 LINE",
"122 775 LINE",
"3 633 LINE",
"-120 774 LINE"
);
}
);
width = 0;
}
);
unicode = 030C;
},
{
color = 3;
glyphname = acutecomb.case;
layers = (
{
anchors = (
{
name = _top;
position = "{1, 650}";
}
);
layerId = "3A083A2A-974B-4791-8355-BC872DC0CF17";
name = Regular;
paths = (
{
closed = 1;
nodes = (
"-93 686 LINE",
"-10 721 OFFCURVE",
"82 754 OFFCURVE",
"166 786 CURVE",
"104 910 LINE",
"-140 767 LINE"
);
}
);
width = 0;
}
);
},
{
color = 3;
glyphname = brevecomb.case;
layers = (
{
anchors = (
{
name = _top;
position = "{-1, 650}";
}
);
layerId = "3A083A2A-974B-4791-8355-BC872DC0CF17";
name = Regular;
paths = (
{
closed = 1;
nodes = (
"59 883 LINE",
"55 835 OFFCURVE",
"28 813 OFFCURVE",
"-5 813 CURVE SMOOTH",
"-36 813 OFFCURVE",
"-63 834 OFFCURVE",
"-70 885 CURVE",
"-169 879 LINE",
"-158 776 OFFCURVE",
"-84 722 OFFCURVE",
"4 722 CURVE SMOOTH",
"85 722 OFFCURVE",
"160 770 OFFCURVE",
"170 881 CURVE"
);
}
);
width = 0;
}
);
},
{
color = 3;
glyphname = caroncomb.case;
layers = (
{
anchors = (
{
name = _top;
position = "{-0, 545}";
}
);
layerId = "3A083A2A-974B-4791-8355-BC872DC0CF17";
name = Regular;
paths = (
{
closed = 1;
nodes = (
"-212 743 LINE",
"-64 606 LINE",
"54 608 LINE",
"204 755 LINE",
"136 816 LINE",
"1 696 LINE",
"-132 816 LINE"
);
}
);
width = 0;
}
);
},
{
color = 3;
glyphname = circumflexcomb.case;
layers = (
{
anchors = (
{
name = _top;
position = "{-0, 545}";
}
);
layerId = "3A083A2A-974B-4791-8355-BC872DC0CF17";
name = Regular;
paths = (
{
closed = 1;
nodes = (
"-151 599 LINE",
"0 713 LINE",
"157 599 LINE",
"216 656 LINE",
"61 821 LINE",
"-59 821 LINE",
"-213 656 LINE"
);
}
);
width = 0;
}
);
},
{
color = 3;
glyphname = gravecomb.case;
layers = (
{
anchors = (
{
name = _top;
position = "{-1, 650}";
}
);
layerId = "3A083A2A-974B-4791-8355-BC872DC0CF17";
name = Regular;
paths = (
{
closed = 1;
nodes = (
"-94 910 LINE",
"-156 786 LINE",
"-72 754 OFFCURVE",
"20 721 OFFCURVE",
"103 686 CURVE",
"150 767 LINE"
);
}
);
width = 0;
}
);
},
{
color = 3;
glyphname = hungarumlautcomb.case;
layers = (
{
anchors = (
{
name = _top;
position = "{-1, 473}";
}
);
layerId = "3A083A2A-974B-4791-8355-BC872DC0CF17";
name = Regular;
paths = (
{
closed = 1;
nodes = (
"-104 532 LINE",
"-49 577 OFFCURVE",
"12 630 OFFCURVE",
"71 673 CURVE",
"-24 757 LINE",
"-177 596 LINE"
);
},
{
closed = 1;
nodes = (
"105 518 LINE",
"160 565 OFFCURVE",
"221 616 OFFCURVE",
"279 659 CURVE",
"184 744 LINE",
"32 583 LINE"
);
}
);
width = 0;
}
);
},
{
color = 3;
glyphname = macroncomb.case;
layers = (
{
anchors = (
{
name = _top;
position = "{1, 650}";
}
);
layerId = "3A083A2A-974B-4791-8355-BC872DC0CF17";
name = Regular;
paths = (
{
closed = 1;
nodes = (
"-116 841 OFFCURVE",
"-159 836 OFFCURVE",
"-198 816 CURVE",
"-192 742 LINE",
"173 742 LINE",
"220 788 LINE",
"215 841 LINE",
"-85 841 LINE"
);
}
);
width = 0;
}
);
},
{
color = 3;
glyphname = ogonekcomb.case;
layers = (
{
anchors = (
{
name = _ogonek;
position = "{-0, 9}";
}
);
layerId = "3A083A2A-974B-4791-8355-BC872DC0CF17";
name = Regular;
paths = (
{
closed = 1;
nodes = (
"-47 31 LINE",
"-197 -14 OFFCURVE",
"-274 -91 OFFCURVE",
"-274 -163 CURVE SMOOTH",
"-274 -228 OFFCURVE",
"-214 -285 OFFCURVE",
"-123 -275 CURVE",
"3 -208 LINE",
"-21 -158 LINE",
"-100 -205 OFFCURVE",
"-155 -183 OFFCURVE",
"-155 -131 CURVE SMOOTH",
"-155 -79 OFFCURVE",
"-100 -36 OFFCURVE",
"-23 11 CURVE SMOOTH"
);
}
);
width = 0;
}
);
},
{
color = 3;
glyphname = tildecomb.case;
layers = (
{
anchors = (
{
name = _top;
position = "{-0, 650}";
}
);
layerId = "3A083A2A-974B-4791-8355-BC872DC0CF17";
name = Regular;
paths = (
{
closed = 1;
nodes = (
"-172 723 LINE",
"-138 759 OFFCURVE",
"-112 783 OFFCURVE",
"-93 783 CURVE SMOOTH",
"-57 783 OFFCURVE",
"61 701 OFFCURVE",
"112 701 CURVE SMOOTH",
"153 701 OFFCURVE",
"187 753 OFFCURVE",
"244 847 CURVE",
"199 885 LINE",
"112 814 LINE",
"6 869 OFFCURVE",
"-62 902 OFFCURVE",
"-93 902 CURVE SMOOTH",
"-132 902 OFFCURVE",
"-168 850 OFFCURVE",
"-226 763 CURVE"
);
}
);
width = 0;
}
);
},
{
color = 3;
glyphname = cedillacomb;
layers = (
{
anchors = (
{
name = _bottom;
position = "{0, 0}";
}
);
layerId = "3A083A2A-974B-4791-8355-BC872DC0CF17";
name = Regular;
paths = (
{
closed = 1;
nodes = (
"31 6 LINE",
"-36 6 LINE",
"-99 -70 LINE",
"-72 -115 LINE",
"30 -106 OFFCURVE",
"25 -196 OFFCURVE",
"-97 -237 CURVE",
"-78 -271 LINE",
"51 -269 OFFCURVE",
"121 -207 OFFCURVE",
"125 -146 CURVE SMOOTH",
"129 -101 OFFCURVE",
"76 -57 OFFCURVE",
"-5 -57 CURVE"
);
}
);
width = 0;
}
);
unicode = 0327;
},
{
color = 3;
glyphname = circumflexcomb;
layers = (
{
anchors = (
{
name = _top;
position = "{0, 473}";
}
);
layerId = "3A083A2A-974B-4791-8355-BC872DC0CF17";
name = Regular;
paths = (
{
closed = 1;
nodes = (
"-121 529 LINE",
"1 643 LINE",
"139 534 LINE",
"194 587 LINE",
"63 743 LINE",
"-52 743 LINE",
"-186 579 LINE"
);
}
);
width = 0;
}
);
unicode = 0302;
},
{
color = 3;
glyphname = commaaccentcomb;
layers = (
{
anchors = (
{
name = _bottom;
position = "{0, 0}";
}
);
layerId = "3A083A2A-974B-4791-8355-BC872DC0CF17";
name = Regular;
paths = (
{
closed = 1;
nodes = (
"-65 -148 LINE",
"-26 -176 OFFCURVE",
"-33 -227 OFFCURVE",
"-71 -277 CURVE",
"-19 -314 LINE",
"51 -271 OFFCURVE",
"148 -122 OFFCURVE",
"30 -67 CURVE",
"-67 -111 LINE"
);
}
);
width = 0;
}
);
unicode = 0326;
},
{
color = 3;
glyphname = dieresiscomb;
layers = (
{
anchors = (
{
name = _top;
position = "{0, 473}";
}
);
layerId = "3A083A2A-974B-4791-8355-BC872DC0CF17";
name = Regular;
paths = (
{
closed = 1;
nodes = (
"-44 687 OFFCURVE",
"-83 721 OFFCURVE",
"-128 739 CURVE",
"-171 716 OFFCURVE",
"-204 680 OFFCURVE",
"-211 629 CURVE",
"-190 590 OFFCURVE",
"-159 564 OFFCURVE",
"-112 549 CURVE",
"-72 570 OFFCURVE",
"-46 601 OFFCURVE",
"-32 644 CURVE"
);
},
{
closed = 1;
nodes = (
"200 687 OFFCURVE",
"160 721 OFFCURVE",
"116 739 CURVE",
"73 716 OFFCURVE",
"40 680 OFFCURVE",
"32 629 CURVE",
"53 590 OFFCURVE",
"85 564 OFFCURVE",
"131 549 CURVE",
"172 570 OFFCURVE",
"198 601 OFFCURVE",
"212 644 CURVE"
);
}
);
width = 0;
}
);
unicode = 0308;
},
{
color = 3;
glyphname = dotaccentcomb;
layers = (
{
anchors = (
{
name = _top;
position = "{0, 473}";
}
);
layerId = "3A083A2A-974B-4791-8355-BC872DC0CF17";
name = Regular;
paths = (
{
closed = 1;
nodes = (
"82 685 OFFCURVE",
"42 721 OFFCURVE",
"-3 739 CURVE",
"-46 716 OFFCURVE",
"-80 680 OFFCURVE",
"-87 629 CURVE",
"-66 589 OFFCURVE",
"-34 563 OFFCURVE",
"13 549 CURVE",
"53 570 OFFCURVE",
"79 602 OFFCURVE",
"92 644 CURVE"
);
}
);
width = 0;
}
);
unicode = 0307;
},
{
color = 3;
glyphname = dotbelowcomb;
layers = (
{
anchors = (
{
name = _bottom;
position = "{0, 0}";
}
);
layerId = "3A083A2A-974B-4791-8355-BC872DC0CF17";
name = Regular;
paths = (
{
closed = 1;
nodes = (
"82 -153 OFFCURVE",
"42 -117 OFFCURVE",
"-3 -98 CURVE",
"-46 -121 OFFCURVE",
"-80 -158 OFFCURVE",
"-87 -209 CURVE",
"-66 -248 OFFCURVE",
"-34 -274 OFFCURVE",
"13 -289 CURVE",
"53 -268 OFFCURVE",
"79 -235 OFFCURVE",
"92 -194 CURVE"
);
}
);
width = 0;
}
);
unicode = 0323;
},
{
color = 3;
glyphname = gravecomb;
layers = (
{
anchors = (
{
name = _top;
position = "{0, 473}";
}
);
layerId = "3A083A2A-974B-4791-8355-BC872DC0CF17";
name = Regular;
paths = (
{
closed = 1;
nodes = (
"100 602 LINE",
"-54 790 LINE",
"-162 695 LINE",
"-102 647 OFFCURVE",
"-43 588 OFFCURVE",
"13 534 CURVE"
);
}
);
width = 0;
}
);
unicode = 0300;
},
{
color = 3;
glyphname = hungarumlautcomb;
layers = (
{
anchors = (
{
name = _top;
position = "{0, 473}";
}
);
layerId = "3A083A2A-974B-4791-8355-BC872DC0CF17";
name = Regular;
paths = (
{
closed = 1;
nodes = (
"-104 534 LINE",
"-51 587 OFFCURVE",
"7 648 OFFCURVE",
"64 697 CURVE",
"-41 774 LINE",
"-182 592 LINE"
);
},
{
closed = 1;
nodes = (
"106 534 LINE",
"159 587 OFFCURVE",
"217 648 OFFCURVE",
"274 697 CURVE",
"169 774 LINE",
"28 592 LINE"
);
}
);
width = 0;
}
);
unicode = 030B;
},
{
color = 3;
glyphname = macronbelowcomb;
layers = (
{
anchors = (
{
name = _bottom;
position = "{0, 0}";
}
);
layerId = "3A083A2A-974B-4791-8355-BC872DC0CF17";
name = Regular;
paths = (
{
closed = 1;
nodes = (
"-109 -135 OFFCURVE",
"-152 -142 OFFCURVE",
"-191 -160 CURVE",
"-185 -234 LINE",
"146 -234 LINE",
"193 -188 LINE",
"188 -135 LINE",
"-78 -135 LINE"
);
}
);
width = 0;
}
);
unicode = 0331;
},
{
color = 3;
glyphname = macroncomb;
layers = (
{
anchors = (
{
name = _top;
position = "{1, 473}";
}
);
layerId = "3A083A2A-974B-4791-8355-BC872DC0CF17";
name = Regular;
paths = (
{
closed = 1;
nodes = (
"-84 666 OFFCURVE",
"-127 660 OFFCURVE",
"-166 641 CURVE",
"-160 567 LINE",
"151 567 LINE",
"198 613 LINE",
"193 666 LINE",
"-53 666 LINE"
);
}
);
width = 0;
}
);
unicode = 0304;
},
{
color = 3;
glyphname = ogonekcomb;
layers = (
{
anchors = (
{
name = _ogonek;
position = "{0, 9}";
}
);
layerId = "3A083A2A-974B-4791-8355-BC872DC0CF17";
name = Regular;
paths = (
{
closed = 1;
nodes = (
"-14 51 LINE",
"-164 5 OFFCURVE",
"-241 -71 OFFCURVE",
"-241 -144 CURVE SMOOTH",
"-241 -208 OFFCURVE",
"-181 -266 OFFCURVE",
"-90 -256 CURVE",
"36 -190 LINE",
"13 -139 LINE",
"-67 -185 OFFCURVE",
"-122 -163 OFFCURVE",
"-122 -111 CURVE SMOOTH",
"-122 -59 OFFCURVE",
"-67 -17 OFFCURVE",
"10 29 CURVE SMOOTH"
);
}
);
width = 0;
}
);
unicode = 0328;
},
{
color = 3;
glyphname = ringcomb;
layers = (
{
anchors = (
{
name = _top;
position = "{0, 650}";
}
);
layerId = "3A083A2A-974B-4791-8355-BC872DC0CF17";
name = Regular;
paths = (
{
closed = 1;
nodes = (
"-123 758 OFFCURVE",
"-66 710 OFFCURVE",
"4 710 CURVE SMOOTH",
"74 710 OFFCURVE",
"123 759 OFFCURVE",
"123 829 CURVE SMOOTH",
"123 903 OFFCURVE",
"69 956 OFFCURVE",
"0 956 CURVE SMOOTH",
"-71 956 OFFCURVE",
"-123 902 OFFCURVE",
"-123 832 CURVE SMOOTH"
);
},
{
closed = 1;
nodes = (
"-58 849 OFFCURVE",
"-33 874 OFFCURVE",
"1 874 CURVE SMOOTH",
"33 874 OFFCURVE",
"59 850 OFFCURVE",
"59 815 CURVE SMOOTH",
"59 781 OFFCURVE",
"35 758 OFFCURVE",
"2 758 CURVE SMOOTH",
"-30 758 OFFCURVE",
"-58 780 OFFCURVE",
"-58 816 CURVE SMOOTH"
);
}
);
width = 0;
}
);
unicode = 030A;
},
{
color = 3;
glyphname = tildecomb;
layers = (
{
anchors = (
{
name = _top;
position = "{0, 473}";
}
);
layerId = "3A083A2A-974B-4791-8355-BC872DC0CF17";
name = Regular;
paths = (
{
closed = 1;
nodes = (
"-157 550 LINE",
"-115 601 OFFCURVE",
"-91 628 OFFCURVE",
"-70 628 CURVE SMOOTH",
"-34 628 OFFCURVE",
"47 544 OFFCURVE",
"98 544 CURVE SMOOTH",
"140 544 OFFCURVE",
"187 600 OFFCURVE",
"236 696 CURVE",
"182 735 LINE",
"100 652 LINE",
"48 691 OFFCURVE",
"-35 742 OFFCURVE",
"-65 742 CURVE",
"-115 742 OFFCURVE",
"-148 705 OFFCURVE",
"-214 594 CURVE"
);
}
);
width = 0;
}
);
unicode = 0303;
},
{
color = 3;
glyphname = caroncomb.calt;
layers = (
{
anchors = (
{
name = _topright;
position = "{0, 591}";
}
);
layerId = "3A083A2A-974B-4791-8355-BC872DC0CF17";
name = Regular;
paths = (
{
closed = 1;
nodes = (
"0 652 LINE",
"54 639 OFFCURVE",
"37 567 OFFCURVE",
"-19 483 CURVE",
"35 440 LINE",
"145 529 OFFCURVE",
"201 659 OFFCURVE",
"128 757 CURVE",
"0 700 LINE"
);
}
);
width = 0;
}
);
},
{
glyphname = dvA;
lastChange = "2016-03-11 15:54:28 +0000";
layers = (
{
anchors = (
{
name = abvmBINDU;
position = "{698, 660}";
},
{
name = abvmCANDRABINDU;
position = "{679, 660}";
}
);
layerId = "3A083A2A-974B-4791-8355-BC872DC0CF17";
name = Regular;
paths = (
{
closed = 1;
nodes = (
"16 275 LINE",
"124 38 OFFCURVE",
"256 -9 OFFCURVE",
"346 -9 CURVE SMOOTH",
"470 -9 OFFCURVE",
"530 79 OFFCURVE",
"530 167 CURVE SMOOTH",
"530 237 OFFCURVE",
"491 328 OFFCURVE",
"372 382 CURVE",
"330 417 LINE",
"277 426 OFFCURVE",
"206 402 OFFCURVE",
"163 364 CURVE",
"253 229 LINE",
"394 314 LINE",
"304 295 LINE",
"375 302 OFFCURVE",
"403 252 OFFCURVE",
"403 214 CURVE SMOOTH",
"403 174 OFFCURVE",
"369 129 OFFCURVE",
"302 129 CURVE SMOOTH",
"217 129 OFFCURVE",
"154 202 OFFCURVE",
"96 326 CURVE"
);
},
{
closed = 1;
nodes = (
"178 460 LINE",
"237 517 OFFCURVE",
"309 556 OFFCURVE",
"361 551 CURVE",
"367 545 OFFCURVE",
"371 536 OFFCURVE",
"371 525 CURVE SMOOTH",
"371 478 OFFCURVE",
"321 419 OFFCURVE",
"231 391 CURVE",
"389 321 LINE",
"457 360 OFFCURVE",
"492 428 OFFCURVE",
"492 480 CURVE SMOOTH",
"492 562 OFFCURVE",
"403 668 OFFCURVE",
"288 668 CURVE SMOOTH",
"214 668 OFFCURVE",
"142 623 OFFCURVE",
"93 571 CURVE"
);
},
{
closed = 1;
nodes = (
"407 299 LINE",
"507 210 OFFCURVE",
"584 190 OFFCURVE",
"632 214 CURVE",
"639 382 LINE",
"611 326 OFFCURVE",
"492 298 OFFCURVE",
"416 377 CURVE"
);
},
{
closed = 1;
nodes = (
"894 538 LINE",
"915 580 LINE",
"859 655 LINE",
"511 655 LINE",
"490 613 LINE",
"546 538 LINE"
);
},
{
closed = 1;
nodes = (
"624 19 LINE",
"738 -43 LINE",
"784 -21 LINE",
"784 490 LINE",
"680 564 LINE",
"624 590 LINE"
);
}
);
width = 859;
}
);
unicode = 0905;
},
{
glyphname = dvI;
lastChange = "2016-03-11 15:54:28 +0000";
layers = (
{
anchors = (
{
name = abvmBINDU;
position = "{390, 660}";
},
{
name = abvmCANDRABINDU;
position = "{362, 660}";
}
);
layerId = "3A083A2A-974B-4791-8355-BC872DC0CF17";
name = Regular;
paths = (
{
closed = 1;
nodes = (
"158 17 LINE",
"334 -258 LINE",
"454 -171 LINE",
"231 17 LINE"
);
},
{
closed = 1;
nodes = (
"620 538 LINE",
"641 580 LINE",
"584 655 LINE",
"-36 655 LINE",
"-57 613 LINE",
"0 538 LINE"
);
},
{
closed = 1;
nodes = (
"346 369 LINE",
"490 353 LINE",
"490 490 LINE",
"386 564 LINE",
"346 590 LINE"
);
},
{
closed = 1;
nodes = (
"67 11 LINE",
"138 -40 OFFCURVE",
"207 -70 OFFCURVE",
"285 -70 CURVE SMOOTH",
"375 -70 OFFCURVE",
"552 -31 OFFCURVE",
"552 114 CURVE SMOOTH",
"552 194 OFFCURVE",
"497 272 OFFCURVE",
"390 311 CURVE",
"186 270 LINE",
"175 281 OFFCURVE",
"168 292 OFFCURVE",
"168 305 CURVE SMOOTH",
"168 332 OFFCURVE",
"195 353 OFFCURVE",
"237 353 CURVE SMOOTH",
"490 353 LINE",
"399 481 LINE",
"216 481 LINE SMOOTH",
"93 481 OFFCURVE",
"33 420 OFFCURVE",
"33 351 CURVE SMOOTH",
"33 266 OFFCURVE",
"126 173 OFFCURVE",
"273 131 CURVE",
"434 173 LINE",
"430 100 OFFCURVE",
"304 25 OFFCURVE",
"193 65 CURVE",
"250 36 LINE",
"176 145 LINE",
"102 146 LINE"
);
}
);
width = 585;
}
);
leftKerningGroup = Dda;
rightKerningGroup = Da;
unicode = 0907;
},
{
glyphname = dvU;
lastChange = "2016-03-11 15:54:28 +0000";
layers = (
{
anchors = (
{
name = abvmBINDU;
position = "{329, 660}";
},
{
name = abvmCANDRABINDU;
position = "{312, 660}";
}
);
layerId = "3A083A2A-974B-4791-8355-BC872DC0CF17";
name = Regular;
paths = (
{
closed = 1;
nodes = (
"262 560 LINE",
"312 534 OFFCURVE",
"333 507 OFFCURVE",
"333 474 CURVE SMOOTH",
"333 430 OFFCURVE",
"295 399 OFFCURVE",
"227 381 CURVE",
"389 303 LINE",
"453 337 OFFCURVE",
"476 390 OFFCURVE",
"476 434 CURVE SMOOTH",
"476 502 OFFCURVE",
"423 553 OFFCURVE",
"344 594 CURVE"
);
},
{
closed = 1;
nodes = (
"618 538 LINE",
"639 580 LINE",
"583 655 LINE",
"-36 655 LINE",
"-57 613 LINE",
"0 538 LINE"
);
},
{
closed = 1;
nodes = (
"-3 256 LINE",
"106 16 OFFCURVE",
"228 -44 OFFCURVE",
"333 -44 CURVE SMOOTH",
"463 -44 OFFCURVE",
"542 48 OFFCURVE",
"542 151 CURVE SMOOTH",
"542 238 OFFCURVE",
"484 330 OFFCURVE",
"369 370 CURVE",
"324 407 LINE",
"270 416 OFFCURVE",
"196 392 OFFCURVE",
"151 352 CURVE",
"245 211 LINE",
"391 299 LINE",
"298 279 LINE",
"364 285 OFFCURVE",
"398 236 OFFCURVE",
"398 192 CURVE SMOOTH",
"398 143 OFFCURVE",
"358 96 OFFCURVE",
"291 96 CURVE SMOOTH",
"201 96 OFFCURVE",
"138 180 OFFCURVE",
"81 302 CURVE"
);
}
);
width = 583;
}
);
unicode = 0909;
},
{
glyphname = dvUu;
lastChange = "2016-03-11 15:54:29 +0000";
layers = (
{
anchors = (
{
name = abvmBINDU;
position = "{384, 660}";
},
{
name = abvmCANDRABINDU;
position = "{400, 660}";
}
);
components = (
{
name = dvU;
}
);
layerId = "3A083A2A-974B-4791-8355-BC872DC0CF17";
name = Regular;
paths = (
{
closed = 1;
nodes = (
"891 538 LINE",
"912 580 LINE",
"855 655 LINE",
"380 655 LINE",
"359 613 LINE",
"415 538 LINE"
);
},
{
closed = 1;
nodes = (
"697 -4 LINE",
"786 58 OFFCURVE",
"838 129 OFFCURVE",
"838 208 CURVE SMOOTH",
"838 309 OFFCURVE",
"752 416 OFFCURVE",
"641 416 CURVE SMOOTH",
"570 416 OFFCURVE",
"504 371 OFFCURVE",
"436 286 CURVE",
"518 164 LINE",
"584 244 OFFCURVE",
"646 289 OFFCURVE",
"684 289 CURVE SMOOTH",
"705 289 OFFCURVE",
"717 276 OFFCURVE",
"717 260 CURVE SMOOTH",
"717 220 OFFCURVE",
"650 163 OFFCURVE",
"589 114 CURVE"
);
}
);
width = 855;
}
);
rightKerningGroup = Ka;
unicode = 090A;
},
{
glyphname = dvVocalicR;
lastChange = "2016-03-11 15:54:28 +0000";
layers = (
{
anchors = (
{
name = abvmBINDU;
position = "{497, 660}";
},
{
name = abvmCANDRABINDU;
position = "{504, 660}";
},
{
name = abvmTOP;
position = "{492, 473}";
},
{
name = blwmBOTTOM;
position = "{385, 1}";
}
);
components = (
{
name = dvTRa;
transform = "{1, 0, 0, 1, 4, 0}";
}
);
layerId = "3A083A2A-974B-4791-8355-BC872DC0CF17";
name = Regular;
paths = (
{
closed = 1;
nodes = (
"681 46 LINE",
"764 -41 LINE",
"879 -20 OFFCURVE",
"926 57 OFFCURVE",
"926 122 CURVE SMOOTH",
"926 196 OFFCURVE",
"866 274 OFFCURVE",
"784 355 CURVE",
"735 288 LINE",
"769 254 OFFCURVE",
"792 218 OFFCURVE",
"792 184 CURVE SMOOTH",
"792 147 OFFCURVE",
"764 112 OFFCURVE",
"690 91 CURVE"
);
},
{
closed = 1;
nodes = (
"509 171 LINE",
"538 159 OFFCURVE",
"568 154 OFFCURVE",
"597 154 CURVE SMOOTH",
"698 154 OFFCURVE",
"797 221 OFFCURVE",
"813 295 CURVE",
"759 416 LINE",
"750 341 OFFCURVE",
"687 293 OFFCURVE",
"614 293 CURVE SMOOTH",
"579 293 OFFCURVE",
"543 304 OFFCURVE",
"509 327 CURVE"
);
},
{
closed = 1;
nodes = (
"746 334 LINE",
"812 293 LINE",
"852 336 OFFCURVE",
"850 416 OFFCURVE",
"821 465 CURVE",
"673 469 LINE",
"646 418 LINE",
"756 254 LINE"
);
},
{
closed = 1;
nodes = (
"967 538 LINE",
"988 580 LINE",
"932 655 LINE",
"348 655 LINE",
"327 613 LINE",
"383 538 LINE"
);
}
);
width = 932;
}
);
unicode = 090B;
},
{
glyphname = dvVocalicR.ss06;
lastChange = "2016-03-11 15:54:28 +0000";
layers = (
{
anchors = (
{
name = abvmBINDU;
position = "{497, 660}";
},
{
name = abvmCANDRABINDU;
position = "{504, 660}";
},
{
name = abvmTOP;
position = "{492, 473}";
},
{
name = blwmBOTTOM;
position = "{385, 1}";
}
);
components = (
{
name = dvTRa;
transform = "{1, 0, 0, 1, 4, 0}";
}
);
layerId = "3A083A2A-974B-4791-8355-BC872DC0CF17";
name = Regular;
paths = (
{
closed = 1;
nodes = (
"916 137 LINE",
"792 358 LINE",
"735 291 LINE",
"818 155 LINE"
);
},
{
closed = 1;
nodes = (
"506 189 LINE",
"535 177 OFFCURVE",
"568 171 OFFCURVE",
"596 171 CURVE SMOOTH",
"697 171 OFFCURVE",
"797 239 OFFCURVE",
"813 313 CURVE",
"758 419 LINE",
"750 341 OFFCURVE",
"684 295 OFFCURVE",
"612 295 CURVE SMOOTH",
"576 295 OFFCURVE",
"539 306 OFFCURVE",
"506 329 CURVE"
);
},
{
closed = 1;
nodes = (
"746 336 LINE",
"812 296 LINE",
"852 339 OFFCURVE",
"850 418 OFFCURVE",
"821 468 CURVE",
"673 472 LINE",
"646 420 LINE",
"756 256 LINE"
);
},
{
closed = 1;
nodes = (
"976 538 LINE",
"997 580 LINE",
"941 655 LINE",
"348 655 LINE",
"327 613 LINE",
"383 538 LINE"
);
},
{
closed = 1;
nodes = (
"857 220 LINE",
"730 197 OFFCURVE",
"637 145 OFFCURVE",
"637 56 CURVE SMOOTH",
"637 -39 OFFCURVE",
"739 -131 OFFCURVE",
"846 -131 CURVE SMOOTH",
"910 -131 OFFCURVE",
"967 -99 OFFCURVE",
"1005 -59 CURVE",
"931 64 LINE",
"895 28 OFFCURVE",
"822 -9 OFFCURVE",
"784 -9 CURVE SMOOTH",
"763 -9 OFFCURVE",
"752 2 OFFCURVE",
"752 16 CURVE SMOOTH",
"752 49 OFFCURVE",
"833 75 OFFCURVE",
"892 89 CURVE",
"916 137 LINE"
);
}
);
width = 942;
}
);
},
{
glyphname = dvVocalicRr;
lastChange = "2016-03-11 15:54:29 +0000";
layers = (
{
anchors = (
{
name = abvmBINDU;
position = "{497, 660}";
},
{
name = abvmCANDRABINDU;
position = "{504, 660}";
},
{
name = abvmTOP;
position = "{492, 473}";
},
{
name = blwmBOTTOM;
position = "{385, 1}";
}
);
components = (
{
name = dvTRa;
transform = "{1, 0, 0, 1, 4, 0}";
}
);
layerId = "3A083A2A-974B-4791-8355-BC872DC0CF17";
name = Regular;
paths = (
{
closed = 1;
nodes = (
"916 144 LINE",
"792 358 LINE",
"735 291 LINE",
"836 128 LINE"
);
},
{
closed = 1;
nodes = (
"506 196 LINE",
"535 184 OFFCURVE",
"567 179 OFFCURVE",
"597 179 CURVE SMOOTH",
"697 179 OFFCURVE",
"797 239 OFFCURVE",
"813 313 CURVE",
"758 419 LINE",
"750 341 OFFCURVE",
"684 302 OFFCURVE",
"613 302 CURVE SMOOTH",
"575 302 OFFCURVE",
"539 314 OFFCURVE",
"506 337 CURVE"
);
},
{
closed = 1;
nodes = (
"746 336 LINE",
"812 296 LINE",
"852 339 OFFCURVE",
"850 418 OFFCURVE",
"821 468 CURVE",
"673 472 LINE",
"646 420 LINE",
"756 256 LINE"
);
},
{
closed = 1;
nodes = (
"991 538 LINE",
"1012 580 LINE",
"956 655 LINE",
"348 655 LINE",
"327 613 LINE",
"383 538 LINE"
);
},
{
closed = 1;
nodes = (
"915 63 LINE",
"792 38 OFFCURVE",
"703 -10 OFFCURVE",
"703 -89 CURVE SMOOTH",
"703 -171 OFFCURVE",
"796 -256 OFFCURVE",
"901 -256 CURVE SMOOTH",
"967 -256 OFFCURVE",
"1023 -224 OFFCURVE",
"1060 -185 CURVE",
"987 -70 LINE",
"956 -107 OFFCURVE",
"884 -144 OFFCURVE",
"846 -144 CURVE SMOOTH",
"828 -144 OFFCURVE",
"819 -135 OFFCURVE",
"819 -126 CURVE SMOOTH",
"819 -105 OFFCURVE",
"862 -80 OFFCURVE",
"951 -62 CURVE",
"973 -18 LINE"
);
},
{
closed = 1;
nodes = (
"766 -10 LINE",
"745 -4 OFFCURVE",
"734 7 OFFCURVE",
"734 20 CURVE SMOOTH",
"734 55 OFFCURVE",
"822 84 OFFCURVE",
"892 96 CURVE",
"916 144 LINE",
"857 219 LINE",
"733 197 OFFCURVE",
"618 155 OFFCURVE",
"618 66 CURVE SMOOTH",
"618 11 OFFCURVE",
"661 -32 OFFCURVE",
"727 -62 CURVE"
);
}
);
width = 948;
}
);
unicode = 0960;
},
{
glyphname = dvVocalicL;
lastChange = "2016-03-11 15:54:28 +0000";
layers = (
{
anchors = (
{
name = abvmBINDU;
position = "{527, 660}";
},
{
name = abvmCANDRABINDU;
position = "{478, 660}";
},
{
name = abvmTOP;
position = "{503, 473}";
},
{
name = blwmBOTTOM;
position = "{362, 1}";
}
);
layerId = "3A083A2A-974B-4791-8355-BC872DC0CF17";
name = Regular;
paths = (
{
closed = 1;
nodes = (
"404 325 LINE",
"254 455 LINE",
"235 463 OFFCURVE",
"213 467 OFFCURVE",
"192 467 CURVE SMOOTH",
"109 467 OFFCURVE",
"18 409 OFFCURVE",
"18 293 CURVE SMOOTH",
"18 179 OFFCURVE",
"105 63 OFFCURVE",
"309 -51 CURVE",
"370 31 LINE",
"256 102 OFFCURVE",
"185 158 OFFCURVE",
"185 233 CURVE SMOOTH",
"185 288 OFFCURVE",
"223 323 OFFCURVE",
"269 323 CURVE SMOOTH",
"295 323 OFFCURVE",
"324 312 OFFCURVE",
"348 290 CURVE",
"375 258 LINE"
);
},
{
closed = 1;
nodes = (
"836 538 LINE",
"857 580 LINE",
"801 655 LINE",
"-36 655 LINE",
"-57 613 LINE",
"0 538 LINE"
);
},
{
closed = 1;
nodes = (
"448 395 LINE",
"603 362 LINE",
"603 490 LINE",
"499 564 LINE",
"448 590 LINE"
);
},
{
closed = 1;
nodes = (
"714 52 LINE",
"687 -3 OFFCURVE",
"645 -67 OFFCURVE",
"605 -67 CURVE SMOOTH",
"589 -67 OFFCURVE",
"575 -56 OFFCURVE",
"575 -36 CURVE SMOOTH",
"575 15 OFFCURVE",
"733 122 OFFCURVE",
"733 257 CURVE SMOOTH",
"733 362 OFFCURVE",
"636 463 OFFCURVE",
"512 463 CURVE SMOOTH",
"393 463 OFFCURVE",
"276 371 OFFCURVE",
"286 194 CURVE",
"405 120 LINE",
"442 145 LINE",
"438 254 OFFCURVE",
"483 351 OFFCURVE",
"534 351 CURVE SMOOTH",
"569 351 OFFCURVE",
"583 323 OFFCURVE",
"583 293 CURVE SMOOTH",
"583 196 OFFCURVE",
"444 127 OFFCURVE",
"444 17 CURVE SMOOTH",
"444 -79 OFFCURVE",
"547 -181 OFFCURVE",
"654 -181 CURVE SMOOTH",
"731 -181 OFFCURVE",
"787 -128 OFFCURVE",
"824 -46 CURVE"
);
}
);
width = 801;
}
);
leftKerningGroup = La;
rightKerningGroup = LaMAR;
unicode = 090C;
},
{
glyphname = dvVocalicLl;
lastChange = "2016-03-11 15:54:28 +0000";
layers = (
{
anchors = (
{
name = abvmBINDU;
position = "{527, 660}";
},
{
name = abvmCANDRABINDU;
position = "{478, 660}";
},
{
name = abvmTOP;
position = "{503, 473}";
},
{
name = blwmBOTTOM;
position = "{362, 1}";
}
);
layerId = "3A083A2A-974B-4791-8355-BC872DC0CF17";
name = Regular;
paths = (
{
closed = 1;
nodes = (
"404 325 LINE",
"254 455 LINE",
"235 463 OFFCURVE",
"213 467 OFFCURVE",
"192 467 CURVE SMOOTH",
"109 467 OFFCURVE",
"18 409 OFFCURVE",
"18 293 CURVE SMOOTH",
"18 179 OFFCURVE",
"105 63 OFFCURVE",
"309 -51 CURVE",
"370 31 LINE",
"256 102 OFFCURVE",
"185 158 OFFCURVE",
"185 233 CURVE SMOOTH",
"185 288 OFFCURVE",
"223 323 OFFCURVE",
"269 323 CURVE SMOOTH",
"295 323 OFFCURVE",
"324 312 OFFCURVE",
"348 290 CURVE",
"375 258 LINE"
);
},
{
closed = 1;
nodes = (
"836 538 LINE",
"857 580 LINE",
"801 655 LINE",
"-36 655 LINE",
"-57 613 LINE",
"0 538 LINE"
);
},
{
closed = 1;
nodes = (
"448 395 LINE",
"603 362 LINE",
"603 490 LINE",
"499 564 LINE",
"448 590 LINE"
);
},
{
closed = 1;
nodes = (
"630 -88 LINE",
"590 -82 OFFCURVE",
"566 -67 OFFCURVE",
"566 -39 CURVE SMOOTH",
"566 13 OFFCURVE",
"733 120 OFFCURVE",
"733 257 CURVE SMOOTH",
"733 361 OFFCURVE",
"636 463 OFFCURVE",
"512 463 CURVE SMOOTH",
"393 463 OFFCURVE",
"276 371 OFFCURVE",
"286 194 CURVE",
"405 120 LINE",
"442 145 LINE",
"438 254 OFFCURVE",
"483 351 OFFCURVE",
"534 351 CURVE SMOOTH",
"569 351 OFFCURVE",
"583 323 OFFCURVE",
"583 292 CURVE SMOOTH",
"583 192 OFFCURVE",
"440 124 OFFCURVE",
"440 7 CURVE SMOOTH",
"440 -69 OFFCURVE",
"503 -134 OFFCURVE",
"595 -161 CURVE"
);
},
{
closed = 1;
nodes = (
"819 -100 LINE",
"785 -159 OFFCURVE",
"728 -195 OFFCURVE",
"701 -195 CURVE SMOOTH",
"688 -195 OFFCURVE",
"681 -186 OFFCURVE",
"681 -177 CURVE SMOOTH",
"681 -157 OFFCURVE",
"712 -124 OFFCURVE",
"787 -84 CURVE",
"796 -42 LINE",
"716 32 LINE",
"629 -3 OFFCURVE",
"560 -64 OFFCURVE",
"560 -134 CURVE SMOOTH",
"560 -210 OFFCURVE",
"642 -299 OFFCURVE",
"743 -299 CURVE SMOOTH",
"812 -299 OFFCURVE",
"868 -259 OFFCURVE",
"908 -189 CURVE"
);
}
);
width = 801;
}
);
leftKerningGroup = La;
rightKerningGroup = LaMAR;
unicode = 0961;
},
{
glyphname = dvE;
lastChange = "2016-03-11 15:54:28 +0000";
layers = (
{
anchors = (
{
name = abvmBINDU;
position = "{301, 660}";
},
{
name = abvmCANDRABINDU;
position = "{316, 660}";
}
);
layerId = "3A083A2A-974B-4791-8355-BC872DC0CF17";
name = Regular;
paths = (
{
closed = 1;
nodes = (
"384 272 LINE",
"320 223 LINE",
"397 117 LINE",
"494 160 OFFCURVE",
"544 205 OFFCURVE",
"544 340 CURVE SMOOTH",
"544 490 LINE",
"439 565 LINE",
"384 590 LINE"
);
},
{
closed = 1;
nodes = (
"639 538 LINE",
"660 580 LINE",
"604 655 LINE",
"-36 655 LINE",
"-57 613 LINE",
"0 538 LINE"
);
},
{
closed = 1;
nodes = (
"581 -229 LINE",
"613 -197 OFFCURVE",
"629 -156 OFFCURVE",
"629 -117 CURVE SMOOTH",
"629 -44 OFFCURVE",
"570 6 OFFCURVE",
"414 80 CURVE SMOOTH",
"211 178 LINE",
"211 490 LINE",
"106 565 LINE",
"49 589 LINE",
"49 299 LINE",
"49 185 OFFCURVE",
"118 107 OFFCURVE",
"212 61 CURVE SMOOTH",
"414 -37 LINE SMOOTH",
"473 -68 OFFCURVE",
"483 -101 OFFCURVE",
"436 -164 CURVE"
);
}
);
width = 604;
}
);
unicode = 090F;
},
{
glyphname = dvOE;
layers = (
{
components = (
{
name = dvA;
}
);
layerId = "3A083A2A-974B-4791-8355-BC872DC0CF17";
name = Regular;
paths = (
{
closed = 1;
nodes = (
"638 835 LINE",
"638 602 LINE",
"719 561 LINE",
"749 578 LINE",
"749 835 LINE"
);
}
);
width = 859;
}
);
unicode = 0973;
},
{
glyphname = dvOOE;
layers = (
{
components = (
{
name = dvAa;
}
);
layerId = "3A083A2A-974B-4791-8355-BC872DC0CF17";
name = Regular;
paths = (
{
closed = 1;
nodes = (
"939 835 LINE",
"939 602 LINE",
"1020 561 LINE",
"1050 578 LINE",
"1050 835 LINE"
);
}
);
width = 1162;
}
);
unicode = 0974;
},
{
glyphname = dvKa;
lastChange = "2016-03-11 15:54:28 +0000";
layers = (
{
anchors = (
{
name = abvmBINDU;
position = "{404, 660}";
},
{
name = abvmCANDRABINDU;
position = "{444, 660}";
},
{
name = abvmCANDRABINDU2;
position = "{743, 660}";
},
{
name = abvmTOP;
position = "{433, 473}";
},
{
name = blwmBOTTOM;
position = "{309, 1}";
}
);
layerId = "3A083A2A-974B-4791-8355-BC872DC0CF17";
name = Regular;
paths = (
{
closed = 1;
nodes = (
"241 469 LINE",
"104 493 OFFCURVE",
"20 404 OFFCURVE",
"20 304 CURVE SMOOTH",
"20 168 OFFCURVE",
"175 87 OFFCURVE",
"280 87 CURVE SMOOTH",
"345 87 OFFCURVE",
"386 118 OFFCURVE",
"425 163 CURVE",
"353 311 LINE",
"318 236 OFFCURVE",
"245 199 OFFCURVE",
"193 203 CURVE",
"150 256 OFFCURVE",
"188 353 OFFCURVE",
"275 353 CURVE SMOOTH",
"314 353 OFFCURVE",
"355 333 OFFCURVE",
"402 300 CURVE",
"421 374 LINE"
);
},
{
closed = 1;
nodes = (
"850 538 LINE",
"871 580 LINE",
"815 655 LINE",
"-36 655 LINE",
"-57 613 LINE",
"0 538 LINE"
);
},
{
closed = 1;
nodes = (
"329 19 LINE",
"443 -43 LINE",
"489 -21 LINE",
"489 490 LINE",
"385 564 LINE",
"329 590 LINE"
);
},
{
closed = 1;
nodes = (
"445 146 LINE",
"500 229 OFFCURVE",
"578 299 OFFCURVE",
"625 299 CURVE SMOOTH",
"650 299 OFFCURVE",
"660 283 OFFCURVE",
"660 263 CURVE SMOOTH",
"660 215 OFFCURVE",
"599 164 OFFCURVE",
"518 103 CURVE",
"630 -14 LINE",
"733 54 OFFCURVE",
"796 136 OFFCURVE",
"796 230 CURVE SMOOTH",
"796 343 OFFCURVE",
"706 445 OFFCURVE",
"597 445 CURVE SMOOTH",
"500 445 OFFCURVE",
"429 361 OFFCURVE",
"381 272 CURVE"
);
}
);
width = 815;
}
);
leftKerningGroup = Ka;
rightKerningGroup = Ka;
unicode = 0915;
},
{
color = 5;
glyphname = dvKha;
lastChange = "2016-03-11 15:54:29 +0000";
layers = (
{
anchors = (
{
name = abvmBINDU;
position = "{516, 660}";
},
{
name = abvmCANDRABINDU;
position = "{536, 660}";
},
{
name = abvmCANDRABINDU2;
position = "{988, 660}";
},
{
name = abvmTOP;
position = "{721, 473}";
},
{
name = blwmBOTTOM;
position = "{629, -78}";
}
);
layerId = "3A083A2A-974B-4791-8355-BC872DC0CF17";
name = Regular;
paths = (
{
closed = 1;
nodes = (
"669 323 LINE",
"644 253 OFFCURVE",
"571 221 OFFCURVE",
"514 235 CURVE",
"476 280 OFFCURVE",
"506 371 OFFCURVE",
"593 371 CURVE SMOOTH",
"628 371 OFFCURVE",
"671 355 OFFCURVE",
"713 324 CURVE",
"735 374 LINE",
"563 479 LINE",
"438 505 OFFCURVE",
"362 414 OFFCURVE",
"362 325 CURVE SMOOTH",
"362 203 OFFCURVE",
"503 128 OFFCURVE",
"605 128 CURVE SMOOTH",
"669 128 OFFCURVE",
"706 157 OFFCURVE",
"742 203 CURVE"
);
},
{
closed = 1;
nodes = (
"921 538 LINE",
"942 580 LINE",
"886 655 LINE",
"204 655 LINE",
"183 613 LINE",
"240 538 LINE"
);
},
{
closed = 1;
nodes = (
"650 19 LINE",
"764 -43 LINE",
"810 -21 LINE",
"810 490 LINE",
"706 564 LINE",
"650 590 LINE"
);
},
{
closed = 1;
nodes = (
"513 538 LINE",
"534 580 LINE",
"478 655 LINE",
"-36 655 LINE",
"-57 613 LINE",
"0 538 LINE"
);
},
{
closed = 1;
nodes = (
"356 490 LINE",
"254 562 LINE",
"198 588 LINE",
"198 370 LINE SMOOTH",
"199 321 OFFCURVE",
"145 293 OFFCURVE",
"86 271 CURVE",
"188 161 LINE",
"268 220 LINE SMOOTH",
"327 261 OFFCURVE",
"356 295 OFFCURVE",
"356 360 CURVE SMOOTH"
);
},
{
closed = 1;
nodes = (
"630 99 OFFCURVE",
"551 70 OFFCURVE",
"466 70 CURVE",
"348 70 OFFCURVE",
"230 130 OFFCURVE",
"195 252 CURVE",
"263 354 LINE",
"63 355 LINE",
"29 275 LINE",
"118 69 OFFCURVE",
"301 -47 OFFCURVE",
"480 -47 CURVE",
"570 -47 OFFCURVE",
"662 -19 OFFCURVE",
"717 39 CURVE",
"674 143 LINE"
);
}
);
width = 886;
}
);
leftKerningGroup = Ra;
unicode = 0916;
},
{
glyphname = dvGa;
lastChange = "2016-03-11 15:54:29 +0000";
layers = (
{
anchors = (
{
name = abvmBINDU;
position = "{361, 660}";
},
{
name = abvmCANDRABINDU;
position = "{385, 660}";
},
{
name = abvmCANDRABINDU2;
position = "{768, 660}";
},
{
name = abvmTOP;
position = "{500, 473}";
},
{
name = blwmBOTTOM;
position = "{409, 1}";
}
);
layerId = "3A083A2A-974B-4791-8355-BC872DC0CF17";
name = Regular;
paths = (
{
closed = 1;
nodes = (
"17 292 LINE",
"43 214 OFFCURVE",
"146 124 OFFCURVE",
"223 98 CURVE",
"284 131 LINE",
"284 305 LINE",
"219 346 LINE",
"51 346 LINE"
);
},
{
closed = 1;
nodes = (
"430 19 LINE",
"544 -43 LINE",
"590 -21 LINE",
"590 490 LINE",
"486 564 LINE",
"430 590 LINE"
);
},
{
closed = 1;
nodes = (
"700 538 LINE",
"721 580 LINE",
"665 655 LINE",
"-36 655 LINE",
"-57 613 LINE",
"0 538 LINE"
);
},
{
closed = 1;
nodes = (
"130 244 LINE",
"284 204 LINE",
"284 490 LINE",
"180 564 LINE",
"124 590 LINE"
);
}
);
width = 665;
}
);
leftKerningGroup = Ma;
unicode = 0917;
},
{
glyphname = dvGha;
lastChange = "2016-03-11 15:54:29 +0000";
layers = (
{
anchors = (
{
name = abvmBINDU;
position = "{377, 660}";
},
{
name = abvmCANDRABINDU;
position = "{406, 660}";
},
{
name = abvmCANDRABINDU2;
position = "{811, 660}";
},
{
name = abvmTOP;
position = "{544, 473}";
},
{
name = blwmBOTTOM;
position = "{452, 1}";
}
);
layerId = "3A083A2A-974B-4791-8355-BC872DC0CF17";
name = Regular;
paths = (
{
closed = 1;
nodes = (
"45 593 LINE",
"25 568 OFFCURVE",
"15 542 OFFCURVE",
"15 516 CURVE SMOOTH",
"15 441 OFFCURVE",
"90 371 OFFCURVE",
"223 322 CURVE",
"255 375 LINE",
"202 395 OFFCURVE",
"176 434 OFFCURVE",
"176 471 CURVE SMOOTH",
"176 505 OFFCURVE",
"198 537 OFFCURVE",
"241 551 CURVE"
);
},
{
closed = 1;
nodes = (
"423 340 LINE",
"357 444 LINE",
"202 476 OFFCURVE",
"102 382 OFFCURVE",
"102 287 CURVE SMOOTH",
"102 215 OFFCURVE",
"156 154 OFFCURVE",
"218 115 CURVE SMOOTH",
"267 85 OFFCURVE",
"322 67 OFFCURVE",
"378 67 CURVE SMOOTH",
"443 67 OFFCURVE",
"499 91 OFFCURVE",
"537 138 CURVE",
"477 301 LINE",
"441 223 OFFCURVE",
"326 175 OFFCURVE",
"262 193 CURVE",
"228 243 OFFCURVE",
"283 315 OFFCURVE",
"402 299 CURVE"
);
},
{
closed = 1;
nodes = (
"473 19 LINE",
"587 -43 LINE",
"633 -21 LINE",
"633 490 LINE",
"529 564 LINE",
"473 590 LINE"
);
},
{
closed = 1;
nodes = (
"744 538 LINE",
"765 580 LINE",
"708 655 LINE",
"-51 655 LINE",
"-72 613 LINE",
"-15 538 LINE"
);
}
);
width = 709;
}
);
leftKerningGroup = Gha;
unicode = 0918;
},
{
glyphname = dvNga;
lastChange = "2016-03-11 15:54:29 +0000";
layers = (
{
anchors = (
{
name = abvmBINDU;
position = "{431, 660}";
},
{
name = abvmCANDRABINDU;
position = "{419, 660}";
},
{
name = abvmCANDRABINDU2;
position = "{752, 660}";
},
{
name = abvmTOP;
position = "{439, 473}";
},
{
name = blwmBOTTOM;
position = "{304, -71}";
}
);
layerId = "3A083A2A-974B-4791-8355-BC872DC0CF17";
name = Regular;
paths = (
{
closed = 1;
nodes = (
"688 213 OFFCURVE",
"724 257 OFFCURVE",
"738 294 CURVE",
"717 321 OFFCURVE",
"673 362 OFFCURVE",
"635 376 CURVE",
"604 357 OFFCURVE",
"571 313 OFFCURVE",
"550 273 CURVE",
"573 241 OFFCURVE",
"623 204 OFFCURVE",
"656 191 CURVE"
);
},
{
closed = 1;
nodes = (
"8 179 LINE",
"122 12 OFFCURVE",
"239 -71 OFFCURVE",
"364 -71 CURVE SMOOTH",
"491 -71 OFFCURVE",
"570 15 OFFCURVE",
"570 114 CURVE SMOOTH",
"570 200 OFFCURVE",
"509 284 OFFCURVE",
"400 320 CURVE",
"225 269 LINE",
"211 280 OFFCURVE",
"204 294 OFFCURVE",
"204 307 CURVE SMOOTH",
"204 333 OFFCURVE",
"233 351 OFFCURVE",
"278 351 CURVE SMOOTH",
"511 351 LINE",
"419 483 LINE",
"248 483 LINE SMOOTH",
"124 483 OFFCURVE",
"67 420 OFFCURVE",
"67 353 CURVE SMOOTH",
"67 265 OFFCURVE",
"166 175 OFFCURVE",
"312 129 CURVE",
"450 180 LINE",
"455 126 OFFCURVE",
"398 69 OFFCURVE",
"313 69 CURVE SMOOTH",
"235 69 OFFCURVE",
"155 115 OFFCURVE",
"76 235 CURVE"
);
},
{
closed = 1;
nodes = (
"370 367 LINE",
"514 351 LINE",
"514 490 LINE",
"410 564 LINE",
"370 590 LINE"
);
},
{
closed = 1;
nodes = (
"779 538 LINE",
"800 580 LINE",
"744 655 LINE",
"-36 655 LINE",
"-57 613 LINE",
"0 538 LINE"
);
}
);
width = 744;
}
);
leftKerningGroup = Dda;
rightKerningGroup = Nga;
unicode = 0919;
},
{
glyphname = dvCa;
lastChange = "2016-03-11 15:54:28 +0000";
layers = (
{
anchors = (
{
name = abvmBINDU;
position = "{556, 660}";
},
{
name = abvmCANDRABINDU;
position = "{537, 660}";
},
{
name = abvmCANDRABINDU2;
position = "{820, 660}";
},
{
name = abvmTOP;
position = "{552, 473}";
},
{
name = blwmBOTTOM;
position = "{461, 1}";
}
);
layerId = "3A083A2A-974B-4791-8355-BC872DC0CF17";
name = Regular;
paths = (
{
closed = 1;
nodes = (
"231 436 LINE",
"161 406 OFFCURVE",
"111 356 OFFCURVE",
"111 289 CURVE SMOOTH",
"111 222 OFFCURVE",
"159 161 OFFCURVE",
"221 123 CURVE SMOOTH",
"270 92 OFFCURVE",
"332 71 OFFCURVE",
"394 71 CURVE SMOOTH",
"465 71 OFFCURVE",
"523 100 OFFCURVE",
"561 154 CURVE",
"493 316 LINE",
"461 239 OFFCURVE",
"357 178 OFFCURVE",
"271 197 CURVE",
"249 261 OFFCURVE",
"292 338 OFFCURVE",
"370 354 CURVE"
);
},
{
closed = 1;
nodes = (
"482 19 LINE",
"596 -43 LINE",
"642 -21 LINE",
"642 490 LINE",
"538 564 LINE",
"482 590 LINE"
);
},
{
closed = 1;
nodes = (
"752 538 LINE",
"773 580 LINE",
"717 655 LINE",
"-36 655 LINE",
"-57 613 LINE",
"0 538 LINE"
);
},
{
closed = 1;
nodes = (
"177 348 LINE",
"208 334 LINE",
"418 334 LINE",
"439 376 LINE",
"378 466 LINE",
"6 466 LINE",
"-15 424 LINE",
"39 348 LINE"
);
}
);
width = 717;
}
);
unicode = 091A;
},
{
glyphname = dvCha;
lastChange = "2016-03-11 15:54:28 +0000";
layers = (
{
anchors = (
{
name = abvmBINDU;
position = "{399, 660}";
},
{
name = abvmCANDRABINDU;
position = "{420, 660}";
},
{
name = abvmCANDRABINDU2;
position = "{833, 660}";
},
{
name = abvmTOP;
position = "{576, 473}";
},
{
name = blwmBOTTOM;
position = "{368, -77}";
}
);
layerId = "3A083A2A-974B-4791-8355-BC872DC0CF17";
name = Regular;
paths = (
{
closed = 1;
nodes = (
"429 177 LINE",
"362 282 LINE",
"218 316 OFFCURVE",
"119 237 OFFCURVE",
"119 142 CURVE SMOOTH",
"119 32 OFFCURVE",
"251 -79 OFFCURVE",
"415 -79 CURVE SMOOTH",
"612 -79 OFFCURVE",
"754 79 OFFCURVE",
"754 243 CURVE SMOOTH",
"754 380 OFFCURVE",
"653 498 OFFCURVE",
"536 498 CURVE SMOOTH",
"452 498 OFFCURVE",
"384 436 OFFCURVE",
"384 361 CURVE SMOOTH",
"384 272 OFFCURVE",
"479 184 OFFCURVE",
"598 134 CURVE",
"630 192 LINE",
"551 223 OFFCURVE",
"525 280 OFFCURVE",
"525 324 CURVE SMOOTH",
"525 368 OFFCURVE",
"555 405 OFFCURVE",
"606 388 CURVE",
"620 372 OFFCURVE",
"627 334 OFFCURVE",
"627 303 CURVE SMOOTH",
"627 170 OFFCURVE",
"505 38 OFFCURVE",
"331 38 CURVE SMOOTH",
"312 38 OFFCURVE",
"300 40 OFFCURVE",
"285 44 CURVE",
"273 54 OFFCURVE",
"266 72 OFFCURVE",
"266 87 CURVE SMOOTH",
"266 131 OFFCURVE",
"319 164 OFFCURVE",
"397 136 CURVE"
);
},
{
closed = 1;
nodes = (
"508 417 LINE",
"652 383 LINE",
"652 490 LINE",
"548 564 LINE",
"508 590 LINE"
);
},
{
closed = 1;
nodes = (
"823 538 LINE",
"844 580 LINE",
"787 655 LINE",
"-36 655 LINE",
"-57 613 LINE",
"0 538 LINE"
);
},
{
closed = 1;
nodes = (
"341 397 LINE",
"275 494 LINE",
"175 494 LINE SMOOTH",
"65 494 OFFCURVE",
"18 430 OFFCURVE",
"18 367 CURVE SMOOTH",
"18 296 OFFCURVE",
"77 231 OFFCURVE",
"175 185 CURVE",
"230 236 LINE",
"175 267 OFFCURVE",
"158 286 OFFCURVE",
"158 309 CURVE SMOOTH",
"158 343 OFFCURVE",
"196 356 OFFCURVE",
"235 356 CURVE SMOOTH",
"319 356 LINE"
);
}
);
width = 788;
}
);
rightKerningGroup = Cha;
unicode = 091B;
},
{
glyphname = dvJa;
lastChange = "2016-03-11 15:54:28 +0000";
layers = (
{
anchors = (
{
name = abvmBINDU;
position = "{583, 660}";
},
{
name = abvmCANDRABINDU;
position = "{564, 660}";
},
{
name = abvmCANDRABINDU2;
position = "{847, 660}";
},
{
name = abvmTOP;
position = "{579, 473}";
},
{
name = blwmBOTTOM;
position = "{488, 1}";
}
);
layerId = "3A083A2A-974B-4791-8355-BC872DC0CF17";
name = Regular;
paths = (
{
closed = 1;
nodes = (
"-5 403 LINE",
"51 195 OFFCURVE",
"146 29 OFFCURVE",
"299 29 CURVE SMOOTH",
"399 29 OFFCURVE",
"454 100 OFFCURVE",
"454 178 CURVE SMOOTH",
"454 272 OFFCURVE",
"374 358 OFFCURVE",
"225 397 CURVE",
"195 405 LINE",
"195 366 LINE",
"270 339 LINE",
"342 291 OFFCURVE",
"331 190 OFFCURVE",
"253 190 CURVE SMOOTH",
"178 190 OFFCURVE",
"141 285 OFFCURVE",
"95 436 CURVE"
);
},
{
closed = 1;
nodes = (
"556 446 LINE",
"195 446 LINE",
"195 397 LINE",
"332 310 LINE",
"550 310 LINE"
);
},
{
closed = 1;
nodes = (
"509 19 LINE",
"623 -43 LINE",
"669 -21 LINE",
"669 490 LINE",
"565 564 LINE",
"509 590 LINE"
);
},
{
closed = 1;
nodes = (
"779 538 LINE",
"800 580 LINE",
"744 655 LINE",
"-36 655 LINE",
"-57 613 LINE",
"0 538 LINE"
);
}
);
width = 744;
}
);
leftKerningGroup = Ja;
unicode = 091C;
},
{
glyphname = dvJha;
lastChange = "2016-03-11 15:54:28 +0000";
layers = (
{
anchors = (
{
name = abvmBINDU;
position = "{561, 660}";
},
{
name = abvmCANDRABINDU;
position = "{580, 660}";
},
{
name = abvmCANDRABINDU2;
position = "{965, 660}";
},
{
name = abvmTOP;
position = "{697, 473}";
},
{
name = blwmBOTTOM;
position = "{606, 1}";
}
);
components = (
{
name = dvI;
}
);
layerId = "3A083A2A-974B-4791-8355-BC872DC0CF17";
name = Regular;
paths = (
{
closed = 1;
nodes = (
"627 19 LINE",
"741 -43 LINE",
"787 -21 LINE",
"787 490 LINE",
"683 564 LINE",
"627 590 LINE"
);
},
{
closed = 1;
nodes = (
"897 538 LINE",
"918 580 LINE",
"862 655 LINE",
"512 655 LINE",
"491 613 LINE",
"547 538 LINE"
);
},
{
closed = 1;
nodes = (
"377 257 LINE",
"467 182 OFFCURVE",
"577 143 OFFCURVE",
"642 167 CURVE",
"639 321 LINE",
"588 265 OFFCURVE",
"479 275 OFFCURVE",
"391 311 CURVE"
);
}
);
width = 862;
}
);
leftKerningGroup = Dda;
unicode = 091D;
},
{
glyphname = dvJha.NEP;
lastChange = "2016-03-11 15:54:28 +0000";
layers = (
{
anchors = (
{
name = abvmBINDU;
position = "{531, 660}";
},
{
name = abvmCANDRABINDU;
position = "{512, 660}";
},
{
name = abvmCANDRABINDU2;
position = "{831, 660}";
},
{
name = abvmTOP;
position = "{520, 473}";
},
{
name = blwmBOTTOM;
position = "{427, 1}";
}
);
layerId = "3A083A2A-974B-4791-8355-BC872DC0CF17";
name = Regular;
paths = (
{
closed = 1;
nodes = (
"68 295 LINE",
"93 216 OFFCURVE",
"199 116 OFFCURVE",
"276 90 CURVE",
"336 123 LINE",
"336 308 LINE",
"269 348 LINE",
"102 348 LINE"
);
},
{
closed = 1;
nodes = (
"448 19 LINE",
"562 -43 LINE",
"608 -21 LINE",
"608 490 LINE",
"504 564 LINE",
"448 590 LINE"
);
},
{
closed = 1;
nodes = (
"923 538 LINE",
"944 580 LINE",
"888 655 LINE",
"386 655 LINE",
"365 613 LINE",
"421 538 LINE"
);
},
{
closed = 1;
nodes = (
"542 348 LINE",
"214 348 LINE",
"245 212 LINE",
"564 212 LINE"
);
},
{
closed = 1;
nodes = (
"19 678 OFFCURVE",
"-33 618 OFFCURVE",
"-33 555 CURVE SMOOTH",
"-33 506 OFFCURVE",
"-2 456 OFFCURVE",
"82 399 CURVE",
"139 446 LINE",
"63 502 OFFCURVE",
"102 569 OFFCURVE",
"163 566 CURVE",
"176 550 OFFCURVE",
"180 523 OFFCURVE",
"180 495 CURVE SMOOTH",
"181 239 LINE",
"334 219 LINE",
"334 448 LINE",
"334 555 OFFCURVE",
"220 678 OFFCURVE",
"101 678 CURVE SMOOTH"
);
},
{
closed = 1;
nodes = (
"587 226 LINE",
"680 226 LINE",
"726 226 OFFCURVE",
"752 210 OFFCURVE",
"752 180 CURVE SMOOTH",
"752 146 OFFCURVE",
"717 101 OFFCURVE",
"653 54 CURVE",
"770 -54 LINE",
"856 12 OFFCURVE",
"895 78 OFFCURVE",
"895 147 CURVE SMOOTH",
"895 264 OFFCURVE",
"783 371 OFFCURVE",
"665 371 CURVE",
"569 371 LINE"
);
}
);
width = 889;
}
);
leftKerningGroup = Ma;
rightKerningGroup = Ka;
},
{
glyphname = dvNya;
lastChange = "2016-03-11 15:54:28 +0000";
layers = (
{
anchors = (
{
name = abvmBINDU;
position = "{650, 660}";
},
{
name = abvmCANDRABINDU;
position = "{631, 660}";
},
{
name = abvmCANDRABINDU2;
position = "{914, 660}";
},
{
name = abvmTOP;
position = "{646, 473}";
},
{
name = blwmBOTTOM;
position = "{555, 1}";
}
);
layerId = "3A083A2A-974B-4791-8355-BC872DC0CF17";
name = Regular;
paths = (
{
closed = 1;
nodes = (
"226 296 LINE",
"370 414 LINE",
"294 391 LINE",
"347 388 OFFCURVE",
"379 345 OFFCURVE",
"379 300 CURVE SMOOTH",
"379 251 OFFCURVE",
"342 202 OFFCURVE",
"271 202 CURVE SMOOTH",
"191 202 OFFCURVE",
"132 265 OFFCURVE",
"55 392 CURVE",
"-24 338 LINE",
"98 113 OFFCURVE",
"236 59 OFFCURVE",
"324 59 CURVE SMOOTH",
"438 59 OFFCURVE",
"521 148 OFFCURVE",
"521 257 CURVE SMOOTH",
"521 387 OFFCURVE",
"404 493 OFFCURVE",
"282 493 CURVE SMOOTH",
"235 493 OFFCURVE",
"179 478 OFFCURVE",
"130 422 CURVE"
);
},
{
closed = 1;
nodes = (
"576 19 LINE",
"690 -43 LINE",
"736 -21 LINE",
"736 490 LINE",
"632 564 LINE",
"576 590 LINE"
);
},
{
closed = 1;
nodes = (
"846 538 LINE",
"867 580 LINE",
"811 655 LINE",
"-36 655 LINE",
"-57 613 LINE",
"0 538 LINE"
);
},
{
closed = 1;
nodes = (
"391 280 LINE",
"470 211 OFFCURVE",
"579 172 OFFCURVE",
"641 195 CURVE",
"639 348 LINE",
"591 293 OFFCURVE",
"486 301 OFFCURVE",
"405 337 CURVE"
);
}
);
width = 811;
}
);
unicode = 091E;
},
{
glyphname = dvTta;
lastChange = "2016-03-11 15:54:28 +0000";
layers = (
{
anchors = (
{
name = abvmBINDU;
position = "{365, 660}";
},
{
name = abvmCANDRABINDU;
position = "{349, 660}";
},
{
name = abvmCANDRABINDU2;
position = "{606, 660}";
},
{
name = abvmTOP;
position = "{392, 473}";
},
{
name = blwmBOTTOM;
position = "{303, -31}";
}
);
layerId = "3A083A2A-974B-4791-8355-BC872DC0CF17";
name = Regular;
paths = (
{
closed = 1;
nodes = (
"483 200 LINE",
"414 125 OFFCURVE",
"284 88 OFFCURVE",
"206 125 CURVE",
"188 145 OFFCURVE",
"178 165 OFFCURVE",
"178 190 CURVE SMOOTH",
"178 239 OFFCURVE",
"216 281 OFFCURVE",
"299 281 CURVE SMOOTH",
"465 281 LINE",
"382 432 LINE",
"260 432 LINE SMOOTH",
"93 432 OFFCURVE",
"26 345 OFFCURVE",
"26 249 CURVE SMOOTH",
"26 89 OFFCURVE",
"209 -34 OFFCURVE",
"356 -34 CURVE SMOOTH",
"421 -34 OFFCURVE",
"509 -10 OFFCURVE",
"573 69 CURVE"
);
},
{
closed = 1;
nodes = (
"310 323 LINE",
"465 281 LINE",
"465 490 LINE",
"361 564 LINE",
"310 590 LINE"
);
},
{
closed = 1;
nodes = (
"619 538 LINE",
"640 580 LINE",
"584 655 LINE",
"-36 655 LINE",
"-57 613 LINE",
"0 538 LINE"
);
}
);
width = 584;
}
);
leftKerningGroup = Da;
rightKerningGroup = Tta;
unicode = 091F;
},
{
glyphname = dvTtha;
lastChange = "2016-03-11 15:54:28 +0000";
layers = (
{
anchors = (
{
name = abvmBINDU;
position = "{383, 660}";
},
{
name = abvmCANDRABINDU;
position = "{365, 660}";
},
{
name = abvmCANDRABINDU2;
position = "{655, 660}";
},
{
name = abvmTOP;
position = "{388, 473}";
},
{
name = blwmBOTTOM;
position = "{310, -43}";
}
);
layerId = "3A083A2A-974B-4791-8355-BC872DC0CF17";
name = Regular;
paths = (
{
closed = 1;
nodes = (
"392 308 LINE",
"431 277 OFFCURVE",
"455 236 OFFCURVE",
"455 197 CURVE SMOOTH",
"455 141 OFFCURVE",
"406 88 OFFCURVE",
"316 88 CURVE SMOOTH",
"280 88 OFFCURVE",
"245 97 OFFCURVE",
"215 114 CURVE",
"197 135 OFFCURVE",
"186 160 OFFCURVE",
"186 184 CURVE SMOOTH",
"186 234 OFFCURVE",
"225 277 OFFCURVE",
"307 277 CURVE SMOOTH",
"463 277 LINE",
"380 425 LINE",
"272 425 LINE SMOOTH",
"111 425 OFFCURVE",
"35 338 OFFCURVE",
"35 238 CURVE SMOOTH",
"35 91 OFFCURVE",
"199 -45 OFFCURVE",
"379 -45 CURVE SMOOTH",
"515 -45 OFFCURVE",
"603 33 OFFCURVE",
"603 141 CURVE SMOOTH",
"603 239 OFFCURVE",
"529 335 OFFCURVE",
"429 387 CURVE"
);
},
{
closed = 1;
nodes = (
"315 310 LINE",
"470 280 LINE",
"470 490 LINE",
"366 564 LINE",
"315 590 LINE"
);
},
{
closed = 1;
nodes = (
"675 538 LINE",
"696 580 LINE",
"639 655 LINE",
"-36 655 LINE",
"-57 613 LINE",
"0 538 LINE"
);
}
);
width = 640;
}
);
leftKerningGroup = Da;
rightKerningGroup = Tta;
unicode = 0920;
},
{
glyphname = dvDda;
lastChange = "2016-03-11 15:54:29 +0000";
layers = (
{
anchors = (
{
name = abvmBINDU;
position = "{440, 660}";
},
{
name = abvmCANDRABINDU;
position = "{423, 660}";
},
{
name = abvmCANDRABINDU2;
position = "{701, 660}";
},
{
name = abvmTOP;
position = "{456, 473}";
},
{
name = blwmBOTTOM;
position = "{272, -67}";
}
);
layerId = "3A083A2A-974B-4791-8355-BC872DC0CF17";
name = Regular;
paths = (
{
closed = 1;
nodes = (
"12 184 LINE",
"127 13 OFFCURVE",
"250 -67 OFFCURVE",
"375 -67 CURVE SMOOTH",
"503 -67 OFFCURVE",
"585 16 OFFCURVE",
"585 112 CURVE SMOOTH",
"585 189 OFFCURVE",
"531 277 OFFCURVE",
"415 316 CURVE",
"233 274 LINE",
"214 288 OFFCURVE",
"208 303 OFFCURVE",
"208 315 CURVE SMOOTH",
"208 340 OFFCURVE",
"235 357 OFFCURVE",
"282 357 CURVE SMOOTH",
"529 357 LINE",
"437 490 LINE",
"257 490 LINE SMOOTH",
"130 490 OFFCURVE",
"72 432 OFFCURVE",
"72 361 CURVE SMOOTH",
"72 266 OFFCURVE",
"176 173 OFFCURVE",
"320 127 CURVE",
"469 174 LINE",
"471 113 OFFCURVE",
"402 70 OFFCURVE",
"329 70 CURVE SMOOTH",
"238 70 OFFCURVE",
"151 130 OFFCURVE",
"80 240 CURVE"
);
},
{
closed = 1;
nodes = (
"385 373 LINE",
"529 357 LINE",
"529 490 LINE",
"425 564 LINE",
"385 590 LINE"
);
},
{
closed = 1;
nodes = (
"656 538 LINE",
"677 580 LINE",
"621 655 LINE",
"-36 655 LINE",
"-57 613 LINE",
"0 538 LINE"
);
}
);
width = 621;
}
);
leftKerningGroup = Dda;
rightKerningGroup = Da;
unicode = 0921;
},
{
glyphname = dvDdha;
lastChange = "2016-03-11 15:54:28 +0000";
layers = (
{
anchors = (
{
name = abvmBINDU;
position = "{415, 660}";
},
{
name = abvmCANDRABINDU;
position = "{399, 660}";
},
{
name = abvmCANDRABINDU2;
position = "{656, 660}";
},
{
name = abvmTOP;
position = "{438, 473}";
},
{
name = blwmBOTTOM;
position = "{342, -72}";
}
);
layerId = "3A083A2A-974B-4791-8355-BC872DC0CF17";
name = Regular;
paths = (
{
closed = 1;
nodes = (
"448 36 LINE",
"419 74 OFFCURVE",
"408 104 OFFCURVE",
"408 130 CURVE SMOOTH",
"408 167 OFFCURVE",
"431 187 OFFCURVE",
"452 187 CURVE SMOOTH",
"470 187 OFFCURVE",
"486 172 OFFCURVE",
"486 146 CURVE SMOOTH",
"486 91 OFFCURVE",
"419 56 OFFCURVE",
"344 56 CURVE SMOOTH",
"302 56 OFFCURVE",
"259 67 OFFCURVE",
"222 86 CURVE",
"193 115 OFFCURVE",
"180 152 OFFCURVE",
"180 186 CURVE SMOOTH",
"180 249 OFFCURVE",
"226 309 OFFCURVE",
"320 309 CURVE SMOOTH",
"512 309 LINE",
"432 455 LINE",
"280 455 LINE SMOOTH",
"101 455 OFFCURVE",
"30 346 OFFCURVE",
"30 244 CURVE SMOOTH",
"30 73 OFFCURVE",
"230 -74 OFFCURVE",
"396 -74 CURVE SMOOTH",
"521 -74 OFFCURVE",
"596 10 OFFCURVE",
"596 93 CURVE SMOOTH",
"596 178 OFFCURVE",
"516 281 OFFCURVE",
"401 281 CURVE SMOOTH",
"329 281 OFFCURVE",
"270 239 OFFCURVE",
"270 168 CURVE SMOOTH",
"270 147 OFFCURVE",
"275 124 OFFCURVE",
"288 99 CURVE",
"415 16 LINE"
);
},
{
closed = 1;
nodes = (
"358 328 LINE",
"512 309 LINE",
"512 490 LINE",
"407 564 LINE",
"358 590 LINE"
);
},
{
closed = 1;
nodes = (
"661 538 LINE",
"682 580 LINE",
"626 655 LINE",
"-36 655 LINE",
"-57 613 LINE",
"0 538 LINE"
);
}
);
width = 626;
}
);
leftKerningGroup = Da;
rightKerningGroup = Tta;
unicode = 0922;
},
{
glyphname = dvNna;
lastChange = "2016-03-11 15:54:29 +0000";
layers = (
{
anchors = (
{
name = abvmBINDU;
position = "{594, 660}";
},
{
name = abvmCANDRABINDU;
position = "{575, 660}";
},
{
name = abvmCANDRABINDU2;
position = "{858, 660}";
},
{
name = abvmTOP;
position = "{590, 473}";
},
{
name = blwmBOTTOM;
position = "{499, 1}";
}
);
layerId = "3A083A2A-974B-4791-8355-BC872DC0CF17";
name = Regular;
paths = (
{
closed = 1;
nodes = (
"790 538 LINE",
"811 580 LINE",
"755 655 LINE",
"-51 655 LINE",
"-72 613 LINE",
"-15 538 LINE"
);
},
{
closed = 1;
nodes = (
"520 19 LINE",
"634 -43 LINE",
"680 -21 LINE",
"680 490 LINE",
"576 564 LINE",
"520 590 LINE"
);
},
{
closed = 1;
nodes = (
"335 564 LINE",
"285 590 LINE",
"285 299 LINE SMOOTH",
"285 232 OFFCURVE",
"218 228 OFFCURVE",
"193 257 CURVE",
"193 490 LINE",
"96 564 LINE",
"40 590 LINE",
"40 365 LINE SMOOTH",
"40 246 OFFCURVE",
"177 121 OFFCURVE",
"296 121 CURVE SMOOTH",
"374 121 OFFCURVE",
"440 170 OFFCURVE",
"440 301 CURVE SMOOTH",
"440 490 LINE"
);
}
);
width = 755;
}
);
leftKerningGroup = Pa;
unicode = 0923;
},
{
glyphname = dvTa;
lastChange = "2016-03-11 15:54:28 +0000";
layers = (
{
anchors = (
{
name = abvmBINDU;
position = "{467, 660}";
},
{
name = abvmCANDRABINDU;
position = "{448, 660}";
},
{
name = abvmCANDRABINDU2;
position = "{730, 660}";
},
{
name = abvmTOP;
position = "{463, 473}";
},
{
name = blwmBOTTOM;
position = "{372, 1}";
}
);
layerId = "3A083A2A-974B-4791-8355-BC872DC0CF17";
name = Regular;
paths = (
{
closed = 1;
nodes = (
"430 444 LINE",
"245 444 LINE SMOOTH",
"95 444 OFFCURVE",
"26 362 OFFCURVE",
"26 270 CURVE SMOOTH",
"26 169 OFFCURVE",
"108 65 OFFCURVE",
"224 -46 CURVE",
"307 26 LINE",
"224 109 OFFCURVE",
"185 161 OFFCURVE",
"185 210 CURVE SMOOTH",
"185 258 OFFCURVE",
"220 291 OFFCURVE",
"293 291 CURVE SMOOTH",
"438 291 LINE"
);
},
{
closed = 1;
nodes = (
"663 538 LINE",
"684 580 LINE",
"628 655 LINE",
"-36 655 LINE",
"-57 613 LINE",
"0 538 LINE"
);
},
{
closed = 1;
nodes = (
"392 19 LINE",
"506 -43 LINE",
"552 -21 LINE",
"552 490 LINE",
"448 564 LINE",
"392 590 LINE"
);
}
);
width = 628;
}
);
leftKerningGroup = La;
unicode = 0924;
},
